<svg xmlns="http://www.w3.org/2000/svg" width="900" height="720" viewBox="0 0 900 720" font-family="ui-monospace,Menlo,monospace"><rect width="900" height="720" fill="#0a1c33"/><g stroke="#173a5e" stroke-width="1"><line x1="70" y1="50" x2="70" y2="660"/><line x1="110" y1="50" x2="110" y2="660"/><line x1="150" y1="50" x2="150" y2="660"/><line x1="190" y1="50" x2="190" y2="660"/><line x1="230" y1="50" x2="230" y2="660"/><line x1="270" y1="50" x2="270" y2="660"/><line x1="310" y1="50" x2="310" y2="660"/><line x1="350" y1="50" x2="350" y2="660"/><line x1="390" y1="50" x2="390" y2="660"/><line x1="430" y1="50" x2="430" y2="660"/><line x1="470" y1="50" x2="470" y2="660"/><line x1="510" y1="50" x2="510" y2="660"/><line x1="550" y1="50" x2="550" y2="660"/><line x1="590" y1="50" x2="590" y2="660"/><line x1="630" y1="50" x2="630" y2="660"/><line x1="670" y1="50" x2="670" y2="660"/><line x1="710" y1="50" x2="710" y2="660"/><line x1="750" y1="50" x2="750" y2="660"/><line x1="790" y1="50" x2="790" y2="660"/><line x1="830" y1="50" x2="830" y2="660"/><line x1="50" y1="50" x2="830" y2="50"/><line x1="50" y1="90" x2="830" y2="90"/><line x1="50" y1="130" x2="830" y2="130"/><line x1="50" y1="170" x2="830" y2="170"/><line x1="50" y1="210" x2="830" y2="210"/><line x1="50" y1="250" x2="830" y2="250"/><line x1="50" y1="290" x2="830" y2="290"/><line x1="50" y1="330" x2="830" y2="330"/><line x1="50" y1="370" x2="830" y2="370"/><line x1="50" y1="410" x2="830" y2="410"/><line x1="50" y1="450" x2="830" y2="450"/><line x1="50" y1="490" x2="830" y2="490"/><line x1="50" y1="530" x2="830" y2="530"/><line x1="50" y1="570" x2="830" y2="570"/><line x1="50" y1="610" x2="830" y2="610"/><line x1="50" y1="650" x2="830" y2="650"/></g><path d="M502.3 225.1 L504.7 227.4 L507.1 229.8 L509.6 232.1 L512.0 234.3 L514.4 236.7 L516.9 239.0 L519.3 241.3 L521.8 243.6 L524.2 245.9 L526.6 248.2 L529.1 250.5 L531.4 252.9 L533.8 255.2 L536.2 257.6 L538.7 259.9 L541.1 262.2 L543.5 264.6 L545.9 266.9 L548.3 269.3 L550.7 271.6 L553.1 274.0 L555.5 276.3 L557.9 278.7 L560.3 281.0 L562.7 283.4 L565.1 285.7 L567.5 288.1 L569.9 290.4 L572.3 292.8 L574.4 294.7 L575.3 296.9 L574.8 299.4 L573.7 302.2 L572.2 305.1 L570.7 308.3 L569.8 311.8 L569.1 315.3 L568.8 318.7 L568.5 322.2 L568.5 325.8 L569.0 329.3 L569.6 332.6 L570.3 336.1 L571.6 339.5 L573.1 342.7 L575.0 345.8 L577.1 348.6 L579.4 351.2 L581.9 353.6 L584.3 355.9 L586.8 358.3 L589.3 360.5 L591.9 362.8 L594.4 365.0 L596.9 367.2 L599.3 369.4 L601.8 371.7 L604.3 374.0 L606.7 376.3 L609.2 378.5 L611.5 380.9 L613.8 383.2 L616.2 385.6 L618.6 388.0 L620.9 390.4 L623.3 392.8 L625.6 395.2 L627.9 397.7 L630.3 400.1 L632.6 402.4 L634.7 404.9 L636.9 407.5 L639.0 410.0 L641.2 412.6 L643.3 415.2 L645.4 417.8 L647.6 420.4 L649.7 422.9 L651.8 425.5 L653.9 428.2 L655.9 430.8 L658.0 433.4 L659.9 436.1 L661.7 438.9 L663.6 441.6 L665.4 444.4 L667.3 447.2 L669.0 450.0 L670.7 452.9 L672.5 455.8 L674.2 458.7 L675.9 461.5 L677.6 464.4 L679.4 467.3 L681.1 470.2 L682.8 473.1 L684.5 475.9 L686.1 478.8 L687.7 481.8 L689.2 484.6 L690.5 487.6 L691.6 490.2 L691.4 492.5 L690.1 494.3 L687.8 495.5 L684.8 496.1 L681.5 496.7 L678.2 497.3 L674.9 498.0 L671.6 498.7 L668.3 499.5 L665.0 500.2 L661.8 500.9 L658.5 501.7 L655.1 502.4 L651.5 503.6 L648.2 506.1 L646.5 509.8 L645.5 513.4 L645.3 517.0 L645.4 520.5 L645.6 523.9 L645.7 527.3 L645.9 530.6 L646.1 533.9 L646.3 537.3 L646.5 540.7 L646.6 544.0 L646.8 547.4 L647.0 550.7 L647.2 554.1 L647.4 557.4 L647.5 560.8 L647.7 564.1 L647.9 567.5 L648.1 570.8 L648.2 574.2 L648.4 577.0 L647.3 579.2 L645.4 581.5 L643.2 583.8 L640.7 585.7 L638.0 587.8 L635.4 589.8 L632.7 591.8 L630.0 593.8 L627.3 595.8 L624.6 597.8 L621.9 599.8 L619.2 601.8 L616.5 603.8 L613.8 605.8 L611.1 607.8 L608.4 609.8 L605.8 611.6 L602.9 613.3 L600.1 615.0 L597.2 616.2 L594.1 617.5 L591.0 618.9 L587.9 620.2 L584.8 621.5 L581.8 622.8 L578.7 624.1 L575.6 625.4 L572.5 626.8 L569.4 628.1 L566.4 629.4 L563.2 630.6 L560.1 631.8 L557.0 633.0 L553.7 634.2 L550.6 636.0 L547.7 637.8 L544.9 639.6 L542.0 641.3 L539.2 643.1 L536.3 644.9 L533.7 646.6 L531.0 647.5 L528.2 647.9 L525.9 647.4 L523.8 645.7 L521.7 643.3 L519.1 640.9 L516.4 638.7 L513.6 636.7 L510.7 634.7 L507.5 633.0 L504.2 631.9 L500.8 630.7 L497.3 630.2 L493.9 629.8 L490.5 629.5 L487.1 629.3 L483.7 629.2 L480.4 629.1 L477.2 628.8 L474.0 628.4 L470.9 627.7 L467.8 626.7 L464.6 625.7 L461.6 624.5 L458.6 623.2 L455.7 621.9 L453.1 620.1 L450.4 618.2 L447.7 616.2 L445.2 614.2 L442.7 612.1 L440.4 609.9 L438.4 607.4 L436.3 604.8 L434.4 602.2 L432.7 599.4 L431.0 596.6 L429.4 593.9 L428.4 590.9 L427.3 587.7 L426.3 584.6 L425.4 581.4 L424.5 578.3 L423.9 575.1 L423.3 571.8 L422.6 568.5 L421.9 565.2 L421.3 561.9 L420.6 558.6 L419.9 555.3 L419.3 552.0 L418.6 548.7 L417.9 545.4 L417.3 542.1 L416.6 538.8 L415.9 535.5 L415.2 532.2 L414.6 529.1 L414.3 525.9 L414.2 522.8 L414.5 519.6 L414.9 516.4 L415.8 513.4 L416.8 510.3 L418.0 507.3 L419.2 504.4 L421.0 501.8 L422.8 499.0 L424.8 496.4 L426.9 493.8 L429.0 491.0 L430.9 488.2 L432.8 485.2 L434.3 482.0 L435.6 478.8 L436.7 475.5 L437.5 472.1 L438.2 468.7 L438.8 465.4 L439.3 462.1 L439.9 458.8 L440.5 455.4 L441.0 452.2 L441.6 448.8 L442.2 445.5 L442.7 442.2 L443.3 438.9 L443.9 435.6 L444.4 432.3 L445.0 429.0 L445.6 425.7 L446.1 422.3 L446.5 418.8 L446.8 415.4 L446.9 412.0 L447.0 408.6 L447.0 405.2 L446.9 401.8 L446.6 398.4 L446.4 395.1 L446.2 391.6 L445.7 388.2 L445.1 384.9 L444.5 381.4 L443.7 378.1 L442.8 374.9 L442.0 371.5 L440.9 368.3 L439.9 365.1 L438.8 361.8 L437.4 358.6 L435.9 355.5 L434.4 352.5 L432.8 349.5 L431.2 346.5 L429.4 343.5 L427.5 340.7 L425.7 337.9 L423.8 335.1 L421.9 332.3 L419.9 329.5 L417.8 326.7 L415.4 324.2 L413.0 321.8 L410.7 319.4 L408.2 316.9 L405.6 314.7 L403.1 312.5 L400.5 310.3 L398.0 308.2 L395.4 306.0 L392.8 303.8 L390.3 301.6 L387.7 299.5 L385.1 297.3 L382.6 295.1 L380.1 292.9 L377.4 290.7 L374.7 288.6 L371.8 286.6 L368.7 285.0 L365.5 283.5 L362.2 282.2 L358.8 281.3 L355.3 280.7 L351.7 280.5 L348.2 280.5 L344.9 280.7 L341.6 280.8 L338.2 280.9 L334.8 281.1 L331.5 281.2 L328.2 281.3 L325.0 281.3 L322.0 280.8 L319.1 279.9 L316.2 278.6 L313.4 277.2 L310.9 275.4 L308.4 273.3 L305.8 271.1 L303.2 268.9 L300.6 266.8 L298.0 264.7 L295.4 262.6 L292.7 260.5 L290.1 258.3 L287.5 256.2 L285.0 254.1 L282.4 252.0 L279.7 249.8 L277.1 247.7 L274.5 245.6 L271.9 243.5 L269.3 241.4 L266.7 239.3 L264.0 237.2 L261.5 235.1 L259.1 233.0 L257.0 230.6 L254.8 228.1 L252.5 225.5 L250.3 223.0 L248.3 220.6 L246.5 217.9 L244.7 215.2 L243.2 212.3 L241.8 209.3 L240.5 206.3 L239.1 203.3 L237.9 200.2 L236.8 197.1 L235.6 193.9 L234.5 190.8 L233.4 187.7 L232.4 184.5 L231.4 181.3 L230.4 178.1 L229.4 174.9 L228.4 171.7 L227.4 168.4 L226.4 165.2 L225.4 162.1 L224.4 158.8 L223.4 155.6 L222.4 152.4 L221.4 149.2 L220.4 146.0 L219.4 142.8 L218.5 139.6 L217.6 136.4 L216.6 133.2 L215.7 129.9 L214.7 126.7 L213.8 123.5 L212.8 120.3 L211.9 117.1 L211.0 113.9 L210.3 110.7 L209.6 107.4 L208.9 104.2 L208.4 101.7 L209.4 100.8 L212.1 99.7 L215.2 98.5 L218.3 97.1 L221.4 95.8 L224.5 94.5 L227.6 93.2 L230.7 91.9 L233.8 90.6 L236.9 89.3 L240.0 88.0 L243.1 86.7 L246.2 85.4 L249.3 84.1 L252.4 82.8 L255.4 81.5 L258.5 80.2 L261.7 78.9 L264.8 77.6 L267.9 76.3 L271.0 75.0 L274.0 73.8 L276.9 72.7 L279.9 72.2 L283.0 72.1 L285.9 72.3 L288.6 73.4 L291.4 74.9 L294.0 76.6 L296.4 78.5 L298.3 80.9 L300.0 83.5 L301.6 86.4 L303.3 89.3 L305.0 92.2 L306.6 95.1 L308.3 98.1 L310.0 101.0 L311.6 103.9 L313.3 106.8 L315.0 109.7 L316.6 112.6 L318.3 115.6 L320.1 118.5 L321.9 121.3 L323.8 124.2 L325.6 127.0 L327.4 129.8 L329.2 132.6 L331.2 135.6 L334.1 138.5 L338.6 139.3 L342.6 137.6 L345.1 134.8 L347.3 132.2 L349.5 129.6 L351.6 127.1 L353.8 124.5 L356.0 122.0 L358.2 119.5 L360.4 116.9 L362.5 114.4 L364.7 112.2 L367.2 110.7 L370.0 109.6 L372.9 108.7 L375.8 108.6 L378.7 109.0 L381.7 109.9 L384.5 111.1 L387.0 112.7 L389.3 114.9 L391.7 117.2 L394.1 119.6 L396.5 121.9 L398.9 124.2 L401.3 126.6 L403.7 128.9 L406.1 131.3 L408.5 133.6 L410.9 136.0 L413.3 138.3 L415.7 140.7 L418.1 143.0 L420.5 145.4 L422.9 147.7 L425.3 150.1 L427.7 152.4 L430.1 154.8 L432.5 157.1 L434.9 159.5 L437.3 161.8 L439.7 164.1 L442.1 166.5 L444.5 168.8 L446.9 171.2 L449.3 173.6 L451.7 175.9 L454.1 178.3 L456.5 180.6 L458.9 183.0 L461.3 185.3 L463.7 187.6 L466.1 190.0 L468.5 192.3 L470.9 194.7 L473.3 197.0 L475.7 199.4 L478.1 201.7 L480.5 204.1 L482.9 206.4 L485.3 208.8 L487.8 211.1 L490.1 213.5 L492.5 215.8 L494.9 218.2 L497.4 220.5 L499.8 222.8  L502.7 219.8 L500.3 217.5 L497.9 215.2 L495.5 212.8 L493.1 210.5 L490.7 208.1 L488.3 205.8 L485.9 203.4 L483.5 201.1 L481.1 198.7 L478.7 196.4 L476.3 194.0 L473.8 191.7 L471.5 189.3 L469.1 187.0 L466.7 184.6 L464.3 182.3 L461.9 179.9 L459.4 177.6 L457.0 175.3 L454.6 172.9 L452.2 170.6 L449.9 168.2 L447.5 165.8 L445.0 163.5 L442.6 161.1 L440.2 158.8 L437.8 156.5 L435.4 154.1 L433.0 151.8 L430.6 149.4 L428.2 147.1 L425.8 144.7 L423.4 142.4 L421.0 140.0 L418.6 137.7 L416.2 135.3 L413.8 133.0 L411.4 130.6 L409.0 128.3 L406.6 125.9 L404.2 123.6 L401.8 121.2 L399.4 118.9 L397.0 116.6 L394.6 114.2 L392.2 111.8 L389.6 109.4 L386.5 107.4 L383.1 106.0 L379.7 104.9 L376.0 104.4 L372.2 104.6 L368.6 105.6 L365.3 107.0 L362.1 109.0 L359.5 111.6 L357.2 114.2 L355.0 116.7 L352.9 119.3 L350.7 121.8 L348.5 124.4 L346.3 126.9 L344.1 129.5 L341.9 132.0 L340.1 134.2 L338.1 135.2 L336.1 134.8 L334.5 133.0 L332.7 130.3 L330.9 127.5 L329.1 124.7 L327.3 121.9 L325.5 119.0 L323.6 116.3 L321.9 113.5 L320.3 110.6 L318.6 107.7 L316.9 104.7 L315.3 101.8 L313.6 98.9 L311.9 96.0 L310.3 93.1 L308.6 90.2 L306.9 87.2 L305.3 84.3 L303.6 81.3 L301.7 78.4 L299.4 75.5 L296.5 73.2 L293.5 71.2 L290.4 69.6 L286.8 68.3 L283.1 67.9 L279.5 68.0 L275.9 68.6 L272.5 69.8 L269.3 71.2 L266.2 72.5 L263.1 73.8 L260.1 75.1 L256.9 76.3 L253.8 77.6 L250.7 78.9 L247.6 80.2 L244.5 81.5 L241.5 82.8 L238.3 84.1 L235.3 85.4 L232.2 86.7 L229.1 88.0 L226.0 89.4 L222.9 90.7 L219.8 92.0 L216.7 93.3 L213.6 94.6 L210.5 95.8 L207.0 97.3 L204.3 100.8 L204.8 105.0 L205.5 108.3 L206.2 111.6 L206.9 114.9 L207.8 118.2 L208.8 121.5 L209.7 124.7 L210.7 127.9 L211.6 131.1 L212.6 134.4 L213.5 137.6 L214.5 140.8 L215.4 144.0 L216.4 147.3 L217.4 150.5 L218.4 153.7 L219.4 156.9 L220.4 160.1 L221.4 163.3 L222.4 166.5 L223.4 169.7 L224.4 172.9 L225.4 176.1 L226.4 179.3 L227.4 182.5 L228.4 185.7 L229.4 189.0 L230.5 192.2 L231.7 195.4 L232.8 198.5 L234.0 201.7 L235.2 204.9 L236.7 208.0 L238.0 211.1 L239.5 214.2 L241.1 217.3 L243.0 220.2 L244.9 223.1 L247.1 225.8 L249.4 228.3 L251.6 230.8 L253.8 233.3 L256.1 236.0 L258.8 238.3 L261.4 240.5 L264.1 242.6 L266.7 244.7 L269.3 246.7 L271.9 248.9 L274.5 251.0 L277.1 253.1 L279.7 255.2 L282.3 257.3 L284.9 259.4 L287.5 261.6 L290.1 263.7 L292.7 265.8 L295.3 268.0 L297.9 270.1 L300.5 272.2 L303.1 274.3 L305.7 276.5 L308.3 278.7 L311.2 280.7 L314.4 282.4 L317.6 283.9 L321.1 284.9 L324.6 285.5 L328.2 285.5 L331.6 285.4 L335.0 285.2 L338.3 285.1 L341.7 285.0 L345.1 284.9 L348.4 284.7 L351.6 284.7 L354.8 284.9 L357.9 285.4 L360.9 286.2 L363.9 287.3 L366.8 288.7 L369.6 290.2 L372.2 292.0 L374.8 294.0 L377.3 296.1 L379.9 298.3 L382.4 300.5 L385.0 302.6 L387.6 304.8 L390.1 307.0 L392.7 309.2 L395.2 311.4 L397.8 313.5 L400.3 315.7 L402.9 317.9 L405.4 320.0 L407.7 322.3 L410.1 324.7 L412.4 327.1 L414.6 329.4 L416.5 332.0 L418.5 334.7 L420.3 337.4 L422.2 340.2 L424.0 343.0 L425.9 345.8 L427.5 348.6 L429.1 351.5 L430.7 354.4 L432.1 357.4 L433.6 360.4 L434.9 363.3 L435.9 366.4 L436.9 369.6 L438.0 372.7 L438.8 375.9 L439.6 379.2 L440.4 382.3 L441.0 385.6 L441.6 388.8 L442.0 392.0 L442.2 395.3 L442.4 398.7 L442.7 402.0 L442.8 405.3 L442.8 408.6 L442.7 411.9 L442.6 415.2 L442.3 418.5 L442.0 421.7 L441.4 425.0 L440.9 428.2 L440.3 431.6 L439.7 434.9 L439.2 438.2 L438.6 441.5 L438.0 444.8 L437.5 448.1 L436.9 451.4 L436.3 454.7 L435.8 458.1 L435.2 461.4 L434.6 464.7 L434.1 468.0 L433.4 471.2 L432.7 474.3 L431.6 477.3 L430.5 480.4 L429.1 483.2 L427.4 485.9 L425.6 488.6 L423.6 491.3 L421.5 493.9 L419.4 496.6 L417.5 499.4 L415.5 502.4 L414.1 505.7 L412.8 508.9 L411.8 512.2 L410.8 515.6 L410.4 519.1 L410.0 522.6 L410.1 526.2 L410.4 529.7 L411.1 533.1 L411.8 536.4 L412.5 539.6 L413.2 542.9 L413.8 546.2 L414.5 549.5 L415.1 552.8 L415.8 556.1 L416.5 559.4 L417.1 562.7 L417.8 566.0 L418.5 569.3 L419.1 572.6 L419.7 575.9 L420.4 579.2 L421.3 582.5 L422.3 585.8 L423.3 589.1 L424.4 592.2 L425.6 595.6 L427.4 598.7 L429.1 601.6 L430.9 604.6 L433.0 607.4 L435.1 610.0 L437.3 612.8 L439.9 615.2 L442.5 617.4 L445.2 619.6 L448.0 621.6 L450.7 623.5 L453.7 625.5 L456.9 627.0 L460.0 628.4 L463.2 629.6 L466.5 630.7 L469.8 631.8 L473.3 632.5 L476.7 632.9 L480.1 633.3 L483.6 633.4 L486.9 633.5 L490.2 633.7 L493.5 634.0 L496.8 634.3 L499.8 634.8 L502.8 635.8 L505.8 636.9 L508.5 638.3 L511.2 640.1 L513.9 642.0 L516.3 644.0 L518.7 646.2 L520.9 648.8 L524.1 651.2 L528.1 652.1 L532.0 651.6 L535.5 650.4 L538.5 648.4 L541.4 646.7 L544.2 644.9 L547.1 643.1 L549.9 641.3 L552.8 639.6 L555.5 638.0 L558.5 636.9 L561.6 635.7 L564.7 634.5 L567.9 633.3 L571.0 631.9 L574.1 630.6 L577.2 629.3 L580.3 628.0 L583.4 626.7 L586.5 625.3 L589.6 624.0 L592.7 622.7 L595.8 621.4 L598.9 620.1 L602.1 618.7 L605.1 616.9 L608.0 615.1 L610.9 613.2 L613.6 611.2 L616.3 609.2 L619.0 607.2 L621.7 605.2 L624.4 603.2 L627.1 601.2 L629.8 599.1 L632.5 597.1 L635.2 595.1 L637.9 593.1 L640.6 591.1 L643.2 589.1 L646.0 586.9 L648.5 584.3 L650.8 581.5 L652.5 577.8 L652.4 574.0 L652.2 570.6 L652.1 567.3 L651.9 563.9 L651.7 560.5 L651.5 557.2 L651.3 553.8 L651.2 550.5 L651.0 547.1 L650.8 543.8 L650.6 540.4 L650.5 537.1 L650.3 533.7 L650.1 530.4 L649.9 527.0 L649.7 523.7 L649.6 520.3 L649.5 517.1 L649.7 514.0 L650.5 511.2 L651.5 508.7 L653.4 507.4 L656.2 506.5 L659.4 505.8 L662.7 505.0 L665.9 504.3 L669.2 503.6 L672.5 502.8 L675.8 502.1 L679.0 501.4 L682.3 500.8 L685.6 500.2 L689.2 499.5 L692.9 497.5 L695.4 494.0 L695.8 489.6 L694.4 486.0 L693.0 482.8 L691.4 479.8 L689.8 476.8 L688.2 473.8 L686.4 470.9 L684.7 468.0 L683.0 465.2 L681.2 462.3 L679.5 459.4 L677.8 456.5 L676.1 453.6 L674.3 450.8 L672.6 447.8 L670.8 444.9 L668.9 442.1 L667.1 439.3 L665.2 436.5 L663.3 433.7 L661.3 430.9 L659.2 428.2 L657.2 425.6 L655.1 422.9 L653.0 420.3 L650.8 417.7 L648.7 415.1 L646.5 412.5 L644.4 410.0 L642.2 407.4 L640.1 404.8 L637.9 402.2 L635.7 399.6 L633.3 397.1 L631.0 394.7 L628.6 392.3 L626.3 389.9 L623.9 387.5 L621.6 385.1 L619.2 382.7 L616.8 380.3 L614.5 377.9 L612.1 375.5 L609.6 373.2 L607.1 370.9 L604.6 368.7 L602.2 366.4 L599.7 364.1 L597.1 361.8 L594.6 359.6 L592.1 357.4 L589.6 355.2 L587.2 352.9 L584.8 350.6 L582.5 348.3 L580.4 345.9 L578.4 343.4 L576.8 340.7 L575.5 337.8 L574.3 335.0 L573.7 331.9 L573.2 328.6 L572.7 325.5 L572.7 322.4 L572.9 319.1 L573.3 315.9 L573.9 312.8 L574.6 309.8 L576.0 307.0 L577.5 303.9 L578.9 300.5 L579.4 296.5 L577.9 292.4 L575.2 289.8 L572.8 287.4 L570.4 285.1 L568.0 282.7 L565.6 280.4 L563.2 278.0 L560.8 275.7 L558.4 273.3 L556.0 271.0 L553.6 268.6 L551.2 266.3 L548.8 263.9 L546.4 261.6 L544.0 259.3 L541.6 256.9 L539.2 254.6 L536.8 252.2 L534.4 249.9 L532.0 247.5 L529.5 245.2 L527.1 242.8 L524.6 240.6 L522.2 238.2 L519.8 235.9 L517.3 233.6 L514.9 231.3 L512.4 229.0 L510.0 226.7 L507.6 224.4 L505.1 222.1 Z" fill="#25f4ee" fill-opacity="0.16" stroke="#25f4ee" stroke-width="1.2" stroke-opacity="0.6"/><path d="M503.7 223.6 L506.1 225.9 L508.6 228.2 L511.0 230.5 L513.4 232.8 L515.9 235.2 L518.3 237.5 L520.8 239.8 L523.2 242.1 L525.7 244.4 L528.1 246.7 L530.5 249.0 L532.9 251.4 L535.3 253.7 L537.7 256.1 L540.1 258.4 L542.5 260.7 L544.9 263.1 L547.3 265.4 L549.7 267.8 L552.1 270.1 L554.5 272.5 L556.9 274.8 L559.3 277.2 L561.7 279.5 L564.1 281.9 L566.6 284.2 L569.0 286.6 L571.3 288.9 L573.7 291.3 L576.2 293.6 L577.3 296.7 L576.8 299.9 L575.6 303.0 L574.1 306.0 L572.7 309.0 L571.8 312.3 L571.2 315.6 L570.8 318.9 L570.6 322.3 L570.6 325.6 L571.1 328.9 L571.7 332.3 L572.3 335.6 L573.5 338.7 L575.0 341.7 L576.7 344.6 L578.7 347.2 L580.9 349.8 L583.4 352.1 L585.8 354.4 L588.2 356.7 L590.7 359.0 L593.2 361.2 L595.7 363.4 L598.3 365.6 L600.7 367.9 L603.2 370.2 L605.7 372.5 L608.2 374.8 L610.6 377.0 L613.0 379.4 L615.3 381.8 L617.7 384.2 L620.1 386.6 L622.4 389.0 L624.8 391.4 L627.1 393.8 L629.5 396.2 L631.8 398.6 L634.1 401.0 L636.3 403.5 L638.5 406.1 L640.6 408.7 L642.8 411.3 L644.9 413.9 L647.1 416.5 L649.2 419.0 L651.3 421.6 L653.4 424.2 L655.5 426.9 L657.6 429.5 L659.7 432.2 L661.6 434.9 L663.5 437.7 L665.3 440.5 L667.2 443.3 L669.1 446.1 L670.8 448.9 L672.5 451.8 L674.3 454.7 L676.0 457.6 L677.7 460.4 L679.4 463.3 L681.2 466.2 L682.9 469.1 L684.6 472.0 L686.4 474.9 L688.0 477.8 L689.6 480.8 L691.1 483.7 L692.4 486.8 L693.7 489.9 L693.4 493.3 L691.5 495.9 L688.5 497.5 L685.2 498.1 L681.9 498.8 L678.6 499.4 L675.3 500.0 L672.0 500.8 L668.8 501.5 L665.5 502.2 L662.2 503.0 L658.9 503.7 L655.7 504.4 L652.5 505.5 L649.8 507.4 L648.5 510.5 L647.6 513.7 L647.4 517.1 L647.5 520.4 L647.7 523.8 L647.8 527.1 L648.0 530.5 L648.2 533.8 L648.4 537.2 L648.6 540.5 L648.7 543.9 L648.9 547.2 L649.1 550.6 L649.3 554.0 L649.5 557.3 L649.6 560.6 L649.8 564.0 L650.0 567.4 L650.1 570.7 L650.3 574.1 L650.5 577.4 L649.1 580.3 L646.9 582.9 L644.6 585.3 L642.0 587.4 L639.3 589.4 L636.6 591.4 L633.9 593.5 L631.2 595.5 L628.5 597.5 L625.8 599.5 L623.1 601.5 L620.4 603.5 L617.7 605.5 L615.0 607.5 L612.3 609.5 L609.7 611.5 L606.9 613.4 L604.0 615.1 L601.1 616.8 L598.0 618.2 L594.9 619.5 L591.8 620.8 L588.8 622.1 L585.7 623.4 L582.6 624.7 L579.5 626.1 L576.4 627.4 L573.3 628.7 L570.2 630.0 L567.2 631.3 L564.0 632.5 L560.9 633.7 L557.7 634.9 L554.6 636.1 L551.7 637.8 L548.8 639.6 L546.0 641.3 L543.1 643.1 L540.3 644.9 L537.4 646.7 L534.6 648.5 L531.5 649.6 L528.2 650.0 L525.0 649.3 L522.4 647.3 L520.2 644.8 L517.7 642.5 L515.1 640.3 L512.4 638.4 L509.6 636.5 L506.7 635.0 L503.5 633.9 L500.3 632.7 L497.0 632.3 L493.7 631.9 L490.3 631.6 L487.0 631.4 L483.6 631.3 L480.3 631.2 L476.9 630.9 L473.6 630.4 L470.3 629.8 L467.1 628.7 L463.9 627.7 L460.8 626.5 L457.7 625.1 L454.7 623.7 L451.9 621.8 L449.2 619.9 L446.4 617.9 L443.8 615.8 L441.3 613.7 L438.8 611.4 L436.7 608.7 L434.6 606.1 L432.7 603.4 L430.9 600.5 L429.2 597.7 L427.5 594.8 L426.4 591.6 L425.3 588.4 L424.3 585.2 L423.4 582.0 L422.5 578.8 L421.8 575.5 L421.2 572.2 L420.5 568.9 L419.9 565.6 L419.2 562.3 L418.5 559.0 L417.9 555.7 L417.2 552.4 L416.5 549.1 L415.9 545.8 L415.2 542.5 L414.5 539.2 L413.8 536.0 L413.2 532.7 L412.5 529.4 L412.2 526.0 L412.1 522.7 L412.4 519.4 L412.8 516.0 L413.8 512.8 L414.8 509.6 L416.0 506.5 L417.4 503.4 L419.2 500.6 L421.1 497.8 L423.2 495.2 L425.3 492.5 L427.3 489.8 L429.2 487.1 L430.9 484.2 L432.4 481.2 L433.6 478.1 L434.7 474.9 L435.5 471.6 L436.1 468.3 L436.7 465.0 L437.3 461.7 L437.8 458.4 L438.4 455.1 L439.0 451.8 L439.5 448.5 L440.1 445.2 L440.7 441.8 L441.2 438.6 L441.8 435.2 L442.4 431.9 L442.9 428.6 L443.5 425.3 L444.1 422.0 L444.4 418.7 L444.7 415.3 L444.8 412.0 L444.9 408.6 L444.9 405.2 L444.8 401.9 L444.5 398.5 L444.3 395.2 L444.1 391.8 L443.6 388.5 L443.1 385.2 L442.5 381.9 L441.6 378.7 L440.8 375.4 L440.0 372.1 L438.9 368.9 L437.9 365.7 L436.8 362.5 L435.5 359.5 L434.0 356.5 L432.5 353.5 L430.9 350.5 L429.4 347.5 L427.7 344.6 L425.8 341.8 L423.9 339.1 L422.1 336.3 L420.2 333.5 L418.2 330.8 L416.2 328.0 L413.9 325.6 L411.5 323.2 L409.2 320.8 L406.8 318.5 L404.3 316.3 L401.7 314.1 L399.1 311.9 L396.6 309.8 L394.0 307.6 L391.5 305.4 L388.9 303.2 L386.4 301.0 L383.8 298.9 L381.2 296.7 L378.7 294.5 L376.1 292.4 L373.4 290.3 L370.7 288.4 L367.7 286.8 L364.7 285.4 L361.6 284.2 L358.3 283.3 L355.0 282.8 L351.7 282.6 L348.3 282.6 L345.0 282.8 L341.6 282.9 L338.3 283.0 L334.9 283.1 L331.5 283.3 L328.2 283.4 L324.8 283.4 L321.5 282.8 L318.3 281.9 L315.3 280.5 L312.3 279.0 L309.6 277.0 L307.0 274.9 L304.5 272.7 L301.8 270.6 L299.2 268.4 L296.6 266.3 L294.0 264.2 L291.4 262.1 L288.8 260.0 L286.2 257.8 L283.6 255.7 L281.0 253.6 L278.4 251.5 L275.8 249.3 L273.2 247.2 L270.6 245.1 L268.0 243.0 L265.4 240.9 L262.7 238.8 L260.1 236.7 L257.6 234.5 L255.4 232.0 L253.2 229.4 L251.0 226.9 L248.7 224.4 L246.6 221.8 L244.8 219.0 L242.9 216.2 L241.3 213.3 L239.9 210.2 L238.6 207.1 L237.2 204.1 L236.0 200.9 L234.8 197.8 L233.7 194.7 L232.5 191.5 L231.4 188.3 L230.4 185.1 L229.4 181.9 L228.4 178.7 L227.4 175.5 L226.4 172.3 L225.4 169.1 L224.4 165.9 L223.4 162.7 L222.4 159.5 L221.4 156.3 L220.4 153.1 L219.4 149.8 L218.4 146.6 L217.4 143.4 L216.5 140.2 L215.5 137.0 L214.6 133.8 L213.6 130.5 L212.7 127.3 L211.7 124.1 L210.8 120.9 L209.9 117.7 L209.0 114.4 L208.3 111.1 L207.6 107.8 L206.9 104.6 L206.3 101.2 L208.2 99.1 L211.3 97.8 L214.4 96.5 L217.5 95.2 L220.6 93.9 L223.7 92.6 L226.8 91.3 L229.9 90.0 L233.0 88.7 L236.1 87.4 L239.2 86.0 L242.3 84.7 L245.4 83.4 L248.5 82.1 L251.5 80.8 L254.6 79.6 L257.7 78.3 L260.9 77.0 L264.0 75.7 L267.1 74.4 L270.1 73.1 L273.2 71.8 L276.4 70.7 L279.7 70.1 L283.0 70.0 L286.4 70.3 L289.5 71.5 L292.4 73.1 L295.3 74.9 L297.9 77.0 L300.0 79.6 L301.8 82.4 L303.5 85.3 L305.1 88.3 L306.8 91.2 L308.5 94.1 L310.1 97.0 L311.8 100.0 L313.4 102.8 L315.1 105.8 L316.8 108.7 L318.4 111.6 L320.1 114.5 L321.9 117.4 L323.7 120.2 L325.5 123.0 L327.4 125.8 L329.2 128.6 L331.0 131.5 L332.8 134.3 L335.1 136.7 L338.4 137.3 L341.3 135.9 L343.5 133.4 L345.7 130.8 L347.9 128.3 L350.0 125.7 L352.2 123.2 L354.4 120.6 L356.6 118.1 L358.8 115.5 L361.0 113.0 L363.4 110.6 L366.2 108.9 L369.3 107.6 L372.5 106.7 L375.9 106.5 L379.2 107.0 L382.4 107.9 L385.5 109.2 L388.3 111.1 L390.7 113.4 L393.1 115.7 L395.5 118.1 L397.9 120.4 L400.3 122.7 L402.8 125.1 L405.2 127.4 L407.6 129.8 L410.0 132.1 L412.3 134.5 L414.7 136.8 L417.2 139.2 L419.6 141.5 L422.0 143.9 L424.4 146.2 L426.8 148.6 L429.2 150.9 L431.6 153.3 L434.0 155.6 L436.4 158.0 L438.8 160.3 L441.2 162.6 L443.6 165.0 L446.0 167.3 L448.4 169.7 L450.8 172.1 L453.2 174.4 L455.6 176.8 L458.0 179.1 L460.4 181.4 L462.8 183.8 L465.2 186.1 L467.6 188.5 L470.0 190.8 L472.4 193.2 L474.8 195.5 L477.2 197.9 L479.6 200.2 L482.0 202.6 L484.4 204.9 L486.8 207.3 L489.2 209.6 L491.6 212.0 L494.0 214.3 L496.4 216.7 L498.8 219.0 L501.3 221.3 Z" fill="none" stroke="#eaf6ff" stroke-width="2.4" stroke-opacity="0.95"/><path d="M506.6 220.6 L508.8 228.4 L500.8 226.7" fill="none" stroke="#ffd34d" stroke-width="2" opacity="0.9"/><path d="M575.6 333.0 L576.5 341.1 L568.9 338.1" fill="none" stroke="#ffd34d" stroke-width="2" opacity="0.9"/><path d="M670.8 441.1 L670.8 449.3 L663.6 445.5" fill="none" stroke="#ffd34d" stroke-width="2" opacity="0.9"/><path d="M653.3 550.4 L649.4 557.6 L644.9 550.8" fill="none" stroke="#ffd34d" stroke-width="2" opacity="0.9"/><path d="M553.6 641.5 L545.5 641.0 L549.7 634.1" fill="none" stroke="#ffd34d" stroke-width="2" opacity="0.9"/><path d="M425.2 598.9 L427.1 591.0 L433.2 596.4" fill="none" stroke="#ffd34d" stroke-width="2" opacity="0.9"/><path d="M433.7 457.7 L439.0 451.5 L442.0 459.1" fill="none" stroke="#ffd34d" stroke-width="2" opacity="0.9"/><path d="M408.8 326.4 L406.3 318.6 L414.3 320.1" fill="none" stroke="#ffd34d" stroke-width="2" opacity="0.9"/><path d="M286.2 263.2 L283.4 255.5 L291.5 256.7" fill="none" stroke="#ffd34d" stroke-width="2" opacity="0.9"/><path d="M211.5 138.1 L213.6 130.3 L219.6 135.8" fill="none" stroke="#ffd34d" stroke-width="2" opacity="0.9"/><path d="M305.4 80.3 L305.3 88.5 L298.1 84.5" fill="none" stroke="#ffd34d" stroke-width="2" opacity="0.9"/><path d="M400.9 117.4 L402.9 125.3 L395.0 123.4" fill="none" stroke="#ffd34d" stroke-width="2" opacity="0.9"/><circle cx="576.2" cy="293.6" r="9" fill="#0a1c33" stroke="#25f4ee" stroke-width="1.5"/><text x="576.2" y="297.1" fill="#25f4ee" font-size="10" text-anchor="middle">1</text><circle cx="572.3" cy="335.6" r="9" fill="#0a1c33" stroke="#25f4ee" stroke-width="1.5"/><text x="572.3" y="339.1" fill="#25f4ee" font-size="10" text-anchor="middle">2</text><circle cx="693.7" cy="489.9" r="9" fill="#0a1c33" stroke="#25f4ee" stroke-width="1.5"/><text x="693.7" y="493.4" fill="#25f4ee" font-size="10" text-anchor="middle">3</text><circle cx="648.5" cy="510.5" r="9" fill="#0a1c33" stroke="#25f4ee" stroke-width="1.5"/><text x="648.5" y="514.0" fill="#25f4ee" font-size="10" text-anchor="middle">4</text><circle cx="646.9" cy="582.9" r="9" fill="#0a1c33" stroke="#25f4ee" stroke-width="1.5"/><text x="646.9" y="586.4" fill="#25f4ee" font-size="10" text-anchor="middle">5</text><circle cx="531.5" cy="649.6" r="9" fill="#0a1c33" stroke="#25f4ee" stroke-width="1.5"/><text x="531.5" y="653.1" fill="#25f4ee" font-size="10" text-anchor="middle">6</text><circle cx="509.6" cy="636.5" r="9" fill="#0a1c33" stroke="#25f4ee" stroke-width="1.5"/><text x="509.6" y="640.0" fill="#25f4ee" font-size="10" text-anchor="middle">7</text><circle cx="432.7" cy="603.4" r="9" fill="#0a1c33" stroke="#25f4ee" stroke-width="1.5"/><text x="432.7" y="606.9" fill="#25f4ee" font-size="10" text-anchor="middle">8</text><circle cx="413.8" cy="512.8" r="9" fill="#0a1c33" stroke="#25f4ee" stroke-width="1.5"/><text x="413.8" y="516.3" fill="#25f4ee" font-size="10" text-anchor="middle">9</text><circle cx="433.6" cy="478.1" r="9" fill="#0a1c33" stroke="#25f4ee" stroke-width="1.5"/><text x="433.6" y="481.6" fill="#25f4ee" font-size="10" text-anchor="middle">10</text><circle cx="432.5" cy="353.5" r="9" fill="#0a1c33" stroke="#25f4ee" stroke-width="1.5"/><text x="432.5" y="357.0" fill="#25f4ee" font-size="10" text-anchor="middle">11</text><circle cx="361.6" cy="284.2" r="9" fill="#0a1c33" stroke="#25f4ee" stroke-width="1.5"/><text x="361.6" y="287.7" fill="#25f4ee" font-size="10" text-anchor="middle">12</text><circle cx="318.3" cy="281.9" r="9" fill="#0a1c33" stroke="#25f4ee" stroke-width="1.5"/><text x="318.3" y="285.4" fill="#25f4ee" font-size="10" text-anchor="middle">13</text><circle cx="241.3" cy="213.3" r="9" fill="#0a1c33" stroke="#25f4ee" stroke-width="1.5"/><text x="241.3" y="216.8" fill="#25f4ee" font-size="10" text-anchor="middle">14</text><circle cx="207.6" cy="107.8" r="9" fill="#0a1c33" stroke="#25f4ee" stroke-width="1.5"/><text x="207.6" y="111.3" fill="#25f4ee" font-size="10" text-anchor="middle">15</text><circle cx="289.5" cy="71.5" r="9" fill="#0a1c33" stroke="#25f4ee" stroke-width="1.5"/><text x="289.5" y="75.0" fill="#25f4ee" font-size="10" text-anchor="middle">16</text><circle cx="335.1" cy="136.7" r="9" fill="#0a1c33" stroke="#25f4ee" stroke-width="1.5"/><text x="335.1" y="140.2" fill="#25f4ee" font-size="10" text-anchor="middle">17</text><circle cx="372.5" cy="106.7" r="9" fill="#0a1c33" stroke="#25f4ee" stroke-width="1.5"/><text x="372.5" y="110.2" fill="#25f4ee" font-size="10" text-anchor="middle">18</text><line x1="501.6" y1="225.9" x2="505.8" y2="221.4" stroke="#fff" stroke-width="5" stroke-dasharray="4 4"/><circle cx="503.7" cy="223.6" r="5" fill="#ff3b6b"/><text x="513.7" y="215.6" fill="#fff" font-size="12" font-weight="bold">S/F</text><text x="50" y="40" fill="#eaf6ff" font-size="26" font-weight="bold" letter-spacing="2">MELBOURNE</text><text x="50" y="60" fill="#25f4ee" font-size="13">OUR GAME TRACK — exact buildTrack centreline (start/finish at index 0)</text><text x="830" y="40" fill="#9fc6e6" font-size="12" text-anchor="end">5.242 km · 18 corners · clockwise</text><line x1="50" y1="686" x2="133.1946755407654" y2="686" stroke="#eaf6ff" stroke-width="2"/><line x1="50" y1="681" x2="50" y2="691" stroke="#eaf6ff" stroke-width="2"/><line x1="133.1946755407654" y1="681" x2="133.1946755407654" y2="691" stroke="#eaf6ff" stroke-width="2"/><text x="91.5973377703827" y="678" fill="#9fc6e6" font-size="11" text-anchor="middle">250 m</text><line x1="822" y1="678" x2="822" y2="642" stroke="#9fc6e6" stroke-width="2"/><path d="M817 650 L822 640 L827 650 Z" fill="#9fc6e6"/><text x="822" y="692" fill="#9fc6e6" font-size="11" text-anchor="middle">N</text></svg>