<svg xmlns="http://www.w3.org/2000/svg" width="900" height="760" font-family="ui-monospace,monospace"><rect width="900" height="760" fill="#0a1c33"/><text x="40" y="38" fill="#eaf6ff" font-size="22" font-weight="bold">MELBOURNE — pre-2022 (orange) vs current 2022 (cyan)</text><path d="M491.7 211.9 L494.3 214.5 L497.0 217.0 L499.6 219.5 L502.2 222.1 L504.9 224.6 L507.5 227.2 L510.2 229.7 L512.8 232.3 L515.4 234.8 L518.1 237.3 L520.7 239.9 L523.3 242.4 L526.0 245.0 L528.6 247.5 L531.2 250.0 L533.9 252.6 L536.5 255.1 L539.1 257.6 L541.8 260.2 L544.4 262.7 L547.1 265.2 L549.7 267.7 L552.4 270.3 L555.0 272.8 L557.7 275.4 L560.3 277.9 L563.0 280.4 L565.6 282.9 L568.3 285.4 L570.9 287.9 L573.6 290.5 L576.2 293.0 L578.9 295.5 L581.5 298.0 L584.2 300.5 L586.8 303.2 L589.1 306.0 L590.1 309.3 L589.3 312.9 L587.7 316.2 L586.2 319.5 L584.8 322.9 L583.7 326.4 L582.9 329.9 L582.4 333.6 L582.2 337.2 L582.3 340.9 L582.7 344.5 L583.4 348.1 L584.4 351.6 L585.7 355.1 L587.2 358.4 L589.1 361.5 L591.3 364.5 L593.7 367.2 L596.3 369.7 L599.1 372.2 L601.8 374.6 L604.5 377.1 L607.2 379.5 L609.9 382.0 L612.7 384.4 L615.4 386.9 L618.1 389.3 L620.8 391.8 L623.5 394.3 L626.1 396.8 L628.8 399.3 L631.4 401.8 L634.0 404.4 L636.6 407.0 L639.1 409.6 L641.7 412.3 L644.2 414.9 L646.7 417.6 L649.1 420.3 L651.5 423.1 L654.0 425.8 L656.3 428.6 L658.7 431.4 L661.1 434.2 L663.4 437.0 L665.8 439.8 L668.1 442.6 L670.5 445.4 L672.8 448.2 L675.1 451.0 L677.4 453.9 L679.6 456.8 L681.8 459.7 L683.9 462.7 L686.0 465.8 L687.9 468.8 L689.9 472.0 L691.8 475.1 L693.7 478.2 L695.6 481.3 L697.5 484.4 L699.5 487.5 L701.4 490.6 L703.3 493.8 L705.2 496.9 L707.1 500.0 L709.0 503.2 L710.8 506.3 L712.7 509.5 L714.4 512.7 L716.1 515.9 L717.6 519.2 L718.4 522.9 L717.6 526.3 L715.1 528.8 L711.7 530.2 L708.1 530.8 L704.4 531.5 L700.9 532.4 L697.4 533.3 L693.8 534.2 L690.2 535.0 L686.7 535.7 L683.1 536.3 L679.5 537.1 L675.9 538.0 L672.6 539.6 L669.9 541.9 L668.1 545.0 L667.2 548.6 L667.2 552.2 L667.5 555.9 L667.8 559.5 L668.0 563.2 L668.3 566.9 L668.5 570.5 L668.8 574.1 L669.1 577.8 L669.4 581.5 L669.7 585.1 L669.9 588.7 L670.2 592.4 L670.3 596.1 L670.3 599.7 L670.3 603.4 L670.3 607.0 L670.4 610.7 L670.6 614.3 L670.8 618.0 L669.9 621.4 L667.8 624.4 L665.2 626.9 L662.4 629.3 L659.5 631.5 L656.6 633.8 L653.7 636.1 L650.8 638.3 L648.0 640.5 L645.1 642.8 L642.1 645.0 L639.3 647.2 L636.3 649.4 L633.4 651.6 L630.5 653.8 L627.5 655.9 L624.4 658.0 L621.4 659.9 L618.2 661.8 L615.0 663.5 L611.7 665.1 L608.4 666.6 L605.0 668.0 L601.6 669.4 L598.2 670.7 L594.8 672.1 L591.4 673.4 L588.0 674.7 L584.6 676.0 L581.2 677.4 L577.8 678.8 L574.4 680.2 L571.1 681.7 L567.8 683.3 L564.5 684.9 L561.2 686.5 L558.0 688.3 L554.8 690.2 L551.7 692.1 L548.7 694.1 L545.7 696.2 L542.7 698.4 L539.5 700.0 L536.1 700.0 L533.4 697.4 L530.8 694.8 L528.1 692.5 L525.1 690.3 L521.9 688.4 L518.7 686.8 L515.5 685.1 L512.3 683.2 L509.0 681.6 L505.5 680.5 L502.0 679.8 L498.3 679.5 L494.7 679.4 L491.0 679.3 L487.3 679.1 L483.7 678.9 L480.0 678.4 L476.5 677.8 L472.9 677.0 L469.4 676.0 L465.9 674.8 L462.6 673.4 L459.2 671.9 L456.0 670.2 L452.8 668.3 L449.8 666.3 L446.8 664.1 L443.9 661.9 L441.2 659.4 L438.6 656.9 L436.1 654.2 L433.8 651.4 L431.6 648.5 L429.6 645.4 L427.7 642.2 L426.1 639.0 L424.6 635.7 L423.2 632.2 L422.1 628.8 L421.2 625.2 L420.4 621.7 L419.6 618.1 L418.9 614.5 L418.2 610.9 L417.4 607.3 L416.7 603.7 L416.0 600.1 L415.2 596.6 L414.5 593.0 L413.8 589.4 L413.0 585.8 L412.3 582.2 L411.6 578.6 L410.8 575.1 L410.1 571.5 L409.3 567.9 L408.5 564.3 L407.7 560.8 L406.9 557.2 L406.1 553.6 L405.3 550.0 L404.4 546.5 L403.6 542.9 L402.8 539.4 L402.2 535.7 L402.4 532.1 L404.6 529.4 L408.1 528.1 L411.6 527.3 L415.1 526.2 L418.4 524.7 L421.6 522.9 L424.6 520.9 L427.6 518.6 L429.9 515.9 L431.4 512.6 L432.7 509.2 L433.8 505.7 L434.6 502.1 L435.3 498.5 L435.9 495.0 L436.5 491.3 L437.1 487.7 L437.6 484.1 L438.2 480.5 L438.8 476.9 L439.4 473.3 L440.0 469.6 L440.6 466.1 L441.2 462.4 L441.7 458.8 L442.3 455.2 L442.8 451.6 L443.3 448.0 L443.8 444.3 L444.1 440.7 L444.3 437.1 L444.5 433.4 L444.5 429.7 L444.4 426.0 L444.2 422.4 L443.8 418.8 L443.4 415.1 L442.9 411.5 L442.3 407.9 L441.6 404.3 L440.8 400.7 L440.0 397.2 L439.0 393.6 L438.0 390.1 L436.8 386.7 L435.5 383.3 L434.1 379.9 L432.7 376.5 L431.1 373.2 L429.4 370.0 L427.6 366.8 L425.8 363.6 L423.9 360.5 L422.0 357.4 L419.9 354.3 L417.9 351.3 L415.7 348.4 L413.4 345.5 L411.0 342.8 L408.5 340.1 L406.0 337.5 L403.3 334.9 L400.6 332.5 L397.9 330.0 L395.1 327.7 L392.2 325.4 L389.4 323.1 L386.6 320.7 L383.8 318.4 L381.0 316.1 L378.1 313.7 L375.4 311.3 L372.6 309.0 L369.8 306.6 L367.0 304.2 L364.3 301.8 L361.5 299.5 L358.7 297.1 L355.7 294.9 L352.5 293.3 L348.9 292.6 L345.3 292.5 L341.6 293.0 L338.0 293.6 L334.4 294.1 L330.8 294.6 L327.2 295.0 L323.5 295.5 L319.9 296.2 L316.3 296.8 L312.7 297.5 L309.1 298.1 L305.6 297.4 L302.6 295.3 L299.9 292.8 L297.2 290.4 L294.3 288.0 L291.5 285.7 L288.7 283.4 L285.9 281.1 L283.0 278.8 L280.2 276.5 L277.3 274.3 L274.4 272.0 L271.6 269.7 L268.7 267.3 L265.9 265.0 L263.1 262.7 L260.3 260.3 L257.6 257.9 L254.8 255.5 L252.0 253.1 L249.2 250.8 L246.3 248.6 L243.5 246.3 L240.8 243.8 L238.1 241.3 L235.3 238.9 L232.7 236.4 L230.1 233.8 L227.7 231.0 L225.5 228.1 L223.4 225.1 L221.4 222.0 L219.6 218.9 L217.8 215.7 L216.2 212.4 L214.8 209.0 L213.7 205.6 L212.6 202.1 L211.5 198.6 L210.4 195.1 L209.3 191.6 L208.2 188.1 L207.1 184.6 L206.1 181.1 L205.0 177.6 L203.9 174.1 L202.8 170.6 L201.7 167.1 L200.6 163.7 L199.5 160.1 L198.5 156.6 L197.4 153.2 L196.4 149.6 L195.3 146.1 L194.3 142.6 L193.4 139.1 L192.4 135.6 L191.5 132.0 L190.5 128.5 L189.6 124.9 L188.8 121.4 L187.9 117.8 L187.1 114.2 L186.2 110.7 L185.4 107.1 L184.6 103.6 L183.7 100.0 L183.0 96.4 L182.6 92.8 L184.4 90.1 L187.9 88.7 L191.4 87.5 L194.8 86.2 L198.2 84.9 L201.6 83.5 L205.0 82.2 L208.4 80.8 L211.8 79.5 L215.2 78.2 L218.6 76.8 L222.0 75.5 L225.4 74.2 L228.8 72.8 L232.2 71.4 L235.6 70.0 L239.0 68.6 L242.4 67.2 L245.7 65.8 L249.1 64.4 L252.5 63.0 L255.9 61.6 L259.4 60.5 L263.0 60.0 L266.6 60.1 L270.2 61.0 L273.6 62.4 L276.7 64.3 L279.6 66.5 L282.1 69.2 L284.2 72.1 L286.2 75.2 L288.0 78.4 L289.8 81.6 L291.7 84.7 L293.5 87.9 L295.4 91.1 L297.2 94.2 L299.0 97.4 L300.9 100.6 L302.7 103.7 L304.6 106.9 L306.5 110.0 L308.4 113.1 L310.3 116.3 L312.2 119.4 L314.1 122.4 L316.1 125.5 L318.1 128.6 L320.2 131.7 L322.8 134.0 L326.4 134.2 L329.4 132.3 L331.8 129.5 L334.1 126.7 L336.5 123.9 L338.9 121.1 L341.3 118.3 L343.6 115.5 L345.9 112.7 L348.3 109.8 L350.7 107.1 L353.5 104.8 L356.6 102.9 L360.0 101.6 L363.6 100.9 L367.3 100.7 L370.9 101.1 L374.4 102.1 L377.7 103.6 L380.8 105.6 L383.6 108.0 L386.4 110.4 L389.0 112.9 L391.7 115.4 L394.3 117.9 L396.9 120.5 L399.5 123.1 L402.1 125.6 L404.8 128.2 L407.4 130.7 L410.0 133.3 L412.6 135.8 L415.3 138.3 L417.9 140.9 L420.5 143.4 L423.2 146.0 L425.8 148.5 L428.4 151.1 L431.1 153.6 L433.7 156.1 L436.3 158.7 L439.0 161.2 L441.6 163.8 L444.3 166.3 L446.9 168.8 L449.5 171.4 L452.2 173.9 L454.8 176.4 L457.4 179.0 L460.1 181.5 L462.7 184.0 L465.4 186.6 L468.0 189.1 L470.6 191.6 L473.3 194.2 L475.9 196.7 L478.5 199.2 L481.2 201.8 L483.8 204.3 L486.4 206.9 L489.1 209.4 Z" fill="none" stroke="#ffb14d" stroke-width="2" stroke-dasharray="6 5" opacity="0.85"/><path d="M489.8 212.6 L492.5 215.2 L495.1 217.7 L497.7 220.3 L500.4 222.9 L503.0 225.5 L505.7 228.0 L508.4 230.6 L511.1 233.1 L513.7 235.6 L516.4 238.2 L519.1 240.7 L521.8 243.2 L524.5 245.8 L527.2 248.3 L529.8 250.8 L532.5 253.4 L535.2 255.9 L537.9 258.5 L540.5 261.1 L543.1 263.6 L545.8 266.2 L548.4 268.8 L551.1 271.4 L553.7 274.0 L556.3 276.5 L559.0 279.1 L561.6 281.7 L564.3 284.3 L566.9 286.8 L569.5 289.4 L572.2 292.0 L574.8 294.6 L577.5 297.2 L580.1 299.7 L582.7 302.3 L585.4 304.9 L588.0 307.5 L589.3 310.9 L588.8 314.4 L587.4 317.8 L585.8 321.1 L584.2 324.5 L583.3 328.0 L582.6 331.7 L582.2 335.3 L581.9 339.0 L581.9 342.7 L582.5 346.3 L583.1 350.0 L583.8 353.6 L585.1 357.0 L586.7 360.3 L588.6 363.5 L590.8 366.4 L593.3 369.2 L595.9 371.8 L598.6 374.3 L601.3 376.9 L604.0 379.3 L606.8 381.8 L609.6 384.2 L612.3 386.6 L615.1 389.1 L617.8 391.7 L620.5 394.2 L623.2 396.7 L625.9 399.2 L628.5 401.8 L631.1 404.4 L633.7 407.0 L636.3 409.7 L638.9 412.3 L641.4 414.9 L644.0 417.6 L646.6 420.2 L649.2 422.9 L651.8 425.5 L654.2 428.3 L656.5 431.1 L658.9 434.0 L661.2 436.8 L663.6 439.7 L666.0 442.5 L668.3 445.3 L670.7 448.2 L673.0 451.1 L675.3 454.0 L677.5 456.9 L679.8 459.8 L681.9 462.8 L684.0 465.9 L686.0 468.9 L688.1 472.0 L690.1 475.1 L692.1 478.2 L694.0 481.4 L695.9 484.5 L697.8 487.7 L699.7 490.9 L701.6 494.0 L703.5 497.2 L705.4 500.4 L707.2 503.5 L709.1 506.7 L710.9 509.9 L712.6 513.2 L714.4 516.5 L715.8 519.9 L717.2 523.3 L716.9 526.9 L714.8 529.9 L711.5 531.6 L707.9 532.3 L704.3 533.0 L700.6 533.6 L697.0 534.4 L693.4 535.2 L689.8 536.0 L686.2 536.8 L682.6 537.6 L679.0 538.4 L675.4 539.2 L671.9 540.4 L669.0 542.5 L667.5 545.9 L666.5 549.4 L666.4 553.1 L666.4 556.8 L666.6 560.5 L666.8 564.1 L667.0 567.8 L667.2 571.5 L667.4 575.2 L667.6 578.9 L667.8 582.6 L668.0 586.3 L668.2 589.9 L668.4 593.6 L668.6 597.3 L668.8 601.0 L669.0 604.7 L669.2 608.4 L669.3 612.1 L669.5 615.7 L669.7 619.4 L668.2 622.6 L665.8 625.5 L663.3 628.1 L660.4 630.4 L657.4 632.6 L654.5 634.8 L651.5 637.0 L648.5 639.2 L645.6 641.5 L642.6 643.7 L639.7 645.9 L636.7 648.1 L633.7 650.3 L630.8 652.5 L627.8 654.7 L624.9 656.9 L621.8 658.9 L618.6 660.8 L615.5 662.7 L612.1 664.2 L608.7 665.6 L605.3 667.1 L601.9 668.5 L598.5 670.0 L595.1 671.4 L591.7 672.9 L588.3 674.3 L584.9 675.8 L581.5 677.2 L578.1 678.7 L574.7 680.0 L571.2 681.3 L567.8 682.6 L564.3 683.9 L561.1 685.8 L558.0 687.7 L554.9 689.7 L551.7 691.6 L548.6 693.6 L545.5 695.6 L542.4 697.5 L538.9 698.7 L535.3 699.2 L531.8 698.4 L528.9 696.2 L526.5 693.4 L523.8 690.9 L521.0 688.5 L518.0 686.4 L514.9 684.3 L511.6 682.7 L508.2 681.4 L504.7 680.2 L501.0 679.7 L497.4 679.3 L493.7 679.0 L490.0 678.8 L486.3 678.7 L482.6 678.6 L479.0 678.2 L475.3 677.7 L471.7 676.9 L468.2 675.8 L464.7 674.7 L461.2 673.3 L457.9 671.8 L454.5 670.3 L451.5 668.2 L448.5 666.1 L445.4 663.9 L442.6 661.6 L439.8 659.2 L437.1 656.7 L434.8 653.8 L432.5 651.0 L430.3 648.0 L428.4 644.8 L426.5 641.7 L424.6 638.5 L423.5 635.0 L422.3 631.5 L421.1 628.0 L420.1 624.4 L419.1 620.9 L418.4 617.3 L417.7 613.6 L417.0 610.0 L416.3 606.4 L415.5 602.8 L414.8 599.2 L414.1 595.5 L413.3 591.9 L412.6 588.3 L411.9 584.7 L411.1 581.1 L410.4 577.5 L409.6 573.8 L408.9 570.2 L408.2 566.6 L407.8 562.9 L407.7 559.3 L408.1 555.6 L408.5 551.9 L409.6 548.4 L410.7 544.8 L412.0 541.4 L413.5 538.0 L415.6 535.0 L417.6 531.9 L419.9 529.0 L422.2 526.1 L424.4 523.1 L426.5 520.1 L428.4 517.0 L430.0 513.7 L431.4 510.2 L432.5 506.7 L433.4 503.1 L434.1 499.5 L434.8 495.9 L435.4 492.3 L436.0 488.6 L436.6 485.0 L437.2 481.3 L437.9 477.7 L438.5 474.1 L439.1 470.4 L439.7 466.8 L440.4 463.1 L441.0 459.5 L441.6 455.9 L442.2 452.2 L442.8 448.6 L443.2 444.9 L443.5 441.2 L443.7 437.6 L443.8 433.9 L443.7 430.2 L443.6 426.5 L443.4 422.8 L443.1 419.1 L442.9 415.4 L442.4 411.8 L441.7 408.1 L441.1 404.5 L440.2 400.9 L439.3 397.4 L438.3 393.8 L437.2 390.3 L436.1 386.8 L434.9 383.3 L433.4 379.9 L431.8 376.6 L430.2 373.3 L428.4 370.0 L426.7 366.8 L424.8 363.6 L422.8 360.5 L420.7 357.4 L418.7 354.4 L416.6 351.3 L414.4 348.3 L412.3 345.3 L409.7 342.7 L407.1 340.1 L404.5 337.4 L401.9 334.8 L399.1 332.4 L396.3 330.0 L393.5 327.6 L390.7 325.2 L387.9 322.9 L385.0 320.5 L382.2 318.1 L379.4 315.7 L376.6 313.3 L373.8 310.9 L371.0 308.5 L368.2 306.1 L365.2 303.9 L362.2 301.8 L358.9 300.1 L355.6 298.5 L352.2 297.2 L348.6 296.2 L345.0 295.6 L341.3 295.3 L337.6 295.4 L333.9 295.6 L330.2 295.8 L326.6 295.9 L322.9 296.0 L319.2 296.2 L315.5 296.3 L311.8 296.3 L308.2 295.6 L304.7 294.6 L301.3 293.1 L298.0 291.4 L295.0 289.3 L292.2 286.9 L289.4 284.5 L286.5 282.2 L283.7 279.8 L280.8 277.5 L277.9 275.2 L275.1 272.8 L272.2 270.5 L269.4 268.2 L266.5 265.8 L263.6 263.5 L260.8 261.2 L257.9 258.8 L255.1 256.5 L252.2 254.2 L249.3 251.9 L246.4 249.6 L243.6 247.3 L240.7 245.0 L237.9 242.5 L235.5 239.7 L233.1 237.0 L230.6 234.2 L228.1 231.4 L225.8 228.6 L223.8 225.5 L221.8 222.4 L220.0 219.2 L218.5 215.8 L217.0 212.5 L215.4 209.1 L214.1 205.6 L212.9 202.2 L211.6 198.7 L210.3 195.3 L209.1 191.8 L208.0 188.2 L206.9 184.7 L205.8 181.2 L204.7 177.7 L203.6 174.1 L202.5 170.6 L201.4 167.1 L200.3 163.6 L199.2 160.0 L198.1 156.5 L197.0 153.0 L195.9 149.5 L194.9 145.9 L193.8 142.4 L192.7 138.9 L191.7 135.3 L190.6 131.8 L189.6 128.3 L188.6 124.7 L187.5 121.2 L186.5 117.6 L185.4 114.1 L184.4 110.5 L183.7 106.9 L182.9 103.3 L182.1 99.7 L181.6 96.1 L183.6 93.6 L187.0 92.2 L190.4 90.9 L193.8 89.4 L197.2 88.0 L200.6 86.5 L204.0 85.1 L207.4 83.7 L210.8 82.2 L214.2 80.8 L217.6 79.4 L221.0 77.9 L224.4 76.5 L227.8 75.1 L231.3 73.7 L234.7 72.2 L238.1 70.8 L241.5 69.4 L244.9 68.0 L248.3 66.6 L251.7 65.1 L255.1 63.7 L258.6 62.4 L262.2 61.8 L265.9 61.7 L269.5 62.1 L273.0 63.4 L276.2 65.1 L279.3 67.1 L282.2 69.4 L284.5 72.3 L286.5 75.4 L288.3 78.6 L290.1 81.8 L292.0 85.0 L293.8 88.2 L295.6 91.4 L297.4 94.6 L299.3 97.8 L301.1 101.0 L302.9 104.2 L304.8 107.5 L306.6 110.7 L308.5 113.8 L310.5 116.9 L312.6 120.0 L314.6 123.1 L316.6 126.2 L318.6 129.3 L320.6 132.4 L323.1 135.0 L326.7 135.6 L329.9 134.2 L332.3 131.4 L334.7 128.6 L337.1 125.8 L339.5 123.0 L341.9 120.2 L344.3 117.4 L346.7 114.6 L349.1 111.8 L351.6 109.0 L354.1 106.3 L357.3 104.4 L360.7 103.0 L364.2 102.0 L367.9 101.8 L371.6 102.4 L375.1 103.4 L378.5 104.8 L381.5 106.9 L384.2 109.4 L386.9 112.0 L389.5 114.5 L392.2 117.1 L394.8 119.7 L397.4 122.3 L400.1 124.9 L402.7 127.4 L405.4 130.0 L408.0 132.6 L410.6 135.2 L413.3 137.8 L415.9 140.3 L418.6 142.9 L421.2 145.5 L423.8 148.1 L426.5 150.7 L429.1 153.2 L431.7 155.8 L434.4 158.4 L437.0 161.0 L439.7 163.6 L442.3 166.1 L444.9 168.7 L447.6 171.3 L450.2 173.9 L452.9 176.5 L455.5 179.0 L458.1 181.6 L460.8 184.2 L463.4 186.8 L466.1 189.4 L468.7 191.9 L471.3 194.5 L474.0 197.1 L476.6 199.7 L479.3 202.3 L481.9 204.8 L484.5 207.4 L487.2 210.0 Z" fill="none" stroke="#25f4ee" stroke-width="2.6" opacity="0.95"/></svg>