<svg xmlns="http://www.w3.org/2000/svg" width="900" height="720" viewBox="0 0 900 720" font-family="ui-monospace,Menlo,monospace"><rect width="900" height="720" fill="#0a1c33"/><g stroke="#173a5e" stroke-width="1"><line x1="70" y1="50" x2="70" y2="660"/><line x1="110" y1="50" x2="110" y2="660"/><line x1="150" y1="50" x2="150" y2="660"/><line x1="190" y1="50" x2="190" y2="660"/><line x1="230" y1="50" x2="230" y2="660"/><line x1="270" y1="50" x2="270" y2="660"/><line x1="310" y1="50" x2="310" y2="660"/><line x1="350" y1="50" x2="350" y2="660"/><line x1="390" y1="50" x2="390" y2="660"/><line x1="430" y1="50" x2="430" y2="660"/><line x1="470" y1="50" x2="470" y2="660"/><line x1="510" y1="50" x2="510" y2="660"/><line x1="550" y1="50" x2="550" y2="660"/><line x1="590" y1="50" x2="590" y2="660"/><line x1="630" y1="50" x2="630" y2="660"/><line x1="670" y1="50" x2="670" y2="660"/><line x1="710" y1="50" x2="710" y2="660"/><line x1="750" y1="50" x2="750" y2="660"/><line x1="790" y1="50" x2="790" y2="660"/><line x1="830" y1="50" x2="830" y2="660"/><line x1="50" y1="50" x2="830" y2="50"/><line x1="50" y1="90" x2="830" y2="90"/><line x1="50" y1="130" x2="830" y2="130"/><line x1="50" y1="170" x2="830" y2="170"/><line x1="50" y1="210" x2="830" y2="210"/><line x1="50" y1="250" x2="830" y2="250"/><line x1="50" y1="290" x2="830" y2="290"/><line x1="50" y1="330" x2="830" y2="330"/><line x1="50" y1="370" x2="830" y2="370"/><line x1="50" y1="410" x2="830" y2="410"/><line x1="50" y1="450" x2="830" y2="450"/><line x1="50" y1="490" x2="830" y2="490"/><line x1="50" y1="530" x2="830" y2="530"/><line x1="50" y1="570" x2="830" y2="570"/><line x1="50" y1="610" x2="830" y2="610"/><line x1="50" y1="650" x2="830" y2="650"/></g><path d="M614.4 198.7 L614.2 201.4 L613.9 204.0 L613.7 206.7 L613.4 209.3 L613.1 212.0 L612.9 214.7 L612.6 217.3 L612.4 220.0 L612.1 222.6 L611.9 225.3 L611.6 227.9 L611.3 230.6 L611.1 233.3 L610.8 235.9 L610.6 238.6 L610.3 241.2 L610.0 243.9 L609.8 246.6 L609.5 249.2 L609.3 251.8 L609.0 254.5 L608.7 257.2 L608.5 259.8 L608.2 262.5 L607.9 265.1 L607.7 267.8 L607.4 270.5 L607.1 273.1 L606.9 275.8 L606.6 278.4 L606.4 281.1 L606.1 283.7 L605.8 286.4 L605.5 289.1 L605.3 291.7 L605.0 294.4 L604.8 297.0 L604.5 299.7 L604.2 302.3 L604.0 305.0 L603.8 307.7 L603.5 310.3 L603.3 313.0 L603.1 315.6 L602.8 318.3 L602.6 321.0 L602.4 323.6 L602.2 326.3 L601.9 329.0 L601.7 331.6 L601.5 334.3 L601.3 337.0 L601.1 339.6 L600.9 342.3 L600.7 344.9 L600.4 347.6 L600.2 350.3 L600.0 352.9 L599.8 355.6 L599.6 358.2 L599.4 360.9 L599.1 363.6 L598.9 366.2 L598.7 368.9 L598.5 371.5 L598.3 374.2 L598.0 376.9 L597.8 379.5 L597.6 382.2 L597.4 384.9 L597.1 387.5 L596.9 390.2 L596.7 392.8 L596.5 395.5 L596.3 398.2 L596.0 400.8 L595.8 403.5 L595.6 406.1 L595.4 408.8 L595.1 411.5 L594.9 414.1 L594.7 416.8 L594.5 419.4 L594.2 422.1 L594.0 424.7 L593.8 427.4 L593.6 430.1 L593.3 432.7 L593.1 435.4 L592.9 438.1 L592.7 440.7 L592.5 443.3 L592.1 445.4 L590.7 446.1 L588.3 445.6 L585.3 445.4 L582.3 446.9 L580.5 449.6 L580.5 452.7 L581.2 455.4 L581.9 458.0 L582.6 460.6 L583.3 463.2 L584.1 465.8 L584.8 468.4 L585.5 470.9 L586.1 473.5 L586.7 476.1 L587.2 478.6 L587.7 481.2 L588.1 483.8 L588.4 486.5 L588.6 489.1 L588.7 491.7 L588.7 494.3 L588.6 497.0 L588.5 499.6 L588.3 502.3 L588.1 504.9 L587.8 507.6 L587.6 510.3 L587.4 512.9 L587.2 515.6 L587.0 518.2 L586.8 520.9 L586.7 523.6 L586.5 526.2 L586.3 528.9 L586.0 531.5 L585.6 534.1 L585.3 536.8 L584.8 539.3 L584.3 541.9 L583.6 544.4 L582.8 546.9 L582.0 549.4 L581.0 551.8 L579.9 554.2 L578.7 556.6 L577.5 559.0 L576.3 561.3 L575.0 563.6 L573.7 565.9 L572.3 568.1 L570.7 570.1 L568.9 572.1 L567.2 574.1 L565.5 576.1 L563.6 577.9 L561.7 579.8 L559.7 581.5 L557.7 583.2 L555.6 584.8 L553.5 586.4 L551.3 587.9 L549.1 589.3 L546.9 590.8 L544.7 592.2 L542.3 593.4 L540.0 594.6 L537.6 595.7 L535.2 596.9 L532.8 597.9 L530.3 598.8 L527.8 599.5 L525.3 600.3 L522.7 601.0 L520.1 601.7 L517.6 602.3 L515.0 603.0 L512.4 603.5 L509.8 604.0 L507.2 604.4 L504.6 604.8 L502.0 605.3 L499.3 605.7 L496.7 606.0 L494.1 606.3 L491.4 606.5 L488.8 606.7 L486.1 606.9 L483.4 607.1 L480.8 607.3 L478.1 607.5 L475.4 607.7 L472.8 607.9 L470.1 608.1 L467.5 608.3 L464.8 608.5 L462.1 608.7 L459.5 608.9 L456.8 609.1 L454.1 609.3 L451.5 609.6 L448.8 609.9 L446.2 610.1 L443.5 610.3 L440.9 610.5 L438.2 610.8 L435.6 610.9 L432.9 611.1 L430.2 611.2 L427.6 611.3 L424.9 611.3 L422.2 611.3 L419.5 611.4 L416.9 611.4 L414.2 611.4 L411.6 611.5 L408.9 611.7 L406.2 611.9 L403.5 612.2 L400.8 612.4 L397.9 612.9 L395.3 614.3 L393.7 616.9 L392.8 619.8 L392.1 622.2 L391.1 624.1 L389.3 625.0 L386.8 625.2 L384.1 625.6 L381.4 626.1 L378.7 626.7 L376.1 627.3 L373.5 628.0 L371.0 628.8 L368.4 629.7 L365.9 630.5 L363.3 631.4 L360.8 632.2 L358.3 633.1 L355.7 634.0 L353.2 634.9 L350.7 635.7 L348.2 636.6 L345.7 637.5 L343.1 638.3 L340.6 639.1 L338.1 640.0 L335.5 640.8 L333.0 641.6 L330.5 642.5 L327.9 643.3 L325.4 644.2 L322.8 645.0 L320.3 645.8 L317.8 646.6 L315.3 647.4 L312.8 648.2 L310.3 648.7 L307.8 648.9 L305.2 648.7 L302.8 648.2 L300.5 647.3 L298.3 646.1 L296.2 644.6 L294.4 642.9 L292.8 640.9 L291.5 638.8 L290.5 636.6 L289.9 634.1 L289.5 631.5 L289.2 628.9 L288.9 626.2 L288.6 623.6 L288.4 620.9 L288.1 618.3 L287.9 615.6 L287.7 613.0 L287.5 610.3 L287.2 607.6 L287.0 605.0 L286.7 602.3 L286.5 599.7 L286.2 597.0 L286.0 594.4 L285.7 591.7 L285.4 589.0 L285.2 586.4 L285.0 583.7 L284.7 581.1 L284.5 578.4 L284.2 575.7 L284.0 573.1 L283.7 570.4 L283.7 568.0 L284.2 565.7 L285.2 563.5 L286.9 561.8 L288.9 560.4 L291.2 559.2 L293.6 557.9 L295.9 556.6 L298.2 555.3 L300.5 554.0 L302.9 552.7 L305.2 551.4 L307.6 550.1 L309.9 548.8 L312.2 547.5 L314.6 546.2 L316.9 544.9 L319.2 543.6 L321.6 542.3 L323.9 541.0 L326.2 539.7 L328.6 538.4 L330.9 537.1 L333.2 535.8 L335.6 534.5 L337.9 533.2 L340.2 531.9 L342.5 530.6 L344.9 529.3 L347.2 528.0 L349.5 526.7 L351.9 525.4 L354.2 524.2 L356.6 522.8 L358.9 521.5 L361.2 520.2 L363.6 518.9 L365.9 517.6 L368.2 516.1 L370.4 514.7 L372.7 513.2 L374.9 511.7 L377.0 510.1 L379.3 508.5 L381.5 507.0 L383.6 505.3 L385.7 503.7 L387.8 502.0 L389.8 500.2 L391.7 498.4 L393.7 496.6 L395.7 494.7 L397.6 493.0 L399.7 491.2 L401.7 489.4 L403.7 487.7 L405.7 485.9 L407.7 484.1 L409.7 482.4 L411.7 480.6 L413.7 478.9 L415.7 477.1 L417.7 475.4 L419.7 473.6 L421.7 471.8 L423.7 470.1 L425.8 468.3 L427.8 466.6 L429.8 464.8 L431.8 463.0 L433.8 461.3 L435.8 459.5 L437.8 457.8 L439.8 456.0 L441.8 454.3 L443.8 452.5 L445.8 450.7 L447.8 449.0 L449.9 447.2 L451.9 445.5 L453.9 443.7 L455.9 441.9 L457.9 440.2 L459.9 438.4 L461.9 436.7 L463.9 434.9 L466.0 433.2 L468.0 431.4 L470.0 429.6 L472.0 427.9 L474.0 426.1 L476.0 424.4 L478.0 422.6 L480.0 420.8 L482.0 419.1 L484.0 417.3 L486.0 415.6 L488.0 413.8 L490.1 412.0 L492.1 410.3 L494.1 408.5 L496.1 406.8 L498.1 405.0 L500.1 403.3 L502.1 401.5 L504.1 399.7 L506.1 398.0 L508.2 396.1 L510.2 394.1 L511.5 391.3 L511.7 388.3 L511.3 385.5 L511.0 382.9 L510.7 380.3 L510.5 377.7 L510.5 375.1 L510.7 372.5 L511.1 370.0 L511.9 367.6 L512.7 365.2 L513.8 362.8 L515.1 360.6 L516.6 358.5 L518.3 356.6 L520.1 354.9 L522.1 353.3 L524.5 351.8 L526.7 349.9 L528.3 347.4 L529.2 344.7 L529.9 342.0 L530.4 339.3 L530.8 336.6 L531.1 334.0 L531.4 331.3 L531.7 328.6 L532.0 326.0 L532.3 323.3 L532.6 320.7 L532.9 318.0 L533.2 315.4 L533.5 312.7 L533.8 310.1 L534.1 307.4 L534.4 304.8 L534.7 302.1 L535.0 299.5 L535.3 296.8 L535.6 294.1 L535.9 291.5 L536.2 288.8 L536.5 286.2 L536.7 283.5 L537.0 280.9 L537.3 278.2 L537.6 275.6 L537.8 272.9 L538.1 270.2 L538.4 267.6 L538.7 264.9 L538.9 262.3 L539.2 259.6 L539.4 256.9 L539.7 254.3 L540.0 251.6 L540.2 249.0 L540.5 246.3 L540.7 243.6 L541.0 241.0 L541.2 238.3 L541.5 235.7 L541.8 233.0 L542.0 230.4 L542.3 227.7 L542.6 225.1 L542.8 222.4 L543.1 219.7 L543.4 217.1 L543.6 214.4 L543.9 211.8 L544.2 209.1 L544.4 206.5 L544.7 203.8 L545.0 201.1 L545.2 198.5 L545.5 195.8 L545.8 193.2 L546.1 190.5 L546.3 187.9 L546.6 185.2 L546.8 182.6 L547.1 179.9 L547.4 177.2 L547.6 174.6 L547.9 171.9 L548.2 169.3 L548.4 166.6 L548.7 164.0 L549.0 161.3 L549.2 158.6 L549.5 156.0 L549.7 153.3 L550.0 150.7 L550.3 148.0 L550.5 145.3 L550.8 142.7 L551.1 140.1 L551.3 137.4 L551.6 134.7 L551.8 132.1 L552.1 129.4 L552.4 126.7 L552.6 124.1 L552.9 121.4 L553.2 118.8 L553.4 116.1 L553.7 113.5 L554.0 110.8 L554.2 108.2 L554.5 105.5 L554.8 102.8 L555.0 100.2 L555.3 97.5 L555.6 94.9 L555.9 92.2 L556.2 89.6 L556.6 87.1 L557.4 84.7 L558.4 82.5 L559.8 80.4 L561.4 78.5 L563.1 76.7 L565.1 75.1 L567.3 73.9 L569.6 72.9 L572.0 72.1 L574.4 71.5 L576.9 71.3 L579.4 71.5 L581.8 72.1 L584.2 72.9 L586.6 73.8 L589.0 74.9 L591.3 76.1 L593.4 77.5 L595.5 79.0 L597.5 80.7 L599.3 82.5 L601.1 84.4 L602.8 86.3 L604.4 88.4 L605.8 90.6 L607.2 92.8 L608.4 95.1 L609.5 97.5 L610.4 99.9 L611.3 102.4 L612.1 104.9 L612.8 107.4 L613.5 109.9 L614.0 112.5 L614.5 115.1 L614.8 117.7 L615.1 120.3 L615.3 122.9 L615.5 125.6 L615.6 128.2 L615.6 130.9 L615.7 133.5 L615.7 136.2 L615.7 138.8 L615.7 141.5 L615.7 144.2 L615.7 146.9 L615.7 149.5 L615.7 152.2 L615.7 154.9 L615.8 157.6 L615.8 160.2 L615.9 162.9 L616.0 165.6 L616.0 168.2 L616.0 170.9 L616.0 173.5 L616.0 176.2 L615.9 178.8 L615.8 181.5 L615.7 184.2 L615.5 186.8 L615.3 189.5 L615.1 192.1 L614.8 194.7 L614.6 197.4  L617.7 197.7 L617.9 195.0 L618.1 192.3 L618.3 189.7 L618.5 187.0 L618.7 184.3 L618.8 181.6 L618.8 178.9 L618.9 176.2 L618.9 173.6 L619.0 170.9 L619.0 168.2 L619.0 165.5 L619.0 162.9 L618.9 160.2 L618.8 157.5 L618.8 154.8 L618.7 152.2 L618.7 149.5 L618.6 146.8 L618.6 144.2 L618.6 141.5 L618.6 138.8 L618.5 136.2 L618.5 133.5 L618.4 130.8 L618.4 128.1 L618.2 125.4 L618.1 122.7 L617.9 120.0 L617.6 117.3 L617.2 114.6 L616.7 112.0 L616.1 109.3 L615.5 106.7 L614.8 104.1 L613.9 101.5 L613.0 98.9 L612.0 96.4 L610.8 93.9 L609.5 91.5 L608.2 89.1 L606.7 86.8 L605.0 84.6 L603.2 82.5 L601.3 80.5 L599.3 78.6 L597.3 76.8 L595.1 75.2 L592.7 73.7 L590.3 72.4 L587.8 71.2 L585.2 70.1 L582.5 69.3 L579.8 68.8 L577.0 68.5 L574.1 68.7 L571.3 69.4 L568.6 70.3 L566.0 71.4 L563.6 72.8 L561.3 74.5 L559.3 76.5 L557.6 78.8 L556.0 81.2 L554.9 83.8 L554.1 86.5 L553.7 89.3 L553.4 91.9 L553.1 94.6 L552.8 97.3 L552.5 99.9 L552.3 102.6 L552.0 105.3 L551.7 107.9 L551.5 110.6 L551.2 113.2 L550.9 115.9 L550.7 118.5 L550.4 121.2 L550.2 123.9 L549.9 126.5 L549.6 129.2 L549.3 131.8 L549.1 134.5 L548.8 137.1 L548.6 139.8 L548.3 142.4 L548.0 145.1 L547.8 147.8 L547.5 150.4 L547.2 153.1 L547.0 155.7 L546.7 158.4 L546.5 161.0 L546.2 163.7 L545.9 166.4 L545.7 169.0 L545.4 171.7 L545.2 174.3 L544.9 177.0 L544.6 179.6 L544.4 182.3 L544.1 185.0 L543.8 187.6 L543.6 190.3 L543.3 192.9 L543.0 195.6 L542.8 198.3 L542.5 200.9 L542.2 203.5 L541.9 206.2 L541.7 208.9 L541.4 211.5 L541.1 214.2 L540.9 216.8 L540.6 219.5 L540.3 222.2 L540.1 224.8 L539.8 227.5 L539.5 230.1 L539.3 232.8 L539.0 235.4 L538.7 238.1 L538.5 240.8 L538.2 243.4 L538.0 246.1 L537.7 248.7 L537.4 251.4 L537.2 254.0 L536.9 256.7 L536.7 259.4 L536.4 262.0 L536.1 264.7 L535.9 267.3 L535.6 270.0 L535.4 272.6 L535.1 275.3 L534.8 277.9 L534.5 280.6 L534.2 283.2 L533.9 285.9 L533.6 288.6 L533.3 291.2 L533.0 293.8 L532.7 296.5 L532.4 299.2 L532.1 301.8 L531.7 304.5 L531.4 307.1 L531.0 309.7 L530.7 312.4 L530.4 315.1 L530.1 317.7 L529.7 320.4 L529.4 323.0 L529.1 325.6 L528.8 328.3 L528.5 330.9 L528.1 333.6 L527.7 336.2 L527.4 338.9 L527.0 341.5 L526.6 344.1 L526.1 346.3 L524.8 348.2 L522.9 349.7 L520.6 351.3 L518.5 353.0 L516.5 354.9 L514.7 357.1 L513.1 359.3 L511.7 361.7 L510.5 364.2 L509.6 366.8 L508.9 369.5 L508.4 372.3 L508.2 375.0 L508.1 377.8 L508.4 380.5 L508.7 383.2 L509.1 385.8 L509.4 388.4 L509.3 390.7 L508.3 392.7 L506.6 394.5 L504.6 396.2 L502.6 398.0 L500.6 399.8 L498.6 401.6 L496.6 403.3 L494.6 405.1 L492.6 406.8 L490.6 408.6 L488.6 410.3 L486.6 412.1 L484.6 413.9 L482.5 415.6 L480.5 417.4 L478.5 419.2 L476.5 420.9 L474.5 422.7 L472.5 424.4 L470.5 426.2 L468.5 428.0 L466.5 429.8 L464.5 431.5 L462.5 433.3 L460.5 435.0 L458.5 436.8 L456.5 438.6 L454.5 440.3 L452.5 442.1 L450.5 443.8 L448.5 445.6 L446.4 447.4 L444.4 449.1 L442.4 450.9 L440.4 452.7 L438.4 454.4 L436.4 456.2 L434.4 457.9 L432.4 459.7 L430.4 461.5 L428.4 463.2 L426.4 465.0 L424.4 466.8 L422.4 468.5 L420.4 470.3 L418.4 472.1 L416.4 473.8 L414.4 475.6 L412.4 477.3 L410.4 479.1 L408.3 480.8 L406.3 482.6 L404.3 484.4 L402.3 486.1 L400.3 487.9 L398.3 489.7 L396.3 491.5 L394.3 493.2 L392.3 495.0 L390.3 496.8 L388.4 498.6 L386.3 500.3 L384.3 502.0 L382.2 503.6 L380.1 505.3 L378.0 506.8 L375.9 508.4 L373.7 509.9 L371.4 511.3 L369.2 512.7 L366.9 514.1 L364.6 515.4 L362.3 516.8 L360.0 518.1 L357.7 519.4 L355.4 520.7 L353.0 522.0 L350.7 523.3 L348.4 524.6 L346.1 525.9 L343.7 527.2 L341.4 528.5 L339.1 529.8 L336.7 531.1 L334.4 532.4 L332.1 533.8 L329.7 535.1 L327.4 536.4 L325.1 537.7 L322.8 539.0 L320.4 540.3 L318.1 541.6 L315.8 542.9 L313.4 544.2 L311.1 545.5 L308.8 546.8 L306.5 548.1 L304.1 549.4 L301.8 550.7 L299.5 552.1 L297.1 553.4 L294.8 554.7 L292.5 556.0 L290.2 557.3 L287.8 558.6 L285.4 560.1 L283.3 562.2 L282.0 564.9 L281.4 567.7 L281.4 570.6 L281.7 573.3 L281.9 576.0 L282.2 578.6 L282.4 581.3 L282.6 583.9 L282.9 586.6 L283.1 589.3 L283.4 591.9 L283.6 594.6 L283.9 597.2 L284.1 599.9 L284.4 602.5 L284.7 605.2 L284.9 607.8 L285.1 610.5 L285.4 613.2 L285.6 615.8 L285.8 618.5 L286.0 621.2 L286.3 623.8 L286.6 626.5 L286.9 629.2 L287.2 631.8 L287.6 634.5 L288.3 637.2 L289.4 639.8 L290.9 642.3 L292.6 644.6 L294.7 646.5 L297.0 648.1 L299.5 649.4 L302.1 650.5 L304.9 651.0 L307.8 651.2 L310.6 651.0 L313.3 650.6 L316.0 649.9 L318.6 649.1 L321.1 648.3 L323.6 647.4 L326.2 646.5 L328.7 645.7 L331.2 644.8 L333.8 644.0 L336.3 643.1 L338.8 642.3 L341.4 641.4 L343.9 640.6 L346.4 639.7 L349.0 638.8 L351.5 638.0 L354.0 637.1 L356.5 636.2 L359.1 635.3 L361.6 634.4 L364.1 633.6 L366.6 632.7 L369.1 631.9 L371.7 631.1 L374.2 630.3 L376.8 629.6 L379.3 629.0 L381.9 628.4 L384.5 627.9 L387.0 627.4 L389.9 627.1 L392.7 625.7 L394.2 623.1 L394.9 620.4 L395.7 617.8 L396.7 615.9 L398.5 615.0 L401.0 614.8 L403.7 614.8 L406.4 614.7 L409.0 614.8 L411.7 614.8 L414.4 614.7 L417.0 614.5 L419.7 614.4 L422.3 614.2 L425.0 614.0 L427.7 613.9 L430.4 613.7 L433.0 613.5 L435.7 613.3 L438.4 613.1 L441.0 612.9 L443.7 612.7 L446.4 612.4 L449.0 612.2 L451.7 612.0 L454.3 611.7 L457.0 611.5 L459.7 611.3 L462.3 611.0 L465.0 610.8 L467.6 610.6 L470.3 610.4 L473.0 610.2 L475.6 610.0 L478.3 609.8 L480.9 609.7 L483.6 609.4 L486.3 609.2 L488.9 609.0 L491.6 608.8 L494.3 608.6 L497.0 608.3 L499.6 608.0 L502.3 607.7 L504.9 607.3 L507.6 606.9 L510.3 606.4 L512.9 605.8 L515.5 605.2 L518.1 604.6 L520.7 603.9 L523.3 603.2 L525.9 602.5 L528.5 601.7 L531.1 600.9 L533.6 600.0 L536.1 599.0 L538.6 597.8 L541.0 596.7 L543.4 595.5 L545.8 594.2 L548.2 592.8 L550.4 591.3 L552.6 589.8 L554.9 588.3 L557.1 586.7 L559.2 585.1 L561.3 583.3 L563.3 581.5 L565.3 579.6 L567.2 577.7 L569.0 575.7 L570.8 573.7 L572.6 571.6 L574.2 569.5 L575.7 567.2 L577.1 564.8 L578.4 562.5 L579.6 560.0 L580.8 557.6 L582.0 555.2 L583.1 552.8 L584.2 550.2 L585.1 547.7 L585.8 545.0 L586.5 542.4 L587.1 539.8 L587.6 537.1 L588.0 534.5 L588.3 531.8 L588.6 529.1 L588.8 526.4 L589.0 523.7 L589.2 521.1 L589.4 518.4 L589.5 515.8 L589.8 513.1 L590.0 510.4 L590.2 507.8 L590.4 505.1 L590.6 502.4 L590.9 499.8 L591.0 497.1 L591.1 494.4 L591.0 491.7 L590.9 489.0 L590.7 486.3 L590.4 483.5 L590.0 480.9 L589.5 478.2 L589.0 475.6 L588.4 472.9 L587.7 470.3 L587.0 467.7 L586.3 465.2 L585.6 462.6 L584.9 460.0 L584.2 457.5 L583.5 454.9 L582.8 452.4 L582.9 450.3 L583.9 448.7 L585.7 447.6 L588.0 447.9 L591.1 448.3 L594.0 446.8 L594.7 443.7 L595.0 440.9 L595.2 438.2 L595.4 435.6 L595.7 432.9 L595.9 430.3 L596.1 427.6 L596.4 424.9 L596.6 422.3 L596.8 419.6 L597.0 417.0 L597.3 414.3 L597.5 411.7 L597.8 409.0 L598.0 406.3 L598.2 403.7 L598.5 401.0 L598.7 398.4 L598.9 395.7 L599.2 393.0 L599.4 390.4 L599.6 387.7 L599.9 385.1 L600.1 382.4 L600.3 379.7 L600.6 377.1 L600.8 374.4 L601.0 371.7 L601.3 369.1 L601.5 366.4 L601.7 363.8 L601.9 361.1 L602.2 358.4 L602.4 355.8 L602.6 353.1 L602.9 350.5 L603.1 347.8 L603.3 345.1 L603.6 342.5 L603.8 339.8 L604.0 337.2 L604.3 334.5 L604.5 331.9 L604.7 329.2 L605.0 326.5 L605.2 323.9 L605.4 321.2 L605.7 318.6 L605.9 315.9 L606.2 313.3 L606.4 310.6 L606.7 308.0 L607.0 305.3 L607.2 302.6 L607.5 300.0 L607.7 297.3 L608.0 294.7 L608.3 292.0 L608.5 289.3 L608.8 286.7 L609.1 284.0 L609.3 281.4 L609.6 278.7 L609.9 276.1 L610.1 273.4 L610.4 270.8 L610.7 268.1 L610.9 265.4 L611.2 262.8 L611.5 260.1 L611.8 257.5 L612.0 254.8 L612.3 252.1 L612.6 249.5 L612.8 246.8 L613.1 244.2 L613.3 241.5 L613.6 238.9 L613.9 236.2 L614.2 233.5 L614.4 230.9 L614.7 228.2 L614.9 225.6 L615.2 222.9 L615.4 220.3 L615.7 217.6 L616.0 215.0 L616.2 212.3 L616.5 209.6 L616.8 207.0 L617.0 204.3 L617.3 201.7 L617.5 199.0 Z" fill="#ffb14d" fill-opacity="0.16" stroke="#ffb14d" stroke-width="1.2" stroke-opacity="0.6"/><path d="M616.0 198.9 L615.7 201.5 L615.5 204.2 L615.2 206.8 L614.9 209.5 L614.7 212.1 L614.4 214.8 L614.1 217.5 L613.9 220.1 L613.6 222.8 L613.4 225.4 L613.1 228.1 L612.8 230.8 L612.6 233.4 L612.3 236.1 L612.1 238.7 L611.8 241.4 L611.5 244.0 L611.3 246.7 L611.0 249.3 L610.8 252.0 L610.5 254.7 L610.2 257.3 L610.0 260.0 L609.7 262.6 L609.4 265.3 L609.1 267.9 L608.9 270.6 L608.6 273.3 L608.3 275.9 L608.1 278.6 L607.8 281.2 L607.5 283.9 L607.3 286.5 L607.0 289.2 L606.8 291.8 L606.5 294.5 L606.3 297.2 L606.0 299.8 L605.8 302.5 L605.5 305.1 L605.3 307.8 L605.0 310.5 L604.8 313.1 L604.5 315.8 L604.3 318.4 L604.0 321.1 L603.8 323.8 L603.6 326.4 L603.4 329.1 L603.1 331.8 L602.9 334.4 L602.7 337.1 L602.4 339.7 L602.2 342.4 L602.0 345.0 L601.8 347.7 L601.5 350.4 L601.3 353.0 L601.1 355.7 L600.9 358.3 L600.6 361.0 L600.4 363.7 L600.2 366.3 L600.0 369.0 L599.7 371.6 L599.5 374.3 L599.3 377.0 L599.1 379.6 L598.8 382.3 L598.6 385.0 L598.4 387.6 L598.2 390.3 L597.9 392.9 L597.7 395.6 L597.5 398.3 L597.3 400.9 L597.0 403.6 L596.8 406.2 L596.6 408.9 L596.3 411.6 L596.1 414.2 L595.9 416.9 L595.7 419.5 L595.4 422.2 L595.2 424.8 L595.0 427.5 L594.8 430.2 L594.5 432.8 L594.3 435.5 L594.1 438.1 L593.9 440.8 L593.6 443.5 L593.0 446.1 L590.9 447.2 L588.2 446.9 L585.5 446.6 L583.1 447.8 L581.7 450.0 L581.8 452.5 L582.4 455.1 L583.1 457.8 L583.7 460.3 L584.4 462.9 L585.2 465.5 L585.9 468.1 L586.6 470.6 L587.2 473.2 L587.8 475.8 L588.3 478.4 L588.8 481.0 L589.2 483.7 L589.5 486.4 L589.7 489.0 L589.8 491.7 L589.8 494.3 L589.7 497.0 L589.6 499.7 L589.4 502.3 L589.2 505.0 L589.0 507.7 L588.7 510.3 L588.5 513.0 L588.3 515.7 L588.2 518.3 L588.0 521.0 L587.8 523.7 L587.6 526.3 L587.4 529.0 L587.1 531.6 L586.7 534.3 L586.4 536.9 L585.9 539.5 L585.3 542.2 L584.7 544.7 L583.9 547.3 L583.0 549.8 L582.0 552.3 L580.9 554.7 L579.7 557.1 L578.5 559.5 L577.3 561.9 L576.0 564.2 L574.7 566.5 L573.2 568.7 L571.6 570.9 L569.9 572.9 L568.1 574.9 L566.3 576.9 L564.4 578.8 L562.5 580.6 L560.5 582.4 L558.4 584.1 L556.3 585.7 L554.2 587.3 L552.0 588.9 L549.8 590.3 L547.5 591.8 L545.2 593.1 L542.9 594.4 L540.5 595.6 L538.1 596.8 L535.7 597.9 L533.2 598.8 L530.7 599.8 L528.1 600.6 L525.6 601.4 L523.0 602.1 L520.4 602.8 L517.8 603.4 L515.3 604.1 L512.6 604.6 L510.0 605.2 L507.4 605.7 L504.8 606.1 L502.1 606.4 L499.5 606.8 L496.8 607.1 L494.2 607.3 L491.5 607.6 L488.8 607.8 L486.2 608.0 L483.5 608.2 L480.9 608.4 L478.2 608.6 L475.5 608.8 L472.9 609.1 L470.2 609.2 L467.5 609.5 L464.9 609.7 L462.2 609.9 L459.6 610.1 L456.9 610.3 L454.2 610.5 L451.6 610.8 L448.9 611.0 L446.3 611.2 L443.6 611.5 L440.9 611.7 L438.3 611.9 L435.6 612.0 L433.0 612.2 L430.3 612.4 L427.6 612.5 L424.9 612.6 L422.3 612.7 L419.6 612.8 L417.0 613.0 L414.3 613.1 L411.6 613.2 L409.0 613.3 L406.3 613.4 L403.6 613.5 L400.9 613.7 L398.2 614.0 L396.1 615.1 L394.7 617.3 L393.9 620.1 L393.2 622.6 L391.9 624.9 L389.6 626.0 L386.9 626.4 L384.3 626.7 L381.6 627.2 L379.0 627.9 L376.5 628.5 L373.9 629.2 L371.3 630.0 L368.8 630.8 L366.3 631.6 L363.7 632.5 L361.2 633.4 L358.7 634.2 L356.1 635.1 L353.6 636.0 L351.1 636.9 L348.6 637.7 L346.0 638.6 L343.5 639.4 L341.0 640.3 L338.5 641.1 L335.9 641.9 L333.4 642.8 L330.8 643.6 L328.3 644.4 L325.8 645.3 L323.2 646.1 L320.7 647.0 L318.1 647.8 L315.6 648.6 L313.0 649.3 L310.4 649.8 L307.8 650.0 L305.1 649.8 L302.5 649.3 L300.0 648.3 L297.7 647.1 L295.5 645.5 L293.5 643.7 L291.8 641.6 L290.4 639.3 L289.4 636.9 L288.8 634.3 L288.4 631.6 L288.1 629.0 L287.8 626.4 L287.5 623.7 L287.3 621.0 L287.0 618.4 L286.8 615.7 L286.5 613.1 L286.3 610.4 L286.1 607.7 L285.9 605.1 L285.6 602.4 L285.3 599.8 L285.1 597.1 L284.8 594.5 L284.5 591.8 L284.3 589.1 L284.0 586.5 L283.8 583.8 L283.6 581.2 L283.3 578.5 L283.1 575.8 L282.8 573.2 L282.6 570.5 L282.5 567.9 L283.1 565.3 L284.3 562.9 L286.1 561.0 L288.3 559.5 L290.7 558.2 L293.0 556.9 L295.4 555.6 L297.7 554.3 L300.0 553.0 L302.3 551.7 L304.7 550.4 L307.0 549.1 L309.3 547.7 L311.7 546.5 L314.0 545.2 L316.3 543.8 L318.6 542.6 L321.0 541.3 L323.3 539.9 L325.6 538.6 L328.0 537.3 L330.3 536.0 L332.6 534.7 L335.0 533.4 L337.3 532.1 L339.6 530.8 L341.9 529.5 L344.2 528.2 L346.6 526.9 L348.9 525.6 L351.3 524.3 L353.6 523.0 L355.9 521.7 L358.3 520.4 L360.6 519.1 L362.9 517.7 L365.2 516.4 L367.5 515.0 L369.8 513.6 L372.0 512.2 L374.2 510.7 L376.4 509.2 L378.6 507.7 L380.8 506.1 L382.9 504.4 L384.9 502.8 L387.0 501.1 L389.0 499.3 L391.0 497.6 L393.0 495.8 L395.0 494.0 L397.0 492.2 L399.0 490.4 L401.0 488.7 L403.0 486.9 L405.0 485.2 L407.0 483.4 L409.0 481.6 L411.1 479.9 L413.1 478.1 L415.1 476.4 L417.1 474.6 L419.1 472.8 L421.1 471.1 L423.1 469.3 L425.1 467.6 L427.1 465.8 L429.1 464.0 L431.1 462.3 L433.1 460.5 L435.1 458.7 L437.1 457.0 L439.1 455.2 L441.1 453.5 L443.1 451.7 L445.1 449.9 L447.1 448.2 L449.2 446.4 L451.2 444.6 L453.2 442.9 L455.2 441.1 L457.2 439.4 L459.2 437.6 L461.2 435.8 L463.2 434.1 L465.2 432.3 L467.2 430.6 L469.2 428.8 L471.2 427.0 L473.2 425.3 L475.2 423.5 L477.2 421.7 L479.2 420.0 L481.3 418.2 L483.3 416.5 L485.3 414.7 L487.3 412.9 L489.3 411.2 L491.3 409.4 L493.3 407.6 L495.3 405.9 L497.3 404.1 L499.3 402.4 L501.3 400.6 L503.3 398.9 L505.3 397.1 L507.3 395.3 L509.2 393.4 L510.3 391.0 L510.5 388.4 L510.2 385.7 L509.9 383.1 L509.6 380.4 L509.4 377.7 L509.4 375.1 L509.6 372.4 L510.0 369.8 L510.7 367.2 L511.6 364.7 L512.8 362.3 L514.1 360.0 L515.7 357.8 L517.4 355.8 L519.3 354.0 L521.4 352.3 L523.7 350.7 L525.7 349.0 L527.2 346.9 L527.9 344.4 L528.4 341.7 L528.8 339.1 L529.1 336.4 L529.5 333.8 L529.8 331.1 L530.2 328.4 L530.5 325.8 L530.8 323.2 L531.1 320.5 L531.4 317.9 L531.7 315.2 L532.0 312.5 L532.3 309.9 L532.6 307.3 L533.0 304.6 L533.3 301.9 L533.6 299.3 L533.9 296.7 L534.2 294.0 L534.5 291.3 L534.8 288.7 L535.1 286.0 L535.4 283.4 L535.7 280.7 L536.0 278.1 L536.3 275.4 L536.5 272.7 L536.8 270.1 L537.1 267.4 L537.3 264.8 L537.6 262.1 L537.9 259.5 L538.1 256.8 L538.4 254.2 L538.7 251.5 L538.9 248.8 L539.2 246.2 L539.4 243.5 L539.7 240.9 L540.0 238.2 L540.2 235.6 L540.5 232.9 L540.8 230.2 L541.0 227.6 L541.3 224.9 L541.6 222.3 L541.8 219.6 L542.1 217.0 L542.4 214.3 L542.6 211.7 L542.9 209.0 L543.2 206.3 L543.5 203.7 L543.7 201.0 L544.0 198.4 L544.3 195.7 L544.5 193.1 L544.8 190.4 L545.1 187.7 L545.3 185.1 L545.6 182.4 L545.9 179.8 L546.1 177.1 L546.4 174.5 L546.7 171.8 L546.9 169.2 L547.2 166.5 L547.5 163.8 L547.7 161.2 L548.0 158.5 L548.2 155.9 L548.5 153.2 L548.8 150.5 L549.0 147.9 L549.3 145.2 L549.6 142.6 L549.8 139.9 L550.1 137.3 L550.4 134.6 L550.7 131.9 L550.9 129.3 L551.2 126.6 L551.5 124.0 L551.7 121.3 L552.0 118.7 L552.2 116.0 L552.5 113.4 L552.8 110.7 L553.0 108.0 L553.3 105.4 L553.6 102.7 L553.8 100.1 L554.1 97.4 L554.4 94.8 L554.7 92.1 L555.0 89.4 L555.4 86.8 L556.1 84.3 L557.2 81.8 L558.7 79.6 L560.4 77.5 L562.3 75.7 L564.4 74.1 L566.7 72.7 L569.1 71.6 L571.6 70.7 L574.3 70.1 L576.9 70.0 L579.6 70.2 L582.2 70.7 L584.7 71.5 L587.2 72.5 L589.6 73.6 L592.0 74.9 L594.2 76.4 L596.4 78.0 L598.4 79.7 L600.3 81.5 L602.2 83.5 L603.9 85.5 L605.4 87.7 L606.9 89.9 L608.3 92.2 L609.5 94.5 L610.7 97.0 L611.7 99.4 L612.6 101.9 L613.5 104.5 L614.1 107.0 L614.8 109.6 L615.3 112.2 L615.7 114.9 L616.1 117.5 L616.4 120.2 L616.7 122.8 L616.8 125.5 L617.0 128.2 L617.1 130.8 L617.1 133.5 L617.2 136.2 L617.2 138.8 L617.2 141.5 L617.2 144.2 L617.2 146.9 L617.2 149.5 L617.2 152.2 L617.3 154.9 L617.3 157.5 L617.4 160.2 L617.4 162.9 L617.5 165.5 L617.5 168.2 L617.5 170.9 L617.4 173.5 L617.4 176.2 L617.3 178.9 L617.2 181.5 L617.1 184.2 L617.0 186.9 L616.8 189.6 L616.6 192.2 L616.4 194.9 L616.1 197.5 Z" fill="none" stroke="#eaf6ff" stroke-width="2.4" stroke-opacity="0.95"/><path d="M620.1 199.3 L615.3 205.8 L611.8 198.4" fill="none" stroke="#ffd34d" stroke-width="2" opacity="0.9"/><path d="M607.8 326.8 L603.0 333.4 L599.4 326.0" fill="none" stroke="#ffd34d" stroke-width="2" opacity="0.9"/><path d="M589.7 446.7 L585.4 453.6 L581.3 446.5" fill="none" stroke="#ffd34d" stroke-width="2" opacity="0.9"/><path d="M574.5 573.9 L566.6 575.7 L568.6 567.8" fill="none" stroke="#ffd34d" stroke-width="2" opacity="0.9"/><path d="M454.6 614.7 L447.3 611.1 L453.9 606.4" fill="none" stroke="#ffd34d" stroke-width="2" opacity="0.9"/><path d="M337.2 645.9 L329.3 644.1 L334.6 637.9" fill="none" stroke="#ffd34d" stroke-width="2" opacity="0.9"/><path d="M284.0 557.3 L292.2 557.5 L288.2 564.6" fill="none" stroke="#ffd34d" stroke-width="2" opacity="0.9"/><path d="M392.2 490.9 L400.3 489.4 L397.8 497.2" fill="none" stroke="#ffd34d" stroke-width="2" opacity="0.9"/><path d="M488.5 406.3 L496.5 404.8 L494.1 412.6" fill="none" stroke="#ffd34d" stroke-width="2" opacity="0.9"/><path d="M530.1 293.5 L535.0 287.0 L538.4 294.4" fill="none" stroke="#ffd34d" stroke-width="2" opacity="0.9"/><path d="M543.0 166.1 L547.9 159.5 L551.4 166.9" fill="none" stroke="#ffd34d" stroke-width="2" opacity="0.9"/><path d="M597.4 73.6 L598.9 81.6 L591.1 79.2" fill="none" stroke="#ffd34d" stroke-width="2" opacity="0.9"/><circle cx="593.9" cy="440.8" r="9" fill="#0a1c33" stroke="#ffb14d" stroke-width="1.5"/><text x="593.9" y="444.3" fill="#ffb14d" font-size="10" text-anchor="middle">1</text><circle cx="581.7" cy="450.0" r="9" fill="#0a1c33" stroke="#ffb14d" stroke-width="1.5"/><text x="581.7" y="453.5" fill="#ffb14d" font-size="10" text-anchor="middle">2</text><circle cx="589.7" cy="489.0" r="9" fill="#0a1c33" stroke="#ffb14d" stroke-width="1.5"/><text x="589.7" y="492.5" fill="#ffb14d" font-size="10" text-anchor="middle">3</text><circle cx="571.6" cy="570.9" r="9" fill="#0a1c33" stroke="#ffb14d" stroke-width="1.5"/><text x="571.6" y="574.4" fill="#ffb14d" font-size="10" text-anchor="middle">4</text><circle cx="398.2" cy="614.0" r="9" fill="#0a1c33" stroke="#ffb14d" stroke-width="1.5"/><text x="398.2" y="617.5" fill="#ffb14d" font-size="10" text-anchor="middle">5</text><circle cx="386.9" cy="626.4" r="9" fill="#0a1c33" stroke="#ffb14d" stroke-width="1.5"/><text x="386.9" y="629.9" fill="#ffb14d" font-size="10" text-anchor="middle">6</text><circle cx="293.5" cy="643.7" r="9" fill="#0a1c33" stroke="#ffb14d" stroke-width="1.5"/><text x="293.5" y="647.2" fill="#ffb14d" font-size="10" text-anchor="middle">7</text><circle cx="284.3" cy="562.9" r="9" fill="#0a1c33" stroke="#ffb14d" stroke-width="1.5"/><text x="284.3" y="566.4" fill="#ffb14d" font-size="10" text-anchor="middle">8</text><circle cx="509.2" cy="393.4" r="9" fill="#0a1c33" stroke="#ffb14d" stroke-width="1.5"/><text x="509.2" y="396.9" fill="#ffb14d" font-size="10" text-anchor="middle">9</text><circle cx="512.8" cy="362.3" r="9" fill="#0a1c33" stroke="#ffb14d" stroke-width="1.5"/><text x="512.8" y="365.8" fill="#ffb14d" font-size="10" text-anchor="middle">10</text><circle cx="527.9" cy="344.4" r="9" fill="#0a1c33" stroke="#ffb14d" stroke-width="1.5"/><text x="527.9" y="347.9" fill="#ffb14d" font-size="10" text-anchor="middle">11</text><circle cx="560.4" cy="77.5" r="9" fill="#0a1c33" stroke="#ffb14d" stroke-width="1.5"/><text x="560.4" y="81.0" fill="#ffb14d" font-size="10" text-anchor="middle">12</text><line x1="604.2" y1="294.3" x2="608.8" y2="294.7" stroke="#fff" stroke-width="5" stroke-dasharray="4 4"/><circle cx="606.5" cy="294.5" r="5" fill="#ff3b6b"/><text x="616.5" y="286.5" fill="#fff" font-size="12" font-weight="bold">S/F</text><text x="50" y="40" fill="#eaf6ff" font-size="26" font-weight="bold" letter-spacing="2">MONZA</text><text x="50" y="60" fill="#ffb14d" font-size="13">REAL — Autodromo Nazionale Monza</text><text x="830" y="40" fill="#9fc6e6" font-size="12" text-anchor="end">official 5.793 km · 11 corners · clockwise</text><line x1="50" y1="686" x2="116.78026988440104" y2="686" stroke="#eaf6ff" stroke-width="2"/><line x1="50" y1="681" x2="50" y2="691" stroke="#eaf6ff" stroke-width="2"/><line x1="116.78026988440104" y1="681" x2="116.78026988440104" y2="691" stroke="#eaf6ff" stroke-width="2"/><text x="83.39013494220052" y="678" fill="#9fc6e6" font-size="11" text-anchor="middle">250 m</text><line x1="822" y1="678" x2="822" y2="642" stroke="#9fc6e6" stroke-width="2"/><path d="M817 650 L822 640 L827 650 Z" fill="#9fc6e6"/><text x="822" y="692" fill="#9fc6e6" font-size="11" text-anchor="middle">N</text></svg>