<svg xmlns="http://www.w3.org/2000/svg" width="900" height="720" viewBox="0 0 900 720" font-family="ui-monospace,Menlo,monospace"><rect width="900" height="720" fill="#0a1c33"/><g stroke="#173a5e" stroke-width="1"><line x1="70" y1="50" x2="70" y2="660"/><line x1="110" y1="50" x2="110" y2="660"/><line x1="150" y1="50" x2="150" y2="660"/><line x1="190" y1="50" x2="190" y2="660"/><line x1="230" y1="50" x2="230" y2="660"/><line x1="270" y1="50" x2="270" y2="660"/><line x1="310" y1="50" x2="310" y2="660"/><line x1="350" y1="50" x2="350" y2="660"/><line x1="390" y1="50" x2="390" y2="660"/><line x1="430" y1="50" x2="430" y2="660"/><line x1="470" y1="50" x2="470" y2="660"/><line x1="510" y1="50" x2="510" y2="660"/><line x1="550" y1="50" x2="550" y2="660"/><line x1="590" y1="50" x2="590" y2="660"/><line x1="630" y1="50" x2="630" y2="660"/><line x1="670" y1="50" x2="670" y2="660"/><line x1="710" y1="50" x2="710" y2="660"/><line x1="750" y1="50" x2="750" y2="660"/><line x1="790" y1="50" x2="790" y2="660"/><line x1="830" y1="50" x2="830" y2="660"/><line x1="50" y1="50" x2="830" y2="50"/><line x1="50" y1="90" x2="830" y2="90"/><line x1="50" y1="130" x2="830" y2="130"/><line x1="50" y1="170" x2="830" y2="170"/><line x1="50" y1="210" x2="830" y2="210"/><line x1="50" y1="250" x2="830" y2="250"/><line x1="50" y1="290" x2="830" y2="290"/><line x1="50" y1="330" x2="830" y2="330"/><line x1="50" y1="370" x2="830" y2="370"/><line x1="50" y1="410" x2="830" y2="410"/><line x1="50" y1="450" x2="830" y2="450"/><line x1="50" y1="490" x2="830" y2="490"/><line x1="50" y1="530" x2="830" y2="530"/><line x1="50" y1="570" x2="830" y2="570"/><line x1="50" y1="610" x2="830" y2="610"/><line x1="50" y1="650" x2="830" y2="650"/></g><path d="M577.0 277.4 L575.0 280.1 L573.0 282.9 L571.1 285.6 L569.1 288.3 L567.1 291.0 L565.1 293.7 L563.2 296.5 L561.2 299.2 L559.2 301.9 L557.3 304.7 L555.3 307.4 L553.3 310.1 L551.3 312.8 L549.3 315.5 L547.4 318.3 L545.4 321.0 L543.4 323.7 L541.4 326.5 L539.5 329.2 L537.5 331.9 L535.6 334.7 L533.6 337.4 L531.7 340.1 L529.7 342.9 L527.7 345.6 L525.8 348.4 L524.0 351.1 L522.1 353.4 L519.8 354.9 L517.0 355.9 L513.8 356.8 L510.8 357.6 L507.7 358.1 L504.5 358.1 L501.2 358.1 L497.9 358.0 L494.5 357.9 L491.1 357.8 L487.8 357.7 L484.4 357.7 L481.1 357.7 L477.8 357.5 L474.5 357.1 L471.2 356.8 L467.8 356.4 L464.4 356.2 L461.0 356.0 L457.5 355.8 L453.9 356.1 L450.5 356.6 L447.1 357.2 L443.7 357.9 L440.2 358.7 L436.9 360.2 L433.7 361.8 L430.8 363.6 L427.9 365.5 L425.1 367.6 L422.4 369.6 L419.7 371.7 L417.0 373.8 L414.5 376.0 L411.9 378.2 L409.3 380.4 L406.8 382.6 L404.2 384.8 L401.7 387.0 L399.1 389.2 L396.6 391.3 L394.0 393.5 L391.4 395.7 L388.8 397.9 L386.3 400.1 L383.8 402.3 L381.3 404.4 L378.9 406.3 L376.4 407.6 L374.1 408.3 L371.9 407.6 L369.9 406.1 L368.5 404.0 L367.5 401.2 L366.3 398.0 L365.3 394.9 L364.2 391.7 L363.1 388.5 L362.1 385.3 L361.0 382.1 L360.0 378.9 L358.8 375.6 L357.4 372.3 L355.1 369.0 L351.5 366.2 L346.9 366.2 L343.3 368.4 L340.4 370.9 L338.2 374.0 L336.5 377.3 L335.2 380.6 L334.1 383.8 L333.0 387.0 L332.0 390.3 L331.1 393.6 L330.3 396.9 L329.5 400.3 L328.9 403.7 L328.3 407.1 L327.9 410.5 L327.7 413.9 L327.5 417.3 L327.4 420.8 L327.6 424.3 L328.1 428.0 L329.2 431.7 L331.5 434.8 L334.0 437.4 L336.4 439.9 L338.9 442.2 L341.5 444.4 L344.1 446.6 L346.6 448.8 L349.1 451.0 L351.7 453.2 L354.2 455.4 L356.7 457.6 L359.3 459.8 L361.8 462.0 L364.4 464.2 L366.9 466.4 L369.4 468.6 L372.0 470.8 L374.5 473.0 L377.1 475.2 L379.6 477.4 L382.1 479.6 L384.7 481.8 L387.2 484.1 L389.8 486.3 L392.3 488.5 L394.9 490.7 L397.4 492.9 L399.9 495.0 L402.5 497.3 L405.0 499.5 L407.6 501.7 L410.1 503.9 L412.6 506.1 L415.2 508.3 L417.7 510.5 L420.3 512.7 L422.8 515.0 L425.3 517.2 L427.9 519.4 L430.4 521.6 L432.9 523.8 L435.6 525.9 L438.2 528.0 L440.8 530.1 L443.4 532.2 L446.1 534.3 L448.7 536.4 L451.2 538.6 L453.8 540.8 L456.3 543.0 L458.9 545.2 L461.5 547.4 L464.1 549.5 L466.6 551.7 L469.2 553.9 L471.8 556.1 L474.3 558.2 L476.9 560.4 L479.5 562.6 L482.0 564.7 L484.6 566.9 L487.1 569.1 L489.7 571.3 L492.3 573.5 L494.9 575.7 L497.8 577.7 L501.0 579.6 L504.5 580.8 L507.9 581.7 L511.5 582.3 L515.1 582.4 L518.7 582.2 L522.4 581.4 L525.8 579.9 L529.1 577.9 L531.6 574.9 L533.4 571.5 L534.5 567.9 L535.0 564.3 L535.2 560.9 L535.4 557.5 L535.6 554.2 L535.8 550.9 L536.1 547.6 L536.4 544.3 L537.0 541.2 L537.9 538.4 L539.4 535.9 L541.4 533.7 L543.6 531.7 L546.1 530.2 L548.8 529.2 L551.7 528.9 L554.5 529.0 L557.1 530.2 L559.9 531.4 L562.2 533.1 L564.2 535.3 L565.8 537.8 L566.9 540.6 L567.6 543.5 L567.8 546.4 L567.4 549.3 L566.5 552.3 L565.1 555.2 L563.8 558.2 L562.4 561.2 L560.9 564.3 L559.5 567.4 L558.1 570.5 L556.8 573.6 L555.4 576.6 L554.0 579.7 L552.6 582.8 L551.3 585.8 L549.9 588.9 L548.6 591.9 L547.1 594.9 L545.4 597.7 L543.7 600.4 L541.6 602.8 L539.7 605.5 L537.4 607.9 L535.1 610.3 L532.8 612.7 L530.5 614.9 L528.0 617.2 L525.6 619.6 L523.2 621.8 L521.0 623.8 L518.1 625.1 L515.2 626.5 L512.2 627.9 L509.2 628.9 L506.1 629.9 L502.9 630.6 L499.7 631.3 L496.4 631.8 L493.1 632.3 L489.8 632.9 L486.5 633.4 L483.2 633.9 L479.9 634.4 L476.5 634.9 L473.2 635.4 L469.9 635.9 L466.6 636.4 L463.3 636.8 L459.9 637.2 L456.6 637.7 L453.2 638.1 L449.9 638.6 L446.6 639.0 L443.2 639.4 L439.9 639.9 L436.6 640.3 L433.3 640.7 L429.9 641.1 L426.6 641.5 L423.2 641.9 L419.9 642.3 L416.6 642.8 L413.2 643.1 L409.9 643.5 L406.5 643.9 L403.2 644.2 L399.9 644.5 L396.5 644.9 L393.2 645.2 L389.8 645.5 L386.5 645.8 L383.1 646.1 L379.8 646.4 L376.4 646.7 L373.0 647.1 L369.7 647.5 L366.4 647.9 L363.3 648.0 L360.2 647.7 L357.1 646.9 L354.0 645.9 L350.8 645.1 L347.8 644.0 L344.8 642.7 L341.9 641.4 L339.3 639.6 L336.7 637.8 L334.4 635.8 L332.4 633.6 L331.0 630.9 L329.8 627.9 L328.5 624.8 L327.4 621.8 L326.3 618.6 L325.3 615.4 L324.2 612.3 L323.2 609.1 L322.1 605.9 L321.2 602.7 L320.3 599.5 L319.4 596.2 L318.5 593.0 L317.7 589.8 L316.8 586.6 L316.1 583.3 L315.3 580.0 L314.6 576.8 L314.0 573.5 L313.4 570.2 L312.9 567.0 L312.3 563.7 L311.8 560.4 L311.4 557.0 L310.9 553.7 L310.5 550.4 L310.2 547.1 L309.8 543.7 L309.6 540.4 L309.3 537.1 L309.0 533.8 L308.8 530.4 L308.5 527.1 L308.3 523.7 L308.0 520.4 L307.8 517.0 L307.6 513.6 L307.3 510.3 L307.1 506.9 L306.9 503.6 L306.7 500.2 L306.4 496.9 L306.2 493.5 L305.9 490.1 L305.6 486.7 L305.1 483.2 L304.4 479.8 L303.4 476.4 L302.2 473.2 L300.9 469.9 L299.5 466.7 L297.7 463.7 L296.0 460.7 L294.2 457.8 L292.3 455.1 L290.6 452.5 L289.6 449.7 L288.8 446.8 L288.7 443.8 L289.1 440.8 L289.8 437.8 L291.0 434.7 L292.0 431.5 L293.0 428.3 L294.0 425.1 L295.1 421.9 L296.1 418.7 L297.3 415.5 L298.2 412.2 L299.1 408.8 L299.7 405.4 L300.1 401.8 L300.3 398.3 L300.2 394.7 L299.7 391.1 L298.7 387.6 L297.3 384.3 L295.6 381.1 L293.6 378.1 L291.4 375.3 L289.1 372.7 L286.9 370.3 L285.0 367.8 L283.2 365.3 L282.0 362.5 L281.2 359.5 L280.7 356.5 L280.7 353.5 L281.1 350.5 L281.9 347.6 L283.2 344.8 L284.9 342.2 L286.8 339.8 L289.1 337.6 L291.5 335.5 L294.1 333.6 L296.7 331.7 L299.6 330.0 L302.4 328.2 L305.2 326.4 L308.1 324.7 L311.2 323.1 L314.0 321.0 L316.6 318.7 L319.4 316.5 L321.8 313.7 L323.7 310.7 L325.5 307.6 L326.9 304.5 L328.4 301.5 L330.0 298.5 L331.5 295.5 L333.0 292.6 L334.6 289.6 L336.1 286.6 L337.6 283.5 L339.1 280.5 L340.7 277.5 L342.2 274.5 L343.7 271.6 L345.2 268.5 L346.8 265.5 L348.2 262.5 L349.7 259.5 L351.3 256.5 L352.8 253.5 L354.3 250.5 L355.8 247.5 L357.3 244.5 L358.8 241.5 L360.3 238.5 L361.8 235.5 L363.3 232.4 L364.8 229.4 L366.3 226.4 L367.9 223.5 L369.4 220.4 L370.9 217.4 L372.4 214.4 L374.0 211.4 L375.5 208.5 L377.0 205.5 L378.5 202.5 L380.1 199.5 L381.6 196.5 L383.2 193.5 L384.7 190.5 L386.2 187.5 L387.7 184.5 L389.2 181.5 L390.8 178.5 L392.3 175.5 L393.8 172.5 L395.3 169.5 L396.9 166.5 L398.4 163.5 L399.9 160.5 L401.5 157.5 L403.0 154.5 L404.5 151.4 L406.0 148.4 L407.4 145.4 L408.8 142.3 L410.3 139.4 L411.9 136.4 L413.4 133.5 L415.1 130.6 L416.7 127.7 L418.4 124.7 L420.0 121.8 L421.7 119.0 L423.5 116.1 L425.3 113.3 L427.1 110.5 L428.9 107.7 L430.8 104.9 L432.6 102.1 L434.5 99.2 L436.3 96.4 L438.1 93.5 L439.9 90.7 L441.6 87.9 L443.4 85.2 L445.4 82.6 L447.5 80.3 L449.8 78.1 L452.3 76.3 L455.1 75.1 L457.9 73.9 L461.0 73.1 L464.1 72.5 L467.2 72.4 L470.4 72.3 L473.4 72.7 L476.3 73.5 L479.0 74.8 L481.7 76.4 L484.3 78.3 L486.5 80.4 L488.6 82.7 L490.4 85.2 L491.8 88.1 L493.4 91.0 L494.7 94.1 L496.2 97.2 L497.8 100.2 L499.4 103.1 L501.1 106.1 L503.0 109.0 L504.7 111.9 L506.4 114.9 L508.4 117.7 L510.5 120.3 L512.5 123.1 L514.7 125.7 L516.7 128.5 L519.0 131.1 L521.2 133.6 L523.5 136.1 L525.8 138.6 L528.1 141.1 L530.4 143.6 L532.8 145.9 L535.2 148.3 L537.6 150.7 L539.9 153.1 L542.3 155.5 L544.6 157.8 L546.9 160.3 L549.2 162.7 L551.4 165.2 L553.6 167.7 L555.8 170.2 L558.0 172.8 L560.2 175.4 L562.5 178.0 L565.3 180.7 L569.4 182.0 L573.7 181.7 L577.5 180.2 L580.3 177.6 L582.6 175.2 L584.9 173.1 L587.4 171.6 L590.1 170.6 L592.6 170.6 L595.1 171.3 L597.4 172.9 L599.6 175.0 L601.8 177.4 L604.0 179.9 L606.1 182.4 L608.0 185.1 L609.7 187.8 L611.4 190.6 L613.0 193.5 L614.4 196.4 L615.6 199.4 L616.7 202.5 L617.6 205.6 L618.4 208.8 L619.1 211.9 L619.4 214.9 L619.1 217.7 L618.0 220.3 L616.3 222.9 L614.4 225.6 L612.5 228.3 L610.5 231.1 L608.5 233.8 L606.6 236.5 L604.6 239.2 L602.6 242.0 L600.7 244.7 L598.6 247.4 L596.7 250.1 L594.7 252.8 L592.7 255.6 L590.8 258.3 L588.8 261.1 L586.8 263.8 L584.9 266.5 L582.9 269.2 L580.9 272.0 L578.9 274.7  L582.5 277.3 L584.5 274.6 L586.5 271.8 L588.4 269.1 L590.4 266.4 L592.4 263.6 L594.3 260.9 L596.3 258.2 L598.3 255.4 L600.3 252.7 L602.2 250.0 L604.2 247.3 L606.2 244.5 L608.2 241.8 L610.1 239.1 L612.1 236.4 L614.1 233.7 L616.0 230.9 L617.9 228.1 L620.0 225.4 L621.9 222.4 L623.4 218.8 L623.9 214.9 L623.6 211.2 L622.9 207.7 L622.1 204.4 L621.0 201.1 L619.8 197.8 L618.6 194.6 L617.1 191.4 L615.5 188.3 L613.7 185.3 L611.8 182.4 L609.7 179.6 L607.6 176.9 L605.4 174.3 L603.0 171.7 L600.4 169.2 L597.1 167.1 L593.2 165.8 L589.1 165.9 L585.5 167.5 L582.2 169.3 L579.3 171.6 L576.8 173.9 L574.7 175.8 L572.4 176.9 L569.8 177.3 L567.7 176.9 L565.8 174.9 L563.7 172.3 L561.5 169.8 L559.3 167.2 L557.2 164.6 L555.0 162.0 L552.7 159.5 L550.4 157.0 L548.1 154.5 L545.8 152.1 L543.5 149.6 L541.1 147.2 L538.8 144.7 L536.4 142.4 L534.0 140.0 L531.7 137.6 L529.3 135.3 L527.0 132.9 L524.7 130.4 L522.5 128.0 L520.3 125.5 L518.3 122.8 L516.2 120.3 L514.1 117.7 L512.2 115.0 L510.3 112.3 L508.6 109.5 L506.9 106.6 L505.1 103.8 L503.4 100.9 L502.0 98.0 L500.4 95.0 L498.9 92.1 L497.5 89.0 L495.9 86.0 L494.3 82.8 L492.3 79.8 L489.8 77.2 L487.2 74.7 L484.2 72.6 L481.2 70.7 L477.8 69.2 L474.3 68.2 L470.7 67.8 L467.1 67.7 L463.5 67.9 L460.0 68.6 L456.5 69.6 L453.2 70.9 L449.9 72.4 L446.9 74.6 L444.3 77.1 L441.8 79.7 L439.7 82.5 L437.8 85.3 L435.9 88.2 L434.1 91.1 L432.4 93.9 L430.6 96.7 L428.7 99.5 L426.9 102.3 L425.0 105.2 L423.2 108.0 L421.4 110.8 L419.5 113.7 L417.7 116.6 L416.0 119.5 L414.4 122.4 L412.7 125.4 L411.0 128.3 L409.3 131.2 L407.6 134.1 L405.9 137.1 L404.4 140.2 L403.0 143.2 L401.5 146.3 L400.1 149.3 L398.7 152.3 L397.3 155.4 L395.8 158.4 L394.3 161.4 L392.8 164.4 L391.4 167.5 L389.9 170.5 L388.4 173.5 L386.9 176.5 L385.3 179.5 L383.8 182.5 L382.3 185.5 L380.8 188.5 L379.3 191.5 L377.7 194.5 L376.2 197.5 L374.6 200.5 L373.1 203.5 L371.6 206.5 L370.1 209.5 L368.5 212.4 L367.0 215.4 L365.5 218.5 L364.0 221.4 L362.4 224.4 L360.9 227.4 L359.4 230.4 L357.9 233.5 L356.3 236.5 L354.8 239.5 L353.3 242.5 L351.8 245.5 L350.3 248.5 L348.8 251.5 L347.3 254.5 L345.7 257.5 L344.2 260.5 L342.8 263.5 L341.2 266.5 L339.7 269.5 L338.2 272.5 L336.7 275.5 L335.2 278.5 L333.6 281.5 L332.1 284.5 L330.6 287.5 L329.1 290.5 L327.5 293.5 L326.0 296.5 L324.5 299.5 L322.9 302.5 L321.3 305.4 L319.7 308.2 L318.0 310.7 L316.0 313.1 L313.5 315.1 L311.1 317.2 L308.5 319.1 L305.7 320.6 L302.7 322.3 L299.9 324.1 L297.0 326.0 L294.0 327.6 L291.3 329.7 L288.5 331.8 L285.9 334.2 L283.3 336.6 L281.0 339.5 L279.1 342.6 L277.5 345.9 L276.6 349.5 L276.2 353.2 L276.2 356.8 L276.7 360.5 L277.7 364.1 L279.2 367.4 L281.2 370.5 L283.2 373.3 L285.5 375.9 L287.8 378.3 L289.7 380.9 L291.4 383.5 L292.9 386.3 L294.1 389.2 L294.9 392.1 L295.4 395.2 L295.5 398.3 L295.3 401.4 L294.9 404.6 L294.3 407.8 L293.6 411.0 L292.7 414.1 L291.6 417.2 L290.6 420.4 L289.5 423.6 L288.5 426.9 L287.5 430.0 L286.5 433.2 L285.4 436.5 L284.6 440.0 L284.1 443.7 L284.2 447.4 L285.1 451.1 L286.4 454.6 L288.3 457.7 L290.3 460.4 L292.1 463.1 L293.7 466.0 L295.4 468.8 L296.7 471.8 L297.9 474.8 L299.0 477.8 L300.0 480.9 L300.7 484.0 L301.1 487.2 L301.4 490.5 L301.7 493.8 L301.9 497.2 L302.1 500.5 L302.4 503.9 L302.6 507.2 L302.8 510.6 L303.1 513.9 L303.3 517.3 L303.5 520.7 L303.7 524.0 L304.0 527.4 L304.1 530.7 L304.3 534.1 L304.6 537.5 L304.8 540.8 L305.2 544.2 L305.5 547.6 L305.9 550.9 L306.3 554.3 L306.8 557.7 L307.3 561.0 L307.8 564.4 L308.3 567.7 L308.8 571.1 L309.4 574.4 L310.0 577.8 L310.8 581.0 L311.6 584.3 L312.4 587.6 L313.2 590.9 L314.0 594.2 L314.8 597.5 L315.7 600.8 L316.6 604.0 L317.7 607.3 L318.7 610.5 L319.7 613.7 L320.8 616.9 L321.9 620.1 L323.0 623.3 L324.2 626.5 L325.5 629.7 L326.9 632.9 L328.7 636.1 L331.0 639.1 L333.7 641.6 L336.7 643.6 L339.6 645.6 L342.8 647.1 L346.1 648.4 L349.4 649.6 L352.7 650.6 L356.1 651.3 L359.6 652.0 L363.2 652.2 L366.7 651.9 L370.1 651.4 L373.5 651.0 L376.8 650.7 L380.2 650.3 L383.5 650.0 L386.8 649.7 L390.2 649.4 L393.5 649.0 L396.9 648.7 L400.2 648.3 L403.6 648.0 L407.0 647.6 L410.3 647.3 L413.6 646.9 L417.0 646.6 L420.3 646.2 L423.7 645.7 L427.0 645.4 L430.4 645.0 L433.7 644.6 L437.1 644.2 L440.4 643.8 L443.7 643.4 L447.1 643.0 L450.4 642.7 L453.8 642.2 L457.1 641.8 L460.4 641.4 L463.8 641.0 L467.1 640.6 L470.5 640.2 L473.8 639.8 L477.2 639.3 L480.5 638.9 L483.8 638.5 L487.2 638.0 L490.5 637.6 L493.9 637.1 L497.2 636.6 L500.6 636.0 L504.0 635.3 L507.3 634.5 L510.7 633.5 L514.0 632.3 L517.1 630.9 L520.3 629.4 L523.5 627.7 L526.3 625.4 L528.9 623.0 L531.3 620.7 L533.8 618.4 L536.2 616.0 L538.6 613.5 L540.9 611.0 L543.0 608.3 L545.2 605.7 L547.4 602.9 L549.3 599.9 L550.8 596.8 L552.3 593.7 L553.7 590.7 L555.1 587.6 L556.6 584.5 L558.0 581.5 L559.4 578.4 L560.8 575.4 L562.2 572.3 L563.6 569.3 L565.0 566.2 L566.5 563.2 L567.9 560.1 L569.4 557.0 L570.8 553.8 L571.9 550.4 L572.2 546.7 L572.1 542.9 L571.2 539.2 L569.8 535.7 L567.8 532.5 L565.4 529.7 L562.3 527.5 L559.0 525.8 L555.4 524.5 L551.6 524.3 L547.8 524.8 L544.1 526.1 L540.9 528.0 L538.2 530.5 L535.6 533.3 L533.8 536.6 L532.6 540.1 L531.9 543.6 L531.5 547.1 L531.2 550.5 L531.0 553.9 L530.8 557.3 L530.6 560.6 L530.4 563.9 L530.1 567.0 L529.3 569.9 L528.0 572.4 L526.2 574.6 L523.8 576.0 L521.1 577.1 L518.1 577.7 L515.0 577.8 L512.0 577.7 L508.8 577.3 L505.8 576.5 L502.9 575.4 L500.4 573.9 L497.8 572.0 L495.2 570.0 L492.7 567.8 L490.1 565.6 L487.6 563.4 L485.0 561.2 L482.4 559.1 L479.9 556.9 L477.3 554.7 L474.7 552.5 L472.2 550.4 L469.6 548.2 L467.1 546.0 L464.5 543.8 L461.9 541.6 L459.4 539.5 L456.8 537.3 L454.2 535.1 L451.7 532.9 L449.2 530.7 L446.7 528.4 L444.2 526.1 L441.8 523.8 L439.4 521.5 L436.9 519.2 L434.3 517.0 L431.7 514.8 L429.2 512.7 L426.6 510.5 L424.1 508.3 L421.5 506.1 L418.9 504.0 L416.3 501.8 L413.8 499.6 L411.2 497.4 L408.7 495.3 L406.1 493.1 L403.5 490.9 L401.0 488.7 L398.4 486.5 L395.8 484.4 L393.3 482.2 L390.7 480.0 L388.1 477.8 L385.5 475.7 L383.0 473.5 L380.4 471.3 L377.9 469.1 L375.3 467.0 L372.7 464.8 L370.2 462.6 L367.6 460.4 L365.0 458.3 L362.5 456.1 L359.9 453.9 L357.3 451.7 L354.8 449.6 L352.2 447.4 L349.7 445.2 L347.1 443.0 L344.5 440.9 L342.0 438.7 L339.5 436.5 L337.2 434.2 L335.0 431.9 L333.2 429.7 L332.4 427.0 L332.0 424.0 L332.0 420.8 L332.1 417.5 L332.3 414.2 L332.5 410.9 L332.9 407.7 L333.4 404.4 L334.1 401.2 L334.8 398.0 L335.5 394.8 L336.4 391.6 L337.4 388.5 L338.5 385.4 L339.6 382.2 L340.9 379.2 L342.2 376.5 L344.0 374.2 L346.2 372.3 L348.2 370.7 L349.9 370.7 L351.7 372.1 L353.1 374.5 L354.1 377.4 L355.2 380.5 L356.2 383.7 L357.2 386.9 L358.3 390.1 L359.3 393.3 L360.4 396.5 L361.5 399.7 L362.6 402.9 L363.9 406.4 L366.2 409.8 L369.8 412.2 L374.0 413.4 L378.2 412.5 L381.7 410.7 L384.6 408.5 L387.2 406.2 L389.7 403.9 L392.2 401.7 L394.7 399.6 L397.3 397.3 L399.8 395.1 L402.4 392.9 L404.9 390.7 L407.5 388.5 L410.0 386.3 L412.5 384.0 L415.0 381.9 L417.6 379.7 L420.1 377.5 L422.7 375.4 L425.3 373.3 L428.0 371.3 L430.6 369.4 L433.3 367.6 L436.0 365.9 L438.9 364.4 L441.8 363.2 L444.8 362.4 L448.0 361.7 L451.2 361.2 L454.4 360.7 L457.6 360.5 L460.8 360.7 L464.1 360.8 L467.4 361.1 L470.7 361.4 L474.1 361.8 L477.5 362.1 L480.9 362.3 L484.3 362.4 L487.7 362.4 L491.0 362.5 L494.4 362.6 L497.8 362.7 L501.2 362.9 L504.6 362.8 L508.1 362.8 L511.6 362.2 L515.1 361.3 L518.4 360.2 L522.0 359.1 L525.1 356.7 L527.5 353.8 L529.5 351.0 L531.4 348.3 L533.4 345.5 L535.3 342.8 L537.3 340.0 L539.2 337.3 L541.1 334.5 L543.1 331.8 L545.1 329.1 L547.0 326.3 L549.0 323.6 L551.0 320.9 L553.0 318.2 L554.9 315.4 L556.9 312.7 L558.9 310.0 L560.9 307.3 L562.8 304.5 L564.8 301.8 L566.8 299.1 L568.7 296.4 L570.7 293.6 L572.7 290.9 L574.7 288.2 L576.6 285.5 L578.6 282.7 L580.6 280.0 Z" fill="#25f4ee" fill-opacity="0.16" stroke="#25f4ee" stroke-width="1.2" stroke-opacity="0.6"/><path d="M578.8 278.7 L576.8 281.4 L574.8 284.2 L572.9 286.9 L570.9 289.6 L568.9 292.3 L566.9 295.1 L565.0 297.8 L563.0 300.5 L561.0 303.2 L559.1 306.0 L557.1 308.7 L555.1 311.4 L553.1 314.1 L551.2 316.9 L549.2 319.6 L547.2 322.3 L545.2 325.0 L543.3 327.8 L541.3 330.5 L539.3 333.2 L537.4 336.0 L535.4 338.7 L533.5 341.4 L531.5 344.2 L529.6 346.9 L527.6 349.7 L525.7 352.4 L523.6 355.0 L520.8 356.9 L517.7 358.1 L514.5 359.1 L511.2 359.8 L507.9 360.4 L504.6 360.5 L501.2 360.5 L497.8 360.4 L494.4 360.3 L491.1 360.2 L487.7 360.1 L484.3 360.0 L481.0 359.9 L477.7 359.7 L474.3 359.4 L471.0 359.1 L467.6 358.7 L464.2 358.5 L460.9 358.3 L457.5 358.2 L454.2 358.4 L450.8 358.9 L447.5 359.4 L444.2 360.1 L441.0 361.0 L437.9 362.3 L434.9 363.9 L432.0 365.6 L429.2 367.5 L426.5 369.4 L423.9 371.5 L421.2 373.6 L418.6 375.7 L416.1 377.9 L413.5 380.1 L411.0 382.3 L408.4 384.5 L405.9 386.7 L403.3 388.9 L400.8 391.1 L398.3 393.3 L395.7 395.5 L393.1 397.7 L390.6 399.8 L388.0 402.0 L385.5 404.3 L383.0 406.5 L380.3 408.5 L377.3 410.1 L374.1 410.7 L370.8 409.9 L368.1 407.9 L366.2 405.2 L365.0 402.1 L363.9 398.9 L362.8 395.7 L361.8 392.5 L360.7 389.3 L359.6 386.1 L358.6 382.9 L357.6 379.7 L356.4 376.5 L355.2 373.4 L353.4 370.6 L350.7 368.5 L347.6 368.6 L344.7 370.3 L342.2 372.6 L340.2 375.3 L338.7 378.2 L337.4 381.4 L336.3 384.6 L335.2 387.7 L334.2 390.9 L333.3 394.2 L332.5 397.5 L331.8 400.8 L331.2 404.1 L330.7 407.4 L330.3 410.7 L330.0 414.1 L329.8 417.4 L329.7 420.8 L329.8 424.1 L330.2 427.5 L331.2 430.7 L333.2 433.4 L335.6 435.8 L338.0 438.1 L340.5 440.4 L343.0 442.6 L345.6 444.8 L348.2 446.9 L350.7 449.1 L353.2 451.3 L355.8 453.5 L358.4 455.7 L360.9 457.9 L363.4 460.1 L366.0 462.3 L368.6 464.5 L371.1 466.7 L373.7 468.9 L376.2 471.1 L378.8 473.3 L381.3 475.4 L383.9 477.6 L386.4 479.8 L389.0 482.0 L391.5 484.2 L394.1 486.4 L396.6 488.6 L399.2 490.8 L401.7 493.0 L404.3 495.2 L406.8 497.4 L409.4 499.6 L412.0 501.7 L414.5 504.0 L417.0 506.2 L419.6 508.3 L422.1 510.5 L424.7 512.7 L427.2 514.9 L429.8 517.1 L432.3 519.3 L434.9 521.5 L437.5 523.7 L440.0 525.9 L442.5 528.1 L445.1 530.3 L447.6 532.5 L450.2 534.6 L452.8 536.8 L455.3 539.0 L457.9 541.2 L460.4 543.4 L463.0 545.6 L465.6 547.7 L468.1 549.9 L470.7 552.1 L473.3 554.3 L475.8 556.4 L478.4 558.6 L481.0 560.8 L483.5 562.9 L486.1 565.1 L488.7 567.3 L491.2 569.5 L493.8 571.7 L496.4 573.8 L499.1 575.9 L501.9 577.5 L505.1 578.6 L508.4 579.5 L511.7 580.0 L515.1 580.2 L518.4 579.9 L521.7 579.3 L524.9 578.0 L527.6 576.2 L529.8 573.6 L531.4 570.7 L532.3 567.4 L532.7 564.1 L532.9 560.8 L533.1 557.4 L533.3 554.1 L533.5 550.7 L533.8 547.3 L534.2 544.0 L534.9 540.7 L535.9 537.5 L537.5 534.6 L539.7 532.0 L542.3 529.8 L545.1 528.1 L548.3 527.0 L551.6 526.5 L554.9 526.8 L558.1 527.9 L561.1 529.5 L563.7 531.5 L566.0 533.9 L567.8 536.8 L569.1 539.9 L569.9 543.2 L570.0 546.6 L569.6 549.8 L568.5 553.0 L567.3 556.1 L565.9 559.2 L564.4 562.2 L563.0 565.3 L561.6 568.4 L560.2 571.4 L558.8 574.5 L557.4 577.5 L556.0 580.6 L554.6 583.7 L553.2 586.7 L551.8 589.8 L550.4 592.8 L548.9 595.8 L547.3 598.8 L545.5 601.6 L543.5 604.3 L541.3 606.9 L539.1 609.4 L536.8 611.9 L534.5 614.3 L532.1 616.7 L529.6 618.9 L527.2 621.3 L524.8 623.7 L522.2 625.7 L519.2 627.3 L516.2 628.7 L513.1 630.0 L509.9 631.2 L506.7 632.2 L503.5 633.0 L500.2 633.6 L496.8 634.2 L493.5 634.7 L490.2 635.2 L486.8 635.7 L483.5 636.1 L480.2 636.6 L476.8 637.1 L473.5 637.5 L470.2 638.0 L466.9 638.4 L463.5 638.9 L460.2 639.3 L456.8 639.7 L453.5 640.1 L450.2 640.5 L446.8 641.0 L443.5 641.4 L440.1 641.8 L436.8 642.2 L433.5 642.6 L430.1 643.0 L426.8 643.4 L423.5 643.8 L420.1 644.2 L416.8 644.6 L413.4 645.0 L410.1 645.3 L406.7 645.7 L403.4 646.1 L400.0 646.4 L396.7 646.7 L393.3 647.1 L390.0 647.4 L386.7 647.7 L383.3 648.0 L380.0 648.4 L376.6 648.7 L373.3 649.1 L369.9 649.5 L366.6 649.8 L363.2 650.0 L359.9 649.7 L356.6 649.1 L353.3 648.3 L350.1 647.3 L347.0 646.2 L343.8 644.9 L340.8 643.4 L338.0 641.6 L335.3 639.6 L332.7 637.4 L330.6 634.8 L329.0 631.9 L327.6 628.8 L326.4 625.7 L325.2 622.5 L324.1 619.4 L323.0 616.2 L322.0 613.0 L321.0 609.8 L319.9 606.6 L319.0 603.3 L318.0 600.1 L317.1 596.9 L316.2 593.6 L315.4 590.4 L314.6 587.1 L313.9 583.8 L313.1 580.5 L312.4 577.3 L311.8 574.0 L311.1 570.6 L310.6 567.3 L310.0 564.0 L309.5 560.7 L309.1 557.4 L308.6 554.0 L308.3 550.7 L307.9 547.3 L307.6 544.0 L307.3 540.6 L307.0 537.3 L306.7 533.9 L306.5 530.6 L306.2 527.2 L306.0 523.8 L305.7 520.5 L305.5 517.2 L305.3 513.8 L305.1 510.4 L304.8 507.1 L304.6 503.7 L304.4 500.4 L304.2 497.0 L304.0 493.6 L303.7 490.3 L303.3 486.9 L302.8 483.6 L302.1 480.3 L301.2 477.1 L300.1 474.0 L298.8 470.8 L297.4 467.8 L295.8 464.8 L294.1 461.9 L292.2 459.1 L290.3 456.4 L288.6 453.5 L287.3 450.4 L286.5 447.1 L286.4 443.7 L286.8 440.4 L287.6 437.2 L288.7 434.0 L289.7 430.8 L290.7 427.6 L291.8 424.4 L292.8 421.2 L293.9 418.0 L294.9 414.8 L295.9 411.6 L296.7 408.3 L297.3 405.0 L297.7 401.6 L297.9 398.3 L297.7 394.9 L297.2 391.6 L296.3 388.4 L295.1 385.3 L293.5 382.3 L291.6 379.5 L289.5 376.8 L287.3 374.3 L285.1 371.8 L283.0 369.2 L281.3 366.3 L279.9 363.2 L278.9 360.0 L278.4 356.7 L278.4 353.3 L278.9 350.0 L279.8 346.8 L281.2 343.7 L282.9 340.8 L285.1 338.2 L287.4 335.9 L290.0 333.7 L292.7 331.7 L295.4 329.7 L298.2 327.9 L301.1 326.1 L304.0 324.4 L306.9 322.7 L309.8 321.0 L312.5 319.1 L315.1 317.0 L317.6 314.7 L319.8 312.2 L321.7 309.5 L323.4 306.5 L324.9 303.5 L326.4 300.5 L328.0 297.5 L329.5 294.5 L331.0 291.5 L332.6 288.5 L334.1 285.5 L335.6 282.5 L337.1 279.5 L338.6 276.5 L340.2 273.5 L341.7 270.5 L343.2 267.5 L344.7 264.5 L346.2 261.5 L347.7 258.5 L349.2 255.5 L350.8 252.5 L352.3 249.5 L353.8 246.5 L355.3 243.5 L356.8 240.5 L358.3 237.5 L359.8 234.5 L361.4 231.4 L362.9 228.4 L364.4 225.5 L365.9 222.5 L367.4 219.5 L369.0 216.4 L370.5 213.4 L372.0 210.5 L373.5 207.5 L375.1 204.5 L376.6 201.5 L378.1 198.5 L379.7 195.5 L381.2 192.5 L382.7 189.5 L384.2 186.5 L385.7 183.5 L387.3 180.5 L388.8 177.5 L390.3 174.5 L391.8 171.5 L393.3 168.5 L394.8 165.4 L396.3 162.4 L397.8 159.4 L399.3 156.4 L400.8 153.4 L402.3 150.4 L403.7 147.3 L405.2 144.3 L406.7 141.3 L408.2 138.3 L409.8 135.3 L411.4 132.4 L413.1 129.4 L414.7 126.5 L416.4 123.6 L418.1 120.7 L419.8 117.8 L421.5 114.9 L423.4 112.1 L425.1 109.3 L427.0 106.4 L428.8 103.6 L430.7 100.8 L432.5 98.0 L434.3 95.1 L436.1 92.3 L437.9 89.4 L439.7 86.6 L441.6 83.8 L443.6 81.2 L445.9 78.7 L448.4 76.4 L451.1 74.4 L454.1 72.9 L457.2 71.7 L460.5 70.9 L463.8 70.3 L467.2 70.0 L470.5 70.1 L473.9 70.5 L477.0 71.4 L480.1 72.8 L483.0 74.5 L485.7 76.5 L488.2 78.8 L490.4 81.3 L492.3 84.0 L493.9 87.0 L495.3 90.0 L496.8 93.1 L498.3 96.1 L499.9 99.1 L501.5 102.0 L503.2 104.9 L504.9 107.8 L506.6 110.7 L508.4 113.5 L510.4 116.3 L512.3 119.0 L514.3 121.7 L516.4 124.3 L518.6 127.0 L520.7 129.5 L523.0 132.0 L525.3 134.5 L527.5 136.9 L529.9 139.4 L532.2 141.8 L534.6 144.2 L536.9 146.6 L539.3 149.0 L541.7 151.4 L544.0 153.8 L546.3 156.2 L548.6 158.7 L550.9 161.1 L553.2 163.6 L555.4 166.1 L557.6 168.7 L559.8 171.2 L562.0 173.8 L564.2 176.3 L566.6 178.7 L569.6 179.7 L573.1 179.3 L576.1 177.9 L578.6 175.8 L581.0 173.4 L583.6 171.2 L586.4 169.5 L589.6 168.4 L592.9 168.2 L596.1 169.2 L598.9 171.1 L601.3 173.4 L603.6 175.9 L605.8 178.4 L607.9 181.0 L609.9 183.8 L611.7 186.6 L613.4 189.5 L615.0 192.5 L616.4 195.5 L617.7 198.6 L618.8 201.8 L619.8 205.0 L620.6 208.3 L621.3 211.6 L621.6 214.9 L621.3 218.2 L620.0 221.3 L618.1 224.1 L616.2 226.9 L614.2 229.6 L612.3 232.4 L610.3 235.1 L608.3 237.8 L606.4 240.5 L604.4 243.2 L602.4 246.0 L600.4 248.7 L598.5 251.4 L596.5 254.1 L594.5 256.9 L592.6 259.6 L590.6 262.4 L588.6 265.1 L586.6 267.8 L584.7 270.5 L582.7 273.3 L580.7 276.0 Z" fill="none" stroke="#eaf6ff" stroke-width="2.4" stroke-opacity="0.95"/><path d="M582.2 281.2 L574.7 284.4 L575.4 276.2" fill="none" stroke="#ffd34d" stroke-width="2" opacity="0.9"/><path d="M455.6 362.4 L447.6 360.8 L452.7 354.5" fill="none" stroke="#ffd34d" stroke-width="2" opacity="0.9"/><path d="M342.7 379.4 L336.7 384.9 L334.6 377.0" fill="none" stroke="#ffd34d" stroke-width="2" opacity="0.9"/><path d="M417.2 500.8 L419.8 508.5 L411.7 507.2" fill="none" stroke="#ffd34d" stroke-width="2" opacity="0.9"/><path d="M529.3 552.6 L535.7 547.5 L537.2 555.5" fill="none" stroke="#ffd34d" stroke-width="2" opacity="0.9"/><path d="M520.4 631.3 L512.5 629.2 L518.0 623.2" fill="none" stroke="#ffd34d" stroke-width="2" opacity="0.9"/><path d="M354.7 652.9 L350.3 646.0 L358.4 645.3" fill="none" stroke="#ffd34d" stroke-width="2" opacity="0.9"/><path d="M300.5 504.3 L303.7 496.8 L308.8 503.2" fill="none" stroke="#ffd34d" stroke-width="2" opacity="0.9"/><path d="M275.6 347.3 L283.3 344.6 L282.1 352.6" fill="none" stroke="#ffd34d" stroke-width="2" opacity="0.9"/><path d="M365.2 214.5 L372.1 210.2 L372.7 218.3" fill="none" stroke="#ffd34d" stroke-width="2" opacity="0.9"/><path d="M450.6 70.3 L458.1 73.6 L451.6 78.6" fill="none" stroke="#ffd34d" stroke-width="2" opacity="0.9"/><path d="M563.0 172.3 L570.9 174.3 L565.5 180.4" fill="none" stroke="#ffd34d" stroke-width="2" opacity="0.9"/><circle cx="517.7" cy="358.1" r="9" fill="#0a1c33" stroke="#25f4ee" stroke-width="1.5"/><text x="517.7" y="361.6" fill="#25f4ee" font-size="10" text-anchor="middle">1</text><circle cx="447.5" cy="359.4" r="9" fill="#0a1c33" stroke="#25f4ee" stroke-width="1.5"/><text x="447.5" y="362.9" fill="#25f4ee" font-size="10" text-anchor="middle">2</text><circle cx="374.1" cy="410.7" r="9" fill="#0a1c33" stroke="#25f4ee" stroke-width="1.5"/><text x="374.1" y="414.2" fill="#25f4ee" font-size="10" text-anchor="middle">3</text><circle cx="347.6" cy="368.6" r="9" fill="#0a1c33" stroke="#25f4ee" stroke-width="1.5"/><text x="347.6" y="372.1" fill="#25f4ee" font-size="10" text-anchor="middle">4</text><circle cx="527.6" cy="576.2" r="9" fill="#0a1c33" stroke="#25f4ee" stroke-width="1.5"/><text x="527.6" y="579.7" fill="#25f4ee" font-size="10" text-anchor="middle">5</text><circle cx="545.1" cy="528.1" r="9" fill="#0a1c33" stroke="#25f4ee" stroke-width="1.5"/><text x="545.1" y="531.6" fill="#25f4ee" font-size="10" text-anchor="middle">6</text><circle cx="516.2" cy="628.7" r="9" fill="#0a1c33" stroke="#25f4ee" stroke-width="1.5"/><text x="516.2" y="632.2" fill="#25f4ee" font-size="10" text-anchor="middle">7</text><circle cx="335.3" cy="639.6" r="9" fill="#0a1c33" stroke="#25f4ee" stroke-width="1.5"/><text x="335.3" y="643.1" fill="#25f4ee" font-size="10" text-anchor="middle">8</text><circle cx="301.2" cy="477.1" r="9" fill="#0a1c33" stroke="#25f4ee" stroke-width="1.5"/><text x="301.2" y="480.6" fill="#25f4ee" font-size="10" text-anchor="middle">9</text><circle cx="286.5" cy="447.1" r="9" fill="#0a1c33" stroke="#25f4ee" stroke-width="1.5"/><text x="286.5" y="450.6" fill="#25f4ee" font-size="10" text-anchor="middle">10</text><circle cx="296.3" cy="388.4" r="9" fill="#0a1c33" stroke="#25f4ee" stroke-width="1.5"/><text x="296.3" y="391.9" fill="#25f4ee" font-size="10" text-anchor="middle">11</text><circle cx="278.4" cy="356.7" r="9" fill="#0a1c33" stroke="#25f4ee" stroke-width="1.5"/><text x="278.4" y="360.2" fill="#25f4ee" font-size="10" text-anchor="middle">12</text><circle cx="317.6" cy="314.7" r="9" fill="#0a1c33" stroke="#25f4ee" stroke-width="1.5"/><text x="317.6" y="318.2" fill="#25f4ee" font-size="10" text-anchor="middle">13</text><circle cx="477.0" cy="71.4" r="9" fill="#0a1c33" stroke="#25f4ee" stroke-width="1.5"/><text x="477.0" y="74.9" fill="#25f4ee" font-size="10" text-anchor="middle">14</text><circle cx="512.3" cy="119.0" r="9" fill="#0a1c33" stroke="#25f4ee" stroke-width="1.5"/><text x="512.3" y="122.5" fill="#25f4ee" font-size="10" text-anchor="middle">15</text><circle cx="569.6" cy="179.7" r="9" fill="#0a1c33" stroke="#25f4ee" stroke-width="1.5"/><text x="569.6" y="183.2" fill="#25f4ee" font-size="10" text-anchor="middle">16</text><circle cx="589.6" cy="168.4" r="9" fill="#0a1c33" stroke="#25f4ee" stroke-width="1.5"/><text x="589.6" y="171.9" fill="#25f4ee" font-size="10" text-anchor="middle">17</text><line x1="576.2" y1="276.8" x2="581.4" y2="280.6" stroke="#fff" stroke-width="5" stroke-dasharray="4 4"/><circle cx="578.8" cy="278.7" r="5" fill="#ff3b6b"/><text x="588.8" y="270.7" fill="#fff" font-size="12" font-weight="bold">S/F</text><text x="50" y="40" fill="#eaf6ff" font-size="26" font-weight="bold" letter-spacing="2">SILVERSTONE</text><text x="50" y="60" fill="#25f4ee" font-size="13">OUR GAME TRACK — exact buildTrack centreline (start/finish at index 0)</text><text x="830" y="40" fill="#9fc6e6" font-size="12" text-anchor="end">5.885 km · 17 corners · clockwise</text><line x1="50" y1="686" x2="134.1018502407053" y2="686" stroke="#eaf6ff" stroke-width="2"/><line x1="50" y1="681" x2="50" y2="691" stroke="#eaf6ff" stroke-width="2"/><line x1="134.1018502407053" y1="681" x2="134.1018502407053" y2="691" stroke="#eaf6ff" stroke-width="2"/><text x="92.05092512035264" y="678" fill="#9fc6e6" font-size="11" text-anchor="middle">250 m</text><line x1="822" y1="678" x2="822" y2="642" stroke="#9fc6e6" stroke-width="2"/><path d="M817 650 L822 640 L827 650 Z" fill="#9fc6e6"/><text x="822" y="692" fill="#9fc6e6" font-size="11" text-anchor="middle">N</text></svg>