<svg xmlns="http://www.w3.org/2000/svg" width="900" height="720" viewBox="0 0 900 720" font-family="ui-monospace,Menlo,monospace"><rect width="900" height="720" fill="#0a1c33"/><g stroke="#173a5e" stroke-width="1"><line x1="70" y1="50" x2="70" y2="660"/><line x1="110" y1="50" x2="110" y2="660"/><line x1="150" y1="50" x2="150" y2="660"/><line x1="190" y1="50" x2="190" y2="660"/><line x1="230" y1="50" x2="230" y2="660"/><line x1="270" y1="50" x2="270" y2="660"/><line x1="310" y1="50" x2="310" y2="660"/><line x1="350" y1="50" x2="350" y2="660"/><line x1="390" y1="50" x2="390" y2="660"/><line x1="430" y1="50" x2="430" y2="660"/><line x1="470" y1="50" x2="470" y2="660"/><line x1="510" y1="50" x2="510" y2="660"/><line x1="550" y1="50" x2="550" y2="660"/><line x1="590" y1="50" x2="590" y2="660"/><line x1="630" y1="50" x2="630" y2="660"/><line x1="670" y1="50" x2="670" y2="660"/><line x1="710" y1="50" x2="710" y2="660"/><line x1="750" y1="50" x2="750" y2="660"/><line x1="790" y1="50" x2="790" y2="660"/><line x1="830" y1="50" x2="830" y2="660"/><line x1="50" y1="50" x2="830" y2="50"/><line x1="50" y1="90" x2="830" y2="90"/><line x1="50" y1="130" x2="830" y2="130"/><line x1="50" y1="170" x2="830" y2="170"/><line x1="50" y1="210" x2="830" y2="210"/><line x1="50" y1="250" x2="830" y2="250"/><line x1="50" y1="290" x2="830" y2="290"/><line x1="50" y1="330" x2="830" y2="330"/><line x1="50" y1="370" x2="830" y2="370"/><line x1="50" y1="410" x2="830" y2="410"/><line x1="50" y1="450" x2="830" y2="450"/><line x1="50" y1="490" x2="830" y2="490"/><line x1="50" y1="530" x2="830" y2="530"/><line x1="50" y1="570" x2="830" y2="570"/><line x1="50" y1="610" x2="830" y2="610"/><line x1="50" y1="650" x2="830" y2="650"/></g><path d="M544.5 600.3 L546.8 603.9 L549.1 607.5 L551.4 611.1 L553.6 614.7 L555.9 618.3 L558.2 621.9 L560.4 625.5 L562.7 629.1 L564.9 632.8 L567.1 636.4 L569.4 639.9 L571.2 643.1 L571.0 646.1 L569.3 648.2 L566.6 647.0 L562.9 645.4 L559.1 643.6 L555.1 641.9 L551.2 640.2 L547.3 638.5 L543.4 636.8 L539.5 635.2 L535.6 633.5 L531.8 631.8 L528.0 629.9 L524.3 627.9 L520.6 625.8 L517.0 623.6 L513.4 621.4 L509.8 619.1 L506.4 616.7 L503.0 614.1 L499.6 611.5 L496.2 608.9 L492.9 606.3 L489.9 603.5 L486.9 600.5 L484.0 597.4 L481.1 594.3 L478.2 591.2 L475.3 588.0 L472.4 584.9 L469.6 581.7 L466.7 578.6 L463.8 575.4 L460.9 572.3 L458.1 569.1 L455.2 566.0 L452.3 562.8 L449.5 559.7 L446.6 556.5 L443.7 553.4 L440.9 550.2 L438.0 547.1 L435.1 543.9 L432.1 540.8 L429.0 537.7 L425.4 535.2 L421.6 533.0 L417.7 531.2 L414.2 529.0 L410.6 526.8 L407.5 524.2 L404.8 521.2 L402.6 517.7 L400.5 514.1 L398.8 510.3 L397.5 506.4 L396.4 502.3 L395.7 498.2 L395.0 493.9 L394.0 489.7 L392.6 485.5 L390.6 481.6 L388.2 478.0 L385.7 474.5 L383.3 471.0 L380.8 467.5 L378.5 464.0 L376.0 460.4 L373.6 456.9 L371.1 453.4 L368.7 449.9 L366.3 446.4 L363.8 443.0 L361.4 439.5 L358.9 436.0 L356.5 432.5 L354.0 429.0 L351.6 425.5 L349.2 422.0 L346.9 418.5 L344.8 414.8 L342.8 411.1 L341.0 407.3 L339.4 403.5 L337.9 399.5 L336.6 395.4 L335.2 391.4 L333.9 387.4 L332.6 383.3 L331.3 379.2 L330.0 375.2 L328.6 371.1 L327.3 367.1 L326.0 363.1 L324.6 359.0 L323.3 354.9 L321.9 350.9 L320.6 346.8 L319.3 342.8 L317.9 338.7 L316.6 334.7 L315.2 330.7 L313.9 326.6 L312.6 322.6 L311.2 318.5 L309.9 314.5 L308.6 310.4 L307.2 306.4 L305.9 302.3 L304.6 298.3 L303.2 294.2 L301.9 290.2 L300.6 286.1 L299.2 282.1 L297.9 278.0 L296.6 274.0 L295.2 269.9 L293.9 265.9 L292.6 261.8 L291.2 257.8 L289.9 253.7 L288.6 249.7 L287.3 245.6 L285.9 241.6 L284.6 237.5 L283.2 233.5 L281.9 229.4 L280.6 225.4 L279.2 221.3 L277.9 217.3 L276.5 213.2 L275.2 209.2 L273.8 205.1 L272.5 201.1 L271.3 197.2 L270.9 193.3 L271.5 189.6 L273.4 186.3 L276.2 183.5 L279.9 181.4 L283.3 178.4 L285.6 174.4 L286.9 170.0 L286.8 165.4 L285.7 161.2 L284.5 157.0 L283.3 152.9 L282.2 148.9 L280.9 144.8 L279.7 140.8 L279.0 136.8 L279.2 132.8 L280.2 129.0 L282.3 125.7 L285.4 123.2 L288.9 120.7 L292.3 118.2 L295.7 115.6 L299.1 113.0 L302.5 110.4 L305.9 107.9 L309.2 105.2 L312.6 102.7 L316.0 100.1 L319.4 97.5 L322.8 94.9 L326.2 92.3 L329.6 89.7 L333.0 87.2 L336.4 84.6 L339.7 82.0 L343.1 79.4 L346.5 76.8 L349.9 74.3 L353.4 72.2 L356.9 71.2 L360.9 71.8 L364.6 72.8 L367.8 75.1 L370.3 78.0 L371.6 81.7 L371.8 85.5 L370.8 89.3 L368.7 92.5 L365.8 95.3 L362.3 97.6 L358.7 99.7 L355.0 102.0 L351.4 104.2 L347.8 106.6 L344.3 109.0 L340.8 111.5 L337.2 114.0 L333.9 117.1 L331.7 121.2 L330.7 125.7 L331.0 130.2 L332.2 134.5 L333.7 138.5 L335.3 142.5 L336.8 146.5 L338.3 150.5 L339.7 154.5 L341.2 158.5 L342.7 162.5 L344.1 166.5 L345.5 170.5 L346.8 174.5 L348.1 178.5 L349.3 182.6 L350.4 186.7 L351.4 190.8 L352.4 194.9 L353.3 199.1 L354.2 203.3 L355.2 207.4 L356.1 211.6 L357.0 215.7 L357.9 219.9 L358.9 224.1 L359.8 228.2 L360.7 232.4 L361.7 236.5 L362.5 240.7 L363.4 244.9 L364.3 249.1 L365.3 253.3 L366.5 257.5 L368.3 261.5 L370.7 265.3 L373.7 268.6 L377.2 271.4 L381.0 273.6 L385.2 275.3 L389.5 276.3 L393.9 276.5 L398.1 276.7 L402.4 276.9 L406.7 277.0 L411.1 276.9 L415.4 276.3 L419.7 275.4 L423.9 274.1 L427.9 272.3 L431.6 269.9 L435.2 267.4 L438.4 264.4 L441.4 261.2 L444.1 257.8 L446.4 254.0 L448.3 250.1 L449.9 246.1 L451.3 242.0 L452.7 237.9 L454.1 233.9 L455.5 229.9 L456.9 225.9 L458.4 221.9 L459.8 217.9 L461.2 213.9 L462.7 209.8 L464.1 205.8 L465.5 201.8 L467.0 197.8 L468.4 193.8 L469.9 189.8 L471.3 185.8 L472.7 181.8 L474.1 177.7 L475.6 173.7 L477.0 169.7 L478.4 165.7 L480.0 162.0 L482.2 158.5 L485.1 155.7 L488.4 153.4 L492.1 151.9 L496.1 151.3 L500.1 151.6 L504.0 152.9 L507.8 154.4 L511.4 156.5 L515.2 158.7 L519.3 160.3 L523.8 160.9 L528.3 160.9 L532.7 159.6 L536.7 157.7 L540.3 155.0 L543.4 151.6 L545.6 147.9 L547.7 144.1 L549.8 140.4 L551.8 136.7 L553.9 133.0 L556.1 129.3 L558.3 125.7 L560.5 122.0 L562.7 118.3 L564.8 114.6 L567.0 110.9 L569.1 107.3 L571.2 103.6 L573.6 100.4 L576.6 98.0 L580.2 96.8 L584.2 96.9 L588.0 97.9 L591.4 100.0 L594.9 102.4 L598.5 104.8 L602.0 107.1 L605.6 109.4 L609.2 111.8 L612.8 114.0 L616.4 116.2 L619.7 118.7 L622.6 121.5 L624.9 124.9 L626.9 128.5 L628.3 132.3 L629.1 136.3 L629.3 140.3 L628.8 144.4 L627.7 148.4 L626.4 152.4 L625.1 156.5 L623.7 160.5 L622.3 164.5 L620.7 168.4 L618.9 172.2 L617.0 175.9 L615.0 179.6 L612.8 183.2 L610.4 186.7 L608.0 190.1 L605.4 193.5 L602.7 196.7 L599.8 199.9 L597.0 203.0 L594.0 206.1 L591.1 209.2 L588.3 212.4 L585.3 215.5 L582.4 218.5 L579.4 221.4 L576.2 224.2 L572.8 226.7 L569.5 229.2 L565.9 231.5 L562.3 233.6 L558.6 235.7 L554.9 237.8 L551.2 239.9 L547.4 242.0 L543.7 244.1 L540.1 246.3 L536.4 248.4 L532.7 250.5 L529.0 252.6 L525.2 254.7 L521.5 256.7 L517.8 258.9 L514.1 261.2 L510.6 263.8 L507.3 266.5 L504.1 269.5 L501.0 272.5 L498.1 275.7 L495.3 279.0 L492.8 282.5 L490.4 286.2 L488.2 289.9 L486.2 293.8 L484.5 297.7 L482.9 301.7 L481.3 305.7 L479.7 309.6 L478.2 313.6 L476.5 317.5 L474.9 321.5 L473.3 325.4 L471.8 329.4 L470.1 333.3 L468.6 337.4 L467.3 341.5 L466.4 345.8 L466.0 350.2 L466.0 354.6 L466.6 359.0 L467.7 363.3 L469.1 367.4 L470.7 371.4 L472.4 375.3 L474.1 379.2 L475.8 383.1 L477.5 387.1 L479.1 391.0 L480.8 394.9 L482.5 398.8 L484.1 402.7 L485.8 406.7 L487.5 410.6 L489.2 414.5 L490.8 418.4 L492.4 422.3 L493.8 426.3 L495.1 430.3 L496.1 434.4 L497.1 438.5 L498.0 442.6 L498.8 446.8 L499.4 451.0 L500.0 455.2 L500.5 459.4 L501.0 463.6 L501.5 467.8 L502.0 472.1 L502.5 476.3 L503.1 480.5 L503.6 484.8 L504.1 489.0 L504.6 493.3 L505.2 497.3 L505.0 500.8 L502.7 502.3 L499.0 502.3 L494.3 501.7 L490.0 504.1 L488.1 509.0 L490.1 513.6 L492.5 517.2 L494.8 520.8 L497.0 524.4 L499.3 528.0 L501.6 531.6 L503.8 535.2 L506.1 538.8 L508.4 542.4 L510.6 546.0 L512.9 549.6 L515.2 553.3 L517.4 556.9 L519.7 560.5 L522.0 564.1 L524.2 567.7 L526.5 571.3 L528.7 574.9 L531.0 578.6 L533.3 582.2 L535.5 585.8 L537.8 589.4 L540.0 593.0 L542.3 596.7  L545.6 594.6 L543.3 591.0 L541.1 587.4 L538.8 583.8 L536.5 580.2 L534.3 576.5 L532.0 572.9 L529.8 569.3 L527.5 565.7 L525.2 562.1 L523.0 558.4 L520.7 554.8 L518.4 551.2 L516.1 547.6 L513.9 544.0 L511.6 540.4 L509.3 536.8 L507.0 533.3 L504.7 529.6 L502.4 526.0 L500.1 522.5 L497.8 518.9 L495.5 515.3 L493.1 511.8 L491.2 508.8 L492.3 506.0 L494.8 504.6 L498.7 505.4 L503.6 505.4 L507.6 502.2 L508.2 497.2 L507.7 492.9 L507.2 488.6 L506.6 484.4 L506.1 480.2 L505.6 475.9 L505.1 471.7 L504.6 467.5 L504.1 463.2 L503.6 459.0 L503.0 454.8 L502.5 450.5 L501.8 446.3 L501.1 442.0 L500.1 437.8 L499.0 433.6 L497.8 429.5 L496.5 425.4 L494.9 421.4 L493.3 417.4 L491.6 413.5 L490.0 409.5 L488.3 405.6 L486.6 401.7 L484.9 397.8 L483.3 393.9 L481.6 389.9 L479.9 386.0 L478.2 382.1 L476.5 378.2 L474.8 374.3 L473.2 370.4 L471.6 366.4 L470.2 362.5 L469.2 358.5 L468.6 354.5 L468.6 350.3 L468.9 346.2 L469.8 342.2 L471.0 338.2 L472.6 334.3 L474.2 330.4 L475.8 326.4 L477.4 322.5 L479.0 318.5 L480.6 314.6 L482.2 310.6 L483.7 306.6 L485.3 302.7 L487.0 298.8 L488.7 294.9 L490.6 291.2 L492.6 287.5 L494.9 284.1 L497.5 280.7 L500.2 277.5 L503.0 274.4 L506.0 271.4 L509.1 268.6 L512.3 266.0 L515.6 263.4 L519.2 261.1 L522.8 259.1 L526.6 257.2 L530.4 255.2 L534.1 253.0 L537.8 250.9 L541.5 248.7 L545.1 246.5 L548.8 244.4 L552.5 242.2 L556.2 240.1 L559.9 238.0 L563.6 235.9 L567.3 233.7 L571.0 231.4 L574.4 228.8 L577.9 226.2 L581.2 223.4 L584.3 220.4 L587.3 217.3 L590.2 214.2 L593.1 211.0 L595.9 207.9 L598.8 204.7 L601.7 201.6 L604.5 198.3 L607.2 195.0 L609.9 191.6 L612.4 188.1 L614.9 184.5 L617.2 180.9 L619.3 177.1 L621.2 173.3 L623.1 169.4 L624.6 165.4 L626.1 161.3 L627.5 157.2 L628.8 153.2 L630.1 149.1 L631.2 144.9 L631.8 140.4 L631.6 136.0 L630.7 131.6 L629.2 127.4 L627.2 123.5 L624.6 119.8 L621.4 116.7 L617.8 114.1 L614.1 111.9 L610.5 109.7 L607.0 107.3 L603.4 104.9 L599.9 102.6 L596.3 100.3 L592.7 97.9 L588.9 95.5 L584.5 94.4 L579.9 94.3 L575.4 95.7 L571.7 98.6 L569.1 102.2 L566.9 106.0 L564.8 109.7 L562.6 113.4 L560.4 117.0 L558.2 120.7 L556.0 124.3 L553.9 128.0 L551.7 131.7 L549.6 135.4 L547.6 139.1 L545.5 142.9 L543.4 146.6 L541.3 150.1 L538.6 153.1 L535.4 155.6 L531.8 157.4 L528.0 158.4 L524.0 158.4 L520.0 157.9 L516.3 156.4 L512.7 154.2 L508.8 152.1 L504.7 150.6 L500.5 149.3 L496.0 149.0 L491.5 149.8 L487.3 151.4 L483.6 153.9 L480.4 157.1 L478.0 160.8 L476.1 164.8 L474.7 168.9 L473.2 172.9 L471.8 176.9 L470.3 180.9 L468.9 184.9 L467.5 188.9 L466.1 193.0 L464.6 197.0 L463.2 201.0 L461.7 205.0 L460.3 209.0 L458.9 213.0 L457.4 217.0 L456.0 221.0 L454.6 225.1 L453.1 229.1 L451.7 233.1 L450.3 237.1 L449.0 241.2 L447.6 245.2 L446.0 249.1 L444.2 252.8 L442.0 256.3 L439.5 259.6 L436.6 262.6 L433.6 265.4 L430.2 267.9 L426.8 270.1 L423.0 271.8 L419.1 273.0 L415.0 273.9 L410.9 274.4 L406.7 274.6 L402.5 274.5 L398.3 274.2 L394.0 274.0 L389.8 273.9 L385.9 273.0 L382.2 271.4 L378.7 269.2 L375.5 266.7 L372.8 263.7 L370.5 260.3 L368.8 256.6 L367.7 252.6 L366.8 248.5 L365.9 244.4 L365.0 240.2 L364.1 236.0 L363.2 231.8 L362.3 227.7 L361.4 223.5 L360.4 219.4 L359.5 215.2 L358.6 211.0 L357.6 206.9 L356.7 202.7 L355.8 198.6 L354.8 194.4 L353.9 190.2 L353.0 186.0 L352.1 181.9 L351.1 177.7 L349.9 173.5 L348.6 169.4 L347.2 165.4 L345.7 161.4 L344.1 157.4 L342.5 153.4 L341.0 149.4 L339.4 145.5 L337.8 141.5 L336.2 137.6 L334.7 133.7 L333.5 129.8 L333.2 125.9 L334.1 122.1 L335.9 118.7 L338.8 115.9 L342.2 113.6 L345.8 111.2 L349.3 108.8 L352.8 106.4 L356.3 104.1 L360.0 101.9 L363.6 99.7 L367.4 97.3 L370.6 94.1 L373.0 90.3 L374.3 85.8 L374.1 81.2 L372.5 76.8 L369.5 73.2 L365.8 70.5 L361.4 69.3 L356.8 68.7 L352.3 69.9 L348.5 72.2 L345.0 74.8 L341.6 77.4 L338.2 79.9 L334.8 82.6 L331.4 85.1 L328.1 87.7 L324.6 90.3 L321.2 92.8 L317.9 95.5 L314.5 98.0 L311.1 100.6 L307.7 103.2 L304.3 105.8 L300.9 108.4 L297.5 111.0 L294.1 113.5 L290.7 116.1 L287.3 118.6 L283.8 121.2 L280.4 124.1 L278.0 128.0 L276.7 132.4 L276.5 136.9 L277.2 141.3 L278.4 145.5 L279.8 149.6 L280.9 153.6 L282.1 157.7 L283.3 161.8 L284.4 165.8 L284.5 169.7 L283.4 173.4 L281.4 176.8 L278.4 179.4 L274.7 181.5 L271.3 184.5 L268.8 188.6 L268.0 193.2 L268.6 197.7 L269.8 202.0 L271.2 206.0 L272.6 210.1 L273.9 214.1 L275.2 218.1 L276.6 222.2 L277.9 226.3 L279.3 230.3 L280.6 234.4 L281.9 238.4 L283.2 242.5 L284.6 246.5 L285.9 250.6 L287.3 254.6 L288.6 258.7 L289.9 262.7 L291.2 266.7 L292.6 270.8 L293.9 274.8 L295.2 278.9 L296.6 283.0 L297.9 287.0 L299.2 291.1 L300.6 295.1 L301.9 299.2 L303.3 303.2 L304.6 307.3 L305.9 311.3 L307.3 315.3 L308.6 319.4 L309.9 323.4 L311.3 327.5 L312.6 331.5 L314.0 335.6 L315.3 339.6 L316.7 343.7 L318.0 347.7 L319.3 351.7 L320.7 355.8 L322.0 359.8 L323.4 363.9 L324.7 367.9 L326.1 372.0 L327.4 376.0 L328.8 380.1 L330.1 384.1 L331.5 388.2 L332.8 392.2 L334.2 396.2 L335.5 400.3 L337.0 404.4 L338.7 408.3 L340.6 412.2 L342.6 416.1 L344.7 419.8 L347.2 423.3 L349.6 426.9 L352.0 430.4 L354.4 433.9 L356.9 437.4 L359.3 440.9 L361.8 444.4 L364.2 447.9 L366.7 451.3 L369.2 454.8 L371.6 458.3 L374.0 461.8 L376.5 465.3 L378.9 468.8 L381.3 472.4 L383.8 475.8 L386.2 479.3 L388.5 482.8 L390.4 486.5 L391.7 490.3 L392.5 494.4 L393.3 498.6 L394.1 502.9 L395.1 507.1 L396.4 511.2 L398.2 515.2 L400.3 519.1 L402.8 522.7 L405.7 526.1 L409.1 528.9 L412.8 531.2 L416.5 533.5 L420.4 535.3 L424.1 537.2 L427.3 539.7 L430.1 542.8 L433.1 545.8 L435.9 548.9 L438.8 552.1 L441.7 555.2 L444.6 558.4 L447.4 561.5 L450.3 564.7 L453.2 567.8 L456.0 571.0 L458.9 574.1 L461.8 577.3 L464.7 580.4 L467.6 583.6 L470.4 586.7 L473.3 589.9 L476.2 593.0 L479.1 596.2 L482.0 599.3 L485.0 602.4 L488.0 605.4 L491.1 608.4 L494.4 611.2 L497.9 613.8 L501.4 616.2 L504.7 618.9 L508.2 621.5 L511.7 623.9 L515.3 626.3 L519.0 628.5 L522.7 630.7 L526.4 632.9 L530.1 635.0 L533.9 637.1 L537.7 639.1 L541.6 641.0 L545.5 642.7 L549.4 644.4 L553.3 646.1 L557.2 647.8 L561.0 649.6 L565.2 651.5 L570.7 652.2 L574.5 647.6 L575.2 642.3 L572.8 638.0 L570.5 634.3 L568.3 630.7 L566.0 627.1 L563.8 623.5 L561.5 619.8 L559.2 616.2 L556.9 612.6 L554.7 609.0 L552.4 605.4 L550.1 601.8 L547.8 598.2 Z" fill="#25f4ee" fill-opacity="0.16" stroke="#25f4ee" stroke-width="1.2" stroke-opacity="0.6"/><path d="M546.2 599.2 L548.5 602.8 L550.8 606.4 L553.0 610.1 L555.3 613.7 L557.6 617.3 L559.8 620.9 L562.1 624.5 L564.3 628.1 L566.6 631.7 L568.8 635.4 L571.1 639.0 L573.0 642.8 L572.8 646.8 L569.9 650.0 L565.9 649.2 L562.0 647.5 L558.1 645.7 L554.2 644.0 L550.3 642.3 L546.4 640.6 L542.5 638.9 L538.6 637.1 L534.8 635.3 L531.0 633.4 L527.2 631.4 L523.5 629.3 L519.8 627.2 L516.2 625.0 L512.6 622.6 L509.0 620.2 L505.6 617.7 L502.2 615.2 L498.8 612.6 L495.4 610.0 L492.1 607.3 L489.0 604.4 L486.0 601.4 L483.0 598.3 L480.1 595.2 L477.2 592.1 L474.3 588.9 L471.5 585.8 L468.6 582.6 L465.7 579.5 L462.8 576.4 L459.9 573.2 L457.1 570.1 L454.2 566.9 L451.3 563.8 L448.4 560.6 L445.6 557.5 L442.7 554.3 L439.8 551.2 L437.0 548.0 L434.1 544.9 L431.1 541.8 L428.1 538.8 L424.7 536.2 L420.9 534.2 L417.1 532.3 L413.5 530.1 L409.9 527.9 L406.6 525.1 L403.9 521.9 L401.4 518.4 L399.4 514.6 L397.7 510.7 L396.3 506.7 L395.2 502.6 L394.5 498.4 L393.8 494.1 L392.9 490.0 L391.5 486.0 L389.5 482.2 L387.2 478.6 L384.8 475.1 L382.3 471.7 L379.9 468.2 L377.4 464.7 L375.0 461.1 L372.6 457.6 L370.1 454.1 L367.7 450.6 L365.3 447.2 L362.8 443.7 L360.4 440.2 L357.9 436.7 L355.5 433.2 L353.0 429.7 L350.6 426.2 L348.2 422.6 L345.9 419.1 L343.7 415.5 L341.7 411.7 L339.9 407.8 L338.3 403.9 L336.8 399.9 L335.4 395.8 L334.0 391.8 L332.7 387.8 L331.4 383.7 L330.0 379.7 L328.7 375.6 L327.4 371.6 L326.0 367.5 L324.7 363.5 L323.3 359.4 L322.0 355.4 L320.6 351.3 L319.3 347.3 L318.0 343.2 L316.6 339.2 L315.3 335.1 L313.9 331.1 L312.6 327.0 L311.3 323.0 L309.9 319.0 L308.6 314.9 L307.3 310.9 L305.9 306.8 L304.6 302.8 L303.2 298.7 L301.9 294.7 L300.6 290.6 L299.2 286.6 L297.9 282.5 L296.6 278.5 L295.2 274.4 L293.9 270.4 L292.6 266.3 L291.2 262.3 L289.9 258.2 L288.6 254.2 L287.2 250.1 L285.9 246.1 L284.6 242.0 L283.2 238.0 L281.9 233.9 L280.6 229.9 L279.2 225.8 L277.9 221.8 L276.5 217.7 L275.2 213.7 L273.8 209.6 L272.5 205.6 L271.1 201.5 L270.0 197.5 L269.5 193.2 L270.1 189.1 L272.3 185.4 L275.5 182.6 L279.1 180.4 L282.3 177.6 L284.5 173.9 L285.7 169.8 L285.6 165.6 L284.5 161.5 L283.3 157.4 L282.1 153.3 L280.9 149.2 L279.6 145.1 L278.5 141.0 L277.8 136.8 L277.9 132.6 L279.1 128.5 L281.4 124.9 L284.6 122.2 L288.1 119.6 L291.5 117.1 L294.9 114.5 L298.3 112.0 L301.7 109.4 L305.1 106.8 L308.4 104.2 L311.9 101.6 L315.2 99.1 L318.7 96.5 L322.0 93.9 L325.4 91.4 L328.9 88.8 L332.2 86.2 L335.6 83.6 L339.0 81.0 L342.4 78.4 L345.8 75.9 L349.2 73.3 L352.8 71.0 L356.8 70.0 L361.2 70.5 L365.1 71.8 L368.7 74.2 L371.3 77.4 L372.8 81.4 L373.0 85.7 L371.9 89.8 L369.6 93.3 L366.5 96.2 L363.0 98.7 L359.3 100.8 L355.7 103.1 L352.1 105.4 L348.6 107.7 L345.0 110.1 L341.5 112.5 L338.0 115.0 L335.0 117.9 L332.9 121.6 L332.0 125.8 L332.3 130.0 L333.4 134.1 L334.9 138.1 L336.5 142.0 L338.1 146.0 L339.6 150.0 L341.1 154.0 L342.6 158.0 L344.2 161.9 L345.6 166.0 L347.0 170.0 L348.3 174.0 L349.5 178.1 L350.6 182.2 L351.7 186.4 L352.7 190.5 L353.6 194.7 L354.5 198.8 L355.4 203.0 L356.4 207.1 L357.3 211.3 L358.2 215.5 L359.2 219.7 L360.1 223.8 L361.0 228.0 L362.0 232.1 L362.9 236.3 L363.7 240.4 L364.6 244.6 L365.5 248.8 L366.4 253.0 L367.7 257.0 L369.5 260.9 L371.8 264.5 L374.6 267.6 L377.9 270.3 L381.6 272.4 L385.5 274.1 L389.7 275.1 L393.9 275.3 L398.2 275.4 L402.5 275.6 L406.7 275.7 L411.0 275.6 L415.2 275.1 L419.4 274.2 L423.4 272.9 L427.3 271.1 L430.9 268.9 L434.4 266.4 L437.5 263.5 L440.4 260.4 L443.0 257.0 L445.3 253.4 L447.1 249.6 L448.7 245.6 L450.1 241.6 L451.5 237.5 L452.9 233.5 L454.3 229.5 L455.8 225.5 L457.2 221.5 L458.6 217.5 L460.1 213.5 L461.5 209.4 L462.9 205.4 L464.4 201.4 L465.8 197.4 L467.3 193.4 L468.7 189.3 L470.1 185.3 L471.5 181.3 L473.0 177.3 L474.4 173.3 L475.8 169.3 L477.3 165.3 L479.1 161.4 L481.4 157.8 L484.3 154.8 L487.9 152.4 L491.8 150.9 L496.0 150.2 L500.3 150.5 L504.3 151.8 L508.3 153.3 L512.1 155.3 L515.7 157.5 L519.7 159.0 L523.9 159.6 L528.2 159.6 L532.2 158.5 L536.1 156.6 L539.5 154.0 L542.3 150.8 L544.5 147.2 L546.6 143.5 L548.7 139.8 L550.8 136.0 L552.9 132.3 L555.0 128.7 L557.2 125.0 L559.4 121.3 L561.6 117.7 L563.7 114.0 L565.9 110.3 L568.0 106.6 L570.2 103.0 L572.7 99.6 L576.1 97.0 L580.1 95.6 L584.3 95.7 L588.4 96.8 L592.1 99.0 L595.6 101.4 L599.2 103.7 L602.8 106.0 L606.3 108.3 L609.9 110.7 L613.5 112.9 L617.1 115.2 L620.5 117.8 L623.6 120.7 L626.0 124.2 L628.0 128.0 L629.5 132.0 L630.3 136.1 L630.5 140.4 L629.9 144.6 L628.8 148.7 L627.5 152.8 L626.2 156.8 L624.8 160.9 L623.4 164.9 L621.8 168.9 L620.1 172.7 L618.1 176.5 L616.1 180.3 L613.8 183.9 L611.4 187.4 L608.9 190.8 L606.3 194.2 L603.5 197.5 L600.7 200.7 L597.9 203.8 L595.0 206.9 L592.1 210.1 L589.2 213.3 L586.3 216.4 L583.3 219.4 L580.2 222.4 L577.0 225.1 L573.6 227.8 L570.2 230.2 L566.6 232.6 L563.0 234.8 L559.3 236.9 L555.5 239.0 L551.8 241.1 L548.1 243.2 L544.4 245.3 L540.7 247.5 L537.1 249.6 L533.4 251.8 L529.7 253.9 L525.9 255.9 L522.2 257.9 L518.5 260.0 L514.9 262.4 L511.5 264.9 L508.2 267.6 L505.0 270.5 L502.0 273.5 L499.2 276.6 L496.4 279.9 L493.9 283.3 L491.5 286.8 L489.4 290.5 L487.5 294.4 L485.8 298.3 L484.1 302.2 L482.5 306.1 L481.0 310.1 L479.4 314.1 L477.7 318.0 L476.2 322.0 L474.6 325.9 L473.0 329.9 L471.4 333.8 L469.8 337.8 L468.5 341.8 L467.7 346.0 L467.3 350.3 L467.3 354.6 L467.9 358.8 L469.0 362.9 L470.4 366.9 L472.0 370.8 L473.6 374.8 L475.3 378.7 L477.0 382.6 L478.7 386.5 L480.4 390.5 L482.0 394.4 L483.7 398.3 L485.3 402.2 L487.0 406.2 L488.7 410.1 L490.3 414.0 L492.0 417.9 L493.6 421.9 L495.1 425.9 L496.4 429.9 L497.6 434.0 L498.6 438.2 L499.5 442.3 L500.2 446.5 L500.9 450.7 L501.5 455.0 L502.1 459.2 L502.6 463.4 L503.1 467.7 L503.6 471.9 L504.1 476.1 L504.6 480.4 L505.1 484.6 L505.6 488.8 L506.1 493.1 L506.7 497.3 L506.3 501.5 L503.1 503.8 L498.9 503.8 L494.6 503.1 L491.1 505.0 L489.7 508.9 L491.6 512.7 L494.0 516.3 L496.3 519.8 L498.5 523.5 L500.8 527.0 L503.1 530.7 L505.4 534.3 L507.7 537.8 L510.0 541.5 L512.2 545.0 L514.5 548.6 L516.8 552.3 L519.1 555.9 L521.3 559.5 L523.6 563.1 L525.9 566.7 L528.1 570.3 L530.4 573.9 L532.6 577.6 L534.9 581.2 L537.2 584.8 L539.4 588.4 L541.7 592.0 L543.9 595.6 Z" fill="none" stroke="#eaf6ff" stroke-width="2.4" stroke-opacity="0.95"/><path d="M549.8 597.0 L549.9 605.2 L542.7 601.5" fill="none" stroke="#ffd34d" stroke-width="2" opacity="0.9"/><path d="M479.9 601.2 L478.3 593.2 L486.1 595.5" fill="none" stroke="#ffd34d" stroke-width="2" opacity="0.9"/><path d="M378.9 474.1 L378.3 465.9 L385.8 469.3" fill="none" stroke="#ffd34d" stroke-width="2" opacity="0.9"/><path d="M307.3 324.3 L309.1 316.4 L315.3 321.7" fill="none" stroke="#ffd34d" stroke-width="2" opacity="0.9"/><path d="M281.6 170.8 L284.1 163.0 L289.8 168.9" fill="none" stroke="#ffd34d" stroke-width="2" opacity="0.9"/><path d="M375.8 88.8 L367.8 90.4 L370.2 82.5" fill="none" stroke="#ffd34d" stroke-width="2" opacity="0.9"/><path d="M365.1 226.9 L362.8 234.7 L356.9 229.0" fill="none" stroke="#ffd34d" stroke-width="2" opacity="0.9"/><path d="M456.1 212.0 L462.4 206.9 L464.0 214.9" fill="none" stroke="#ffd34d" stroke-width="2" opacity="0.9"/><path d="M558.6 114.7 L566.6 112.8 L564.5 120.7" fill="none" stroke="#ffd34d" stroke-width="2" opacity="0.9"/><path d="M606.6 200.4 L598.7 202.6 L600.5 194.6" fill="none" stroke="#ffd34d" stroke-width="2" opacity="0.9"/><path d="M486.4 307.7 L479.9 312.6 L478.6 304.6" fill="none" stroke="#ffd34d" stroke-width="2" opacity="0.9"/><path d="M506.7 462.9 L503.4 470.4 L498.4 463.9" fill="none" stroke="#ffd34d" stroke-width="2" opacity="0.9"/><circle cx="569.9" cy="650.0" r="9" fill="#0a1c33" stroke="#25f4ee" stroke-width="1.5"/><text x="569.9" y="653.5" fill="#25f4ee" font-size="10" text-anchor="middle">1</text><circle cx="489.0" cy="604.4" r="9" fill="#0a1c33" stroke="#25f4ee" stroke-width="1.5"/><text x="489.0" y="607.9" fill="#25f4ee" font-size="10" text-anchor="middle">2</text><circle cx="431.1" cy="541.8" r="9" fill="#0a1c33" stroke="#25f4ee" stroke-width="1.5"/><text x="431.1" y="545.3" fill="#25f4ee" font-size="10" text-anchor="middle">3</text><circle cx="401.4" cy="518.4" r="9" fill="#0a1c33" stroke="#25f4ee" stroke-width="1.5"/><text x="401.4" y="521.9" fill="#25f4ee" font-size="10" text-anchor="middle">4</text><circle cx="389.5" cy="482.2" r="9" fill="#0a1c33" stroke="#25f4ee" stroke-width="1.5"/><text x="389.5" y="485.7" fill="#25f4ee" font-size="10" text-anchor="middle">5</text><circle cx="341.7" cy="411.7" r="9" fill="#0a1c33" stroke="#25f4ee" stroke-width="1.5"/><text x="341.7" y="415.2" fill="#25f4ee" font-size="10" text-anchor="middle">6</text><circle cx="269.5" cy="193.2" r="9" fill="#0a1c33" stroke="#25f4ee" stroke-width="1.5"/><text x="269.5" y="196.7" fill="#25f4ee" font-size="10" text-anchor="middle">7</text><circle cx="285.7" cy="169.8" r="9" fill="#0a1c33" stroke="#25f4ee" stroke-width="1.5"/><text x="285.7" y="173.3" fill="#25f4ee" font-size="10" text-anchor="middle">8</text><circle cx="277.9" cy="132.6" r="9" fill="#0a1c33" stroke="#25f4ee" stroke-width="1.5"/><text x="277.9" y="136.1" fill="#25f4ee" font-size="10" text-anchor="middle">9</text><circle cx="365.1" cy="71.8" r="9" fill="#0a1c33" stroke="#25f4ee" stroke-width="1.5"/><text x="365.1" y="75.3" fill="#25f4ee" font-size="10" text-anchor="middle">10</text><circle cx="332.9" cy="121.6" r="9" fill="#0a1c33" stroke="#25f4ee" stroke-width="1.5"/><text x="332.9" y="125.1" fill="#25f4ee" font-size="10" text-anchor="middle">11</text><circle cx="377.9" cy="270.3" r="9" fill="#0a1c33" stroke="#25f4ee" stroke-width="1.5"/><text x="377.9" y="273.8" fill="#25f4ee" font-size="10" text-anchor="middle">12</text><circle cx="487.9" cy="152.4" r="9" fill="#0a1c33" stroke="#25f4ee" stroke-width="1.5"/><text x="487.9" y="155.9" fill="#25f4ee" font-size="10" text-anchor="middle">13</text><circle cx="532.2" cy="158.5" r="9" fill="#0a1c33" stroke="#25f4ee" stroke-width="1.5"/><text x="532.2" y="162.0" fill="#25f4ee" font-size="10" text-anchor="middle">14</text><circle cx="580.1" cy="95.6" r="9" fill="#0a1c33" stroke="#25f4ee" stroke-width="1.5"/><text x="580.1" y="99.1" fill="#25f4ee" font-size="10" text-anchor="middle">15</text><circle cx="628.0" cy="128.0" r="9" fill="#0a1c33" stroke="#25f4ee" stroke-width="1.5"/><text x="628.0" y="131.5" fill="#25f4ee" font-size="10" text-anchor="middle">16</text><circle cx="496.4" cy="279.9" r="9" fill="#0a1c33" stroke="#25f4ee" stroke-width="1.5"/><text x="496.4" y="283.4" fill="#25f4ee" font-size="10" text-anchor="middle">17</text><circle cx="467.3" cy="350.3" r="9" fill="#0a1c33" stroke="#25f4ee" stroke-width="1.5"/><text x="467.3" y="353.8" fill="#25f4ee" font-size="10" text-anchor="middle">18</text><circle cx="497.6" cy="434.0" r="9" fill="#0a1c33" stroke="#25f4ee" stroke-width="1.5"/><text x="497.6" y="437.5" fill="#25f4ee" font-size="10" text-anchor="middle">19</text><circle cx="506.7" cy="497.3" r="9" fill="#0a1c33" stroke="#25f4ee" stroke-width="1.5"/><text x="506.7" y="500.8" fill="#25f4ee" font-size="10" text-anchor="middle">20</text><circle cx="491.6" cy="512.7" r="9" fill="#0a1c33" stroke="#25f4ee" stroke-width="1.5"/><text x="491.6" y="516.2" fill="#25f4ee" font-size="10" text-anchor="middle">21</text><line x1="543.8" y1="600.7" x2="548.6" y2="597.7" stroke="#fff" stroke-width="5" stroke-dasharray="4 4"/><circle cx="546.2" cy="599.2" r="5" fill="#ff3b6b"/><text x="556.2" y="591.2" fill="#fff" font-size="12" font-weight="bold">S/F</text><text x="50" y="40" fill="#eaf6ff" font-size="26" font-weight="bold" letter-spacing="2">SPA</text><text x="50" y="60" fill="#25f4ee" font-size="13">OUR GAME TRACK — exact buildTrack centreline (start/finish at index 0)</text><text x="830" y="40" fill="#9fc6e6" font-size="12" text-anchor="end">6.995 km · 21 corners · clockwise</text><line x1="50" y1="686" x2="121.07494730650458" y2="686" stroke="#eaf6ff" stroke-width="2"/><line x1="50" y1="681" x2="50" y2="691" stroke="#eaf6ff" stroke-width="2"/><line x1="121.07494730650458" y1="681" x2="121.07494730650458" y2="691" stroke="#eaf6ff" stroke-width="2"/><text x="85.53747365325229" y="678" fill="#9fc6e6" font-size="11" text-anchor="middle">250 m</text><line x1="822" y1="678" x2="822" y2="642" stroke="#9fc6e6" stroke-width="2"/><path d="M817 650 L822 640 L827 650 Z" fill="#9fc6e6"/><text x="822" y="692" fill="#9fc6e6" font-size="11" text-anchor="middle">N</text></svg>