<svg xmlns="http://www.w3.org/2000/svg" width="900" height="720" viewBox="0 0 900 720" font-family="ui-monospace,Menlo,monospace"><rect width="900" height="720" fill="#0a1c33"/><g stroke="#173a5e" stroke-width="1"><line x1="70" y1="50" x2="70" y2="660"/><line x1="110" y1="50" x2="110" y2="660"/><line x1="150" y1="50" x2="150" y2="660"/><line x1="190" y1="50" x2="190" y2="660"/><line x1="230" y1="50" x2="230" y2="660"/><line x1="270" y1="50" x2="270" y2="660"/><line x1="310" y1="50" x2="310" y2="660"/><line x1="350" y1="50" x2="350" y2="660"/><line x1="390" y1="50" x2="390" y2="660"/><line x1="430" y1="50" x2="430" y2="660"/><line x1="470" y1="50" x2="470" y2="660"/><line x1="510" y1="50" x2="510" y2="660"/><line x1="550" y1="50" x2="550" y2="660"/><line x1="590" y1="50" x2="590" y2="660"/><line x1="630" y1="50" x2="630" y2="660"/><line x1="670" y1="50" x2="670" y2="660"/><line x1="710" y1="50" x2="710" y2="660"/><line x1="750" y1="50" x2="750" y2="660"/><line x1="790" y1="50" x2="790" y2="660"/><line x1="830" y1="50" x2="830" y2="660"/><line x1="50" y1="50" x2="830" y2="50"/><line x1="50" y1="90" x2="830" y2="90"/><line x1="50" y1="130" x2="830" y2="130"/><line x1="50" y1="170" x2="830" y2="170"/><line x1="50" y1="210" x2="830" y2="210"/><line x1="50" y1="250" x2="830" y2="250"/><line x1="50" y1="290" x2="830" y2="290"/><line x1="50" y1="330" x2="830" y2="330"/><line x1="50" y1="370" x2="830" y2="370"/><line x1="50" y1="410" x2="830" y2="410"/><line x1="50" y1="450" x2="830" y2="450"/><line x1="50" y1="490" x2="830" y2="490"/><line x1="50" y1="530" x2="830" y2="530"/><line x1="50" y1="570" x2="830" y2="570"/><line x1="50" y1="610" x2="830" y2="610"/><line x1="50" y1="650" x2="830" y2="650"/></g><path d="M243.3 417.1 L240.8 414.2 L238.3 411.3 L235.8 408.4 L233.3 405.5 L230.8 402.6 L228.3 399.6 L225.8 396.7 L223.3 393.8 L220.8 390.8 L218.3 387.9 L215.8 385.0 L213.3 382.1 L210.8 379.2 L208.3 376.2 L205.8 373.3 L203.3 370.4 L200.9 367.5 L198.4 364.6 L195.9 361.6 L193.4 358.7 L190.9 355.8 L188.4 352.9 L185.9 350.0 L183.4 347.0 L180.9 344.1 L178.4 341.2 L175.9 338.3 L173.4 335.4 L170.9 332.4 L168.4 329.5 L165.9 326.6 L163.4 323.6 L161.0 320.7 L158.5 317.8 L156.0 314.9 L153.5 312.0 L151.0 309.0 L148.5 306.1 L146.0 303.2 L143.5 300.3 L141.0 297.4 L138.5 294.4 L136.0 291.6 L133.5 288.6 L131.0 285.7 L128.5 282.7 L126.0 279.8 L123.5 276.9 L121.0 274.0 L118.5 271.1 L116.0 268.1 L113.5 265.2 L111.1 262.3 L108.6 259.3 L106.1 256.4 L103.6 253.5 L101.1 250.6 L98.6 247.7 L96.1 244.7 L93.5 241.8 L91.0 238.9 L88.5 236.0 L85.9 233.2 L83.3 230.4 L80.9 227.6 L78.5 224.6 L76.5 221.5 L74.8 218.3 L73.3 214.9 L72.3 211.4 L71.8 207.8 L71.7 204.3 L72.1 200.6 L73.0 197.0 L74.0 193.4 L75.1 189.7 L76.1 186.0 L77.2 182.4 L78.5 178.9 L80.2 175.7 L82.3 172.9 L85.0 170.6 L87.9 168.8 L91.2 167.3 L94.6 166.4 L98.2 166.0 L101.7 166.2 L105.1 167.0 L108.2 168.5 L111.1 170.4 L113.6 172.9 L115.9 175.9 L118.0 179.0 L120.0 182.3 L122.0 185.5 L124.1 188.8 L126.3 192.0 L128.4 195.2 L130.6 198.3 L132.7 201.5 L134.8 204.7 L137.0 207.9 L139.1 211.1 L141.2 214.3 L143.3 217.6 L145.5 220.8 L147.7 224.0 L150.1 227.1 L152.8 230.0 L155.9 232.7 L159.3 235.0 L163.0 236.8 L166.9 238.1 L170.8 238.9 L174.8 239.2 L178.7 239.3 L182.5 239.3 L186.3 239.4 L189.9 239.8 L193.4 240.7 L196.7 242.1 L199.9 243.8 L202.6 246.1 L204.9 248.8 L207.0 251.7 L208.6 255.0 L209.6 258.6 L210.4 262.3 L211.6 266.0 L212.7 269.6 L213.8 273.3 L214.8 277.0 L216.0 280.8 L217.2 284.5 L218.9 288.2 L221.2 291.5 L223.8 294.7 L226.6 297.6 L229.7 300.1 L233.2 302.2 L236.8 304.0 L240.6 305.2 L244.6 306.1 L248.6 306.5 L252.5 306.6 L256.4 306.5 L260.2 306.5 L264.0 306.6 L267.7 306.6 L271.3 307.3 L274.7 308.4 L278.1 309.8 L281.3 311.6 L284.2 313.8 L286.9 316.2 L289.3 319.0 L291.3 322.0 L293.0 325.2 L294.3 328.6 L295.1 332.2 L295.4 335.7 L295.2 339.3 L294.5 342.9 L293.3 346.4 L291.9 350.0 L290.6 353.6 L289.4 357.2 L288.1 360.9 L286.9 364.5 L285.6 368.2 L284.5 372.0 L283.8 376.0 L283.8 380.1 L284.2 384.1 L285.1 388.1 L286.5 391.9 L288.3 395.6 L290.4 399.0 L293.1 402.1 L296.2 404.8 L299.4 407.1 L302.9 409.1 L306.3 411.0 L309.9 412.6 L313.4 414.2 L317.0 415.6 L320.7 417.0 L324.3 418.4 L328.0 419.8 L331.8 420.6 L335.7 421.4 L339.7 421.8 L343.6 422.0 L347.4 422.1 L351.3 422.1 L355.2 421.9 L359.1 421.6 L363.0 421.3 L366.9 420.7 L370.8 419.8 L374.5 418.3 L378.2 416.7 L381.7 415.2 L385.1 413.6 L388.7 412.1 L392.2 410.3 L395.7 408.4 L399.0 406.3 L402.2 403.9 L405.2 401.4 L408.0 398.7 L410.7 395.9 L413.4 393.0 L415.9 390.1 L418.4 387.1 L420.8 384.1 L423.3 381.1 L425.7 378.1 L428.1 375.1 L430.5 372.1 L432.9 369.1 L435.3 366.1 L437.6 363.1 L440.0 360.1 L442.4 357.1 L444.8 354.1 L447.2 351.1 L449.6 348.1 L452.2 345.4 L454.8 343.6 L458.0 342.6 L461.7 342.3 L465.5 342.0 L469.4 341.6 L473.2 341.3 L477.0 340.9 L480.9 340.5 L484.7 340.2 L488.5 339.8 L492.3 339.5 L496.2 339.1 L500.0 338.8 L503.7 338.4 L507.3 338.3 L510.4 339.2 L513.0 340.2 L514.5 342.9 L515.4 346.4 L516.3 350.1 L517.1 353.9 L518.0 357.6 L518.8 361.4 L519.7 365.1 L520.6 368.8 L521.4 372.6 L522.2 376.3 L523.0 380.1 L523.8 383.8 L524.6 387.6 L525.4 391.4 L526.2 395.1 L527.0 398.9 L527.8 402.7 L528.6 406.4 L529.4 410.2 L530.1 413.9 L530.9 417.7 L531.7 421.4 L532.5 425.2 L533.4 429.0 L534.2 432.7 L535.0 436.5 L535.8 440.2 L536.6 443.9 L537.2 447.7 L537.7 451.4 L537.8 455.1 L537.6 458.8 L536.8 462.3 L535.8 466.0 L534.6 469.5 L533.1 473.0 L531.5 476.5 L529.9 480.0 L528.3 483.5 L526.9 487.0 L525.3 490.5 L523.6 494.0 L522.1 497.9 L521.4 502.3 L522.5 507.0 L525.8 510.9 L530.7 512.3 L535.5 511.3 L539.4 508.7 L542.5 505.5 L544.6 501.9 L546.2 498.3 L547.7 494.8 L549.3 491.3 L551.0 488.0 L553.0 484.7 L555.1 481.6 L557.2 478.3 L559.3 475.1 L561.3 471.8 L563.4 468.6 L565.4 465.2 L567.3 462.0 L569.4 458.9 L571.8 456.0 L574.2 453.0 L576.7 450.2 L579.4 447.5 L582.1 444.9 L584.9 442.5 L587.9 440.4 L591.1 438.4 L594.4 436.5 L597.7 435.0 L601.3 433.8 L604.8 433.0 L608.5 432.6 L612.3 432.3 L616.1 431.9 L619.9 431.6 L623.7 431.3 L627.4 431.2 L631.2 431.1 L635.0 431.3 L638.7 431.7 L642.5 432.1 L646.3 432.5 L650.0 433.1 L653.7 433.8 L657.5 434.6 L661.1 435.5 L664.8 436.6 L668.4 437.7 L672.0 438.9 L675.6 440.1 L679.4 441.3 L683.0 442.4 L686.5 443.7 L690.1 445.1 L693.5 446.6 L696.9 448.3 L700.2 450.2 L703.4 452.1 L706.6 454.2 L709.7 456.4 L712.7 458.6 L715.7 461.0 L718.5 463.5 L721.1 466.2 L723.7 468.9 L726.2 471.7 L728.6 474.7 L730.9 477.6 L733.0 480.8 L735.1 483.9 L736.9 487.2 L738.7 490.6 L740.3 494.0 L741.9 497.5 L743.5 501.0 L745.1 504.5 L746.7 508.0 L748.2 511.5 L749.8 515.0 L751.4 518.5 L753.0 522.0 L754.6 525.5 L756.2 529.0 L757.8 532.5 L759.3 536.0 L760.9 539.5 L762.7 543.1 L764.9 546.5 L767.8 549.5 L770.9 552.1 L774.4 554.2 L778.1 555.8 L782.0 557.0 L786.1 557.6 L790.0 557.6 L794.0 557.3 L797.9 557.0 L801.8 556.5 L805.6 555.7 L809.5 554.7 L813.2 553.6 L816.9 552.0 L820.6 550.2 L824.1 547.9 L826.8 544.8 L828.9 541.2 L830.7 537.4 L831.7 533.4 L832.1 529.3 L831.8 525.2 L831.0 521.1 L829.7 517.3 L827.9 513.6 L825.9 510.1 L823.4 507.0 L820.9 503.9 L818.2 501.1 L815.2 498.4 L812.2 496.0 L809.2 493.6 L806.2 491.2 L803.2 488.7 L800.2 486.4 L797.2 484.0 L794.1 481.6 L790.9 479.4 L787.8 477.1 L784.6 474.9 L781.4 472.7 L778.2 470.6 L775.0 468.5 L771.7 466.4 L768.5 464.4 L765.2 462.4 L761.9 460.4 L758.6 458.4 L755.3 456.4 L751.9 454.5 L748.6 452.5 L745.2 450.7 L741.8 448.9 L738.4 447.1 L734.9 445.3 L731.5 443.6 L728.0 441.9 L724.5 440.2 L721.0 438.7 L717.5 437.1 L714.0 435.5 L710.4 434.0 L706.9 432.6 L703.4 431.0 L699.8 429.4 L696.3 427.8 L692.7 426.4 L689.0 425.2 L685.3 424.0 L681.6 422.8 L678.0 421.7 L674.3 420.5 L670.7 419.4 L667.0 418.2 L663.4 417.0 L659.7 415.8 L656.0 414.6 L652.4 413.4 L648.7 412.2 L645.1 411.0 L641.5 409.7 L637.8 408.6 L634.2 407.3 L630.5 406.1 L626.9 404.9 L623.3 403.6 L619.7 402.3 L616.0 401.1 L612.4 399.8 L608.8 398.5 L605.1 397.3 L601.5 396.0 L597.9 394.8 L594.2 393.5 L590.6 392.3 L587.0 391.1 L583.3 389.8 L579.7 388.5 L576.1 387.3 L572.4 386.0 L568.8 384.8 L565.2 383.5 L561.5 382.2 L557.9 380.9 L554.3 379.7 L550.7 378.4 L547.0 377.2 L543.4 375.9 L539.7 374.7 L536.0 373.6 L532.4 372.4 L528.7 371.4 L525.0 370.2 L521.3 369.1 L517.6 368.0 L513.9 366.9 L510.0 366.0 L505.9 365.5 L501.9 365.6 L498.0 366.3 L494.1 367.3 L490.3 368.4 L486.7 369.7 L483.0 370.9 L479.4 372.2 L475.7 373.6 L472.2 375.3 L468.7 376.9 L465.1 378.5 L461.7 380.5 L458.4 382.6 L455.2 384.8 L452.0 387.0 L448.9 389.2 L445.7 391.6 L442.7 394.0 L439.8 396.6 L436.9 399.2 L434.1 401.8 L431.3 404.5 L428.5 407.1 L425.7 409.8 L422.9 412.4 L420.2 415.1 L417.4 417.8 L414.7 420.5 L411.9 423.1 L409.1 425.8 L406.4 428.4 L403.6 431.1 L400.8 433.8 L398.0 436.4 L395.3 439.1 L392.4 441.6 L389.5 444.0 L386.6 446.4 L383.6 448.9 L380.6 451.2 L377.7 453.3 L374.9 454.4 L371.9 453.7 L369.0 452.0 L366.3 449.4 L363.3 446.7 L359.5 444.4 L355.0 444.0 L350.8 445.5 L347.6 448.2 L344.7 450.9 L341.9 453.5 L339.0 455.8 L336.0 457.9 L332.8 459.8 L329.5 461.3 L326.0 462.4 L322.4 462.9 L318.8 463.2 L315.2 463.2 L311.6 462.9 L307.8 462.2 L304.0 461.7 L300.3 461.4 L296.6 460.6 L293.0 459.5 L289.6 458.3 L286.3 456.6 L283.1 454.6 L279.9 452.5 L276.9 450.4 L273.9 448.1 L271.0 445.7 L268.2 443.2 L265.5 440.6 L262.7 438.1 L260.0 435.4 L257.5 432.7 L254.9 429.8 L252.4 427.0 L249.8 424.2 L247.1 421.4 L244.6 418.5  L240.4 422.2 L242.9 425.1 L245.5 428.0 L248.1 430.9 L250.6 433.8 L253.2 436.7 L255.8 439.5 L258.6 442.3 L261.6 444.9 L264.6 447.4 L267.6 450.0 L270.8 452.4 L274.1 454.4 L277.5 456.4 L280.9 458.3 L284.4 460.2 L288.1 461.8 L291.9 463.0 L295.7 464.1 L299.5 465.0 L303.3 465.8 L307.1 466.6 L311.0 467.4 L315.0 467.9 L319.1 467.8 L323.1 467.2 L327.0 466.1 L330.8 464.7 L334.5 462.9 L338.0 461.0 L341.2 458.6 L344.2 456.1 L347.1 453.5 L349.9 450.9 L352.5 448.6 L355.4 447.5 L358.4 447.8 L361.2 449.6 L363.9 452.1 L366.8 454.8 L370.7 456.9 L375.0 457.8 L379.2 456.4 L382.7 454.0 L385.8 451.5 L388.8 449.1 L391.8 446.7 L394.7 444.2 L397.6 441.6 L400.4 438.9 L403.2 436.3 L406.0 433.6 L408.8 431.0 L411.5 428.3 L414.3 425.7 L417.1 423.0 L419.9 420.3 L422.6 417.6 L425.4 415.0 L428.2 412.3 L430.9 409.7 L433.7 407.0 L436.5 404.4 L439.3 401.8 L442.1 399.2 L445.0 396.7 L447.9 394.3 L450.9 392.1 L454.0 389.9 L457.2 387.7 L460.3 385.5 L463.5 383.5 L466.7 381.7 L470.2 380.1 L473.7 378.5 L477.1 376.9 L480.6 375.5 L484.2 374.3 L487.8 373.0 L491.4 371.8 L495.1 370.7 L498.7 369.7 L502.2 369.0 L505.8 368.9 L509.5 369.3 L513.1 370.0 L516.7 371.0 L520.3 372.2 L524.0 373.4 L527.7 374.5 L531.4 375.6 L535.0 376.8 L538.7 378.0 L542.3 379.1 L545.9 380.4 L549.6 381.6 L553.2 382.9 L556.8 384.1 L560.4 385.4 L564.1 386.6 L567.7 387.9 L571.4 389.1 L575.0 390.4 L578.6 391.6 L582.3 392.9 L585.9 394.1 L589.5 395.4 L593.2 396.6 L596.8 397.9 L600.4 399.1 L604.1 400.4 L607.7 401.6 L611.3 402.9 L615.0 404.1 L618.6 405.4 L622.2 406.7 L625.9 408.0 L629.5 409.2 L633.1 410.5 L636.8 411.8 L640.4 413.0 L644.0 414.1 L647.7 415.3 L651.3 416.6 L655.0 417.8 L658.7 418.9 L662.4 420.1 L666.0 421.3 L669.7 422.5 L673.3 423.6 L677.0 424.8 L680.6 426.0 L684.3 427.2 L687.9 428.4 L691.5 429.6 L695.0 431.0 L698.5 432.5 L702.1 434.0 L705.5 435.6 L709.1 437.1 L712.6 438.6 L716.1 440.2 L719.6 441.8 L723.1 443.4 L726.6 444.9 L730.1 446.5 L733.5 448.2 L736.9 450.0 L740.3 451.7 L743.7 453.5 L747.0 455.4 L750.3 457.3 L753.6 459.2 L756.9 461.2 L760.2 463.2 L763.4 465.2 L766.6 467.3 L769.8 469.4 L773.0 471.5 L776.3 473.5 L779.6 475.5 L782.8 477.6 L786.0 479.7 L789.1 481.9 L792.1 484.2 L795.2 486.5 L798.2 488.9 L801.2 491.3 L804.1 493.7 L807.1 496.1 L810.0 498.6 L812.9 501.1 L815.7 503.6 L818.2 506.4 L820.6 509.2 L822.9 512.1 L824.6 515.4 L826.1 518.7 L827.3 522.1 L827.9 525.6 L828.1 529.2 L827.7 532.7 L826.8 536.1 L825.4 539.4 L823.7 542.6 L821.6 545.2 L818.8 547.2 L815.5 548.9 L812.1 550.3 L808.5 551.4 L804.9 552.2 L801.2 553.1 L797.5 553.6 L793.7 553.9 L790.0 554.2 L786.3 554.1 L782.7 553.6 L779.3 552.6 L776.0 551.1 L772.9 549.2 L770.1 546.9 L767.6 544.4 L765.6 541.4 L764.0 538.1 L762.5 534.6 L760.9 531.1 L759.3 527.6 L757.7 524.0 L756.2 520.6 L754.6 517.1 L753.0 513.6 L751.4 510.1 L749.9 506.5 L748.3 503.0 L746.7 499.5 L745.1 496.0 L743.5 492.5 L741.8 489.0 L740.0 485.5 L738.1 482.1 L736.0 478.8 L733.8 475.5 L731.4 472.5 L728.9 469.5 L726.3 466.5 L723.6 463.7 L720.9 460.9 L718.0 458.3 L714.8 455.9 L711.7 453.6 L708.5 451.4 L705.1 449.4 L701.8 447.3 L698.4 445.4 L695.0 443.6 L691.5 441.9 L687.8 440.4 L684.2 439.0 L680.5 437.7 L676.9 436.5 L673.3 435.2 L669.6 434.0 L665.8 432.9 L662.1 431.8 L658.3 430.8 L654.5 429.9 L650.7 429.2 L646.9 428.6 L643.0 428.2 L639.1 427.8 L635.2 427.4 L631.3 427.3 L627.4 427.3 L623.5 427.3 L619.6 427.5 L615.7 428.0 L611.9 428.4 L608.0 428.8 L604.1 429.3 L600.2 430.3 L596.4 431.7 L592.8 433.5 L589.4 435.4 L586.1 437.6 L582.9 439.9 L579.8 442.4 L577.0 445.1 L574.2 447.9 L571.7 450.8 L569.2 453.8 L566.7 456.9 L564.5 460.1 L562.5 463.5 L560.5 466.8 L558.5 470.1 L556.5 473.3 L554.3 476.4 L552.1 479.6 L549.8 482.7 L547.7 486.0 L545.6 489.3 L543.7 492.7 L541.9 496.1 L540.1 499.4 L538.2 502.3 L536.0 504.8 L533.5 506.4 L530.8 507.1 L528.4 506.6 L526.5 504.8 L525.7 502.1 L526.0 498.8 L527.1 495.5 L528.7 492.0 L530.3 488.5 L531.7 484.9 L533.1 481.4 L534.7 477.8 L536.2 474.3 L537.6 470.6 L538.8 466.9 L539.9 463.1 L540.6 459.2 L540.9 455.1 L540.8 451.2 L540.3 447.2 L539.6 443.4 L538.9 439.6 L538.0 435.9 L537.2 432.1 L536.4 428.3 L535.6 424.6 L534.8 420.8 L534.0 417.1 L533.2 413.3 L532.4 409.5 L531.7 405.8 L530.9 402.0 L530.1 398.2 L529.3 394.5 L528.6 390.7 L527.8 386.9 L527.0 383.2 L526.2 379.4 L525.4 375.7 L524.7 371.9 L523.9 368.1 L523.1 364.4 L522.2 360.6 L521.3 356.9 L520.5 353.1 L519.6 349.4 L518.8 345.6 L518.0 341.5 L516.1 337.4 L512.0 335.0 L507.6 334.3 L503.5 334.6 L499.6 335.0 L495.8 335.4 L492.0 335.7 L488.1 336.1 L484.3 336.4 L480.5 336.7 L476.6 337.1 L472.8 337.5 L469.0 337.9 L465.2 338.2 L461.4 338.5 L457.3 338.8 L453.2 340.2 L449.9 342.9 L447.2 346.0 L444.7 349.1 L442.3 352.1 L439.9 355.1 L437.5 358.1 L435.1 361.1 L432.8 364.1 L430.4 367.1 L428.0 370.1 L425.6 373.1 L423.2 376.1 L420.8 379.1 L418.4 382.1 L416.0 385.1 L413.5 388.1 L411.0 390.9 L408.3 393.5 L405.6 396.1 L402.9 398.8 L400.1 401.2 L397.0 403.4 L393.9 405.4 L390.6 407.2 L387.2 408.9 L383.7 410.5 L380.3 412.0 L376.8 413.7 L373.3 415.2 L369.9 416.5 L366.3 417.4 L362.6 417.9 L358.8 418.2 L355.1 418.5 L351.3 418.7 L347.5 418.7 L343.7 418.6 L339.9 418.3 L336.2 417.9 L332.6 417.2 L328.9 416.5 L325.4 415.2 L321.9 413.7 L318.3 412.4 L314.8 410.9 L311.4 409.4 L307.9 407.8 L304.6 406.0 L301.4 404.1 L298.4 402.0 L295.7 399.5 L293.3 396.9 L291.4 393.8 L289.8 390.5 L288.5 387.1 L287.7 383.5 L287.4 380.0 L287.4 376.4 L287.9 372.8 L289.0 369.3 L290.2 365.7 L291.5 362.0 L292.7 358.4 L294.0 354.8 L295.3 351.1 L296.6 347.5 L297.8 343.7 L298.6 339.7 L298.9 335.7 L298.5 331.6 L297.6 327.6 L296.2 323.8 L294.3 320.2 L292.1 316.8 L289.4 313.7 L286.4 311.0 L283.2 308.6 L279.7 306.6 L276.0 305.1 L272.1 303.8 L268.1 303.1 L264.1 303.1 L260.2 303.0 L256.4 303.0 L252.6 303.0 L248.8 302.9 L245.1 302.6 L241.6 301.9 L238.1 300.7 L234.9 299.1 L231.7 297.3 L229.0 294.9 L226.4 292.3 L224.0 289.5 L222.0 286.5 L220.5 283.1 L219.4 279.7 L218.2 276.0 L217.2 272.3 L216.1 268.6 L214.9 265.0 L213.8 261.4 L212.9 257.6 L211.7 253.8 L209.9 250.1 L207.7 246.7 L205.0 243.6 L201.9 240.9 L198.3 238.9 L194.5 237.3 L190.5 236.3 L186.5 235.9 L182.6 235.8 L178.8 235.8 L175.0 235.7 L171.3 235.3 L167.7 234.6 L164.3 233.4 L161.1 231.9 L158.1 229.9 L155.3 227.5 L152.8 224.8 L150.6 221.8 L148.4 218.7 L146.3 215.6 L144.1 212.4 L142.1 209.2 L139.9 205.9 L137.8 202.8 L135.6 199.6 L133.5 196.4 L131.3 193.2 L129.2 190.0 L127.0 186.8 L124.9 183.6 L122.9 180.4 L120.9 177.1 L118.9 173.8 L116.4 170.5 L113.5 167.6 L110.1 165.2 L106.3 163.4 L102.2 162.5 L98.1 162.2 L93.9 162.6 L89.9 163.7 L86.1 165.5 L82.6 167.7 L79.5 170.5 L77.3 173.9 L75.2 177.5 L73.8 181.2 L72.7 185.0 L71.6 188.7 L70.6 192.4 L69.5 196.1 L68.6 200.0 L68.2 204.1 L68.3 208.1 L68.9 212.1 L70.0 216.1 L71.6 219.8 L73.4 223.3 L75.4 226.8 L77.7 230.0 L80.2 233.0 L82.7 236.0 L85.2 238.9 L87.7 241.8 L90.2 244.7 L92.7 247.6 L95.1 250.6 L97.6 253.5 L100.0 256.5 L102.5 259.4 L105.0 262.4 L107.4 265.4 L109.8 268.3 L112.3 271.3 L114.8 274.2 L117.2 277.2 L119.7 280.2 L122.1 283.1 L124.6 286.0 L127.0 289.0 L129.5 292.0 L132.0 295.0 L134.4 297.9 L136.9 300.8 L139.3 303.8 L141.8 306.8 L144.2 309.7 L146.7 312.6 L149.2 315.6 L151.7 318.5 L154.1 321.5 L156.6 324.4 L159.1 327.3 L161.6 330.2 L164.1 333.2 L166.6 336.1 L169.1 339.0 L171.6 341.9 L174.1 344.9 L176.6 347.8 L179.1 350.7 L181.6 353.6 L184.1 356.6 L186.6 359.5 L189.1 362.4 L191.6 365.3 L194.1 368.2 L196.6 371.2 L199.1 374.1 L201.6 377.0 L204.0 379.9 L206.5 382.8 L209.1 385.7 L211.6 388.6 L214.1 391.6 L216.6 394.5 L219.1 397.4 L221.6 400.4 L224.1 403.3 L226.6 406.2 L229.1 409.1 L231.6 412.1 L234.1 414.9 L236.6 417.9 L239.1 420.8 Z" fill="#ffb14d" fill-opacity="0.16" stroke="#ffb14d" stroke-width="1.2" stroke-opacity="0.6"/><path d="M241.2 418.9 L238.7 416.0 L236.2 413.1 L233.7 410.2 L231.2 407.3 L228.7 404.4 L226.2 401.4 L223.7 398.5 L221.2 395.6 L218.7 392.6 L216.2 389.7 L213.7 386.8 L211.2 383.9 L208.7 381.0 L206.2 378.0 L203.7 375.1 L201.2 372.2 L198.7 369.3 L196.3 366.4 L193.8 363.4 L191.3 360.5 L188.8 357.6 L186.3 354.7 L183.8 351.8 L181.3 348.8 L178.8 345.9 L176.3 343.0 L173.8 340.1 L171.3 337.2 L168.8 334.2 L166.3 331.3 L163.8 328.4 L161.3 325.4 L158.8 322.5 L156.3 319.6 L153.9 316.7 L151.4 313.8 L148.9 310.8 L146.4 307.9 L143.9 305.0 L141.4 302.0 L138.9 299.1 L136.5 296.2 L134.0 293.2 L131.5 290.3 L129.0 287.4 L126.5 284.4 L124.1 281.5 L121.6 278.6 L119.1 275.6 L116.6 272.7 L114.1 269.7 L111.6 266.8 L109.2 263.9 L106.7 260.9 L104.2 258.0 L101.8 255.0 L99.3 252.1 L96.8 249.2 L94.3 246.2 L91.8 243.3 L89.3 240.4 L86.8 237.5 L84.3 234.6 L81.8 231.7 L79.3 228.7 L77.1 225.6 L75.0 222.4 L73.2 219.0 L71.7 215.4 L70.6 211.8 L70.0 208.0 L70.0 204.2 L70.4 200.3 L71.2 196.6 L72.3 192.9 L73.4 189.2 L74.5 185.6 L75.6 181.9 L77.0 178.3 L78.8 174.8 L81.0 171.8 L83.8 169.2 L87.0 167.1 L90.6 165.6 L94.3 164.6 L98.1 164.2 L102.0 164.4 L105.7 165.3 L109.2 166.8 L112.2 169.1 L114.9 171.8 L117.3 174.9 L119.4 178.1 L121.4 181.3 L123.5 184.6 L125.6 187.8 L127.7 191.0 L129.9 194.2 L132.0 197.3 L134.2 200.5 L136.3 203.7 L138.5 206.9 L140.6 210.1 L142.7 213.4 L144.8 216.6 L147.0 219.7 L149.2 222.9 L151.6 225.9 L154.1 228.7 L157.0 231.3 L160.2 233.4 L163.7 235.1 L167.3 236.3 L171.1 237.0 L174.9 237.4 L178.7 237.5 L182.6 237.6 L186.4 237.7 L190.2 238.1 L193.9 239.0 L197.5 240.5 L200.8 242.5 L203.7 244.9 L206.3 247.7 L208.4 250.9 L210.0 254.4 L211.2 258.1 L212.2 261.8 L213.3 265.5 L214.4 269.1 L215.5 272.8 L216.5 276.5 L217.6 280.3 L218.9 283.8 L220.6 287.3 L222.6 290.5 L225.1 293.5 L227.8 296.2 L230.8 298.7 L234.0 300.7 L237.5 302.3 L241.1 303.5 L244.9 304.3 L248.7 304.7 L252.5 304.8 L256.4 304.8 L260.2 304.7 L264.1 304.8 L267.9 305.0 L271.7 305.6 L275.3 306.8 L278.9 308.3 L282.2 310.2 L285.3 312.5 L288.1 315.0 L290.6 317.9 L292.8 321.1 L294.5 324.5 L295.9 328.1 L296.7 331.9 L297.1 335.7 L296.8 339.5 L296.1 343.3 L294.9 347.0 L293.6 350.6 L292.3 354.2 L291.1 357.8 L289.8 361.4 L288.6 365.1 L287.3 368.7 L286.3 372.4 L285.7 376.2 L285.6 380.0 L286.0 383.8 L286.9 387.6 L288.2 391.2 L289.9 394.7 L292.0 397.9 L294.5 400.7 L297.3 403.4 L300.4 405.6 L303.8 407.5 L307.2 409.3 L310.6 411.0 L314.1 412.5 L317.7 414.0 L321.3 415.4 L324.8 416.8 L328.5 418.0 L332.2 419.0 L336.0 419.6 L339.8 420.0 L343.6 420.2 L347.5 420.3 L351.3 420.3 L355.2 420.2 L359.0 420.0 L362.8 419.5 L366.6 418.9 L370.3 418.0 L373.9 416.8 L377.5 415.2 L381.0 413.6 L384.4 412.0 L387.9 410.5 L391.4 408.8 L394.8 406.9 L398.0 404.8 L401.1 402.5 L404.0 400.1 L406.8 397.4 L409.5 394.7 L412.1 391.9 L414.7 389.0 L417.1 386.1 L419.6 383.1 L422.0 380.1 L424.4 377.1 L426.8 374.1 L429.2 371.1 L431.6 368.1 L434.0 365.1 L436.4 362.1 L438.8 359.1 L441.2 356.1 L443.6 353.1 L446.0 350.1 L448.4 347.1 L451.1 344.2 L454.1 342.0 L457.7 341.0 L461.5 340.6 L465.4 340.3 L469.2 339.9 L473.0 339.5 L476.8 339.2 L480.7 338.8 L484.5 338.4 L488.3 338.0 L492.2 337.7 L496.0 337.3 L499.8 336.9 L503.6 336.5 L507.5 336.4 L511.3 337.0 L514.4 339.0 L516.2 342.2 L517.2 346.0 L518.0 349.7 L518.8 353.5 L519.7 357.3 L520.5 361.0 L521.4 364.7 L522.2 368.5 L523.0 372.2 L523.8 376.0 L524.6 379.8 L525.4 383.5 L526.2 387.3 L527.0 391.0 L527.8 394.8 L528.6 398.6 L529.4 402.3 L530.2 406.1 L530.9 409.9 L531.7 413.6 L532.5 417.4 L533.3 421.1 L534.1 424.9 L534.9 428.6 L535.7 432.4 L536.6 436.2 L537.3 439.9 L538.1 443.7 L538.7 447.5 L539.1 451.3 L539.3 455.1 L539.1 459.0 L538.3 462.7 L537.2 466.4 L536.0 470.1 L534.6 473.6 L533.1 477.2 L531.5 480.7 L530.0 484.2 L528.6 487.8 L527.1 491.3 L525.4 494.8 L524.1 498.4 L523.6 502.2 L524.6 505.9 L527.1 508.6 L530.8 509.6 L534.5 508.8 L537.7 506.7 L540.2 503.8 L542.3 500.6 L544.0 497.2 L545.7 493.8 L547.5 490.3 L549.5 487.0 L551.5 483.8 L553.6 480.6 L555.7 477.4 L557.8 474.2 L559.9 470.9 L561.9 467.7 L563.9 464.4 L565.9 461.1 L568.1 457.9 L570.5 454.9 L573.0 452.0 L575.5 449.1 L578.2 446.3 L581.0 443.7 L584.0 441.3 L587.1 439.1 L590.3 437.0 L593.7 435.2 L597.1 433.5 L600.8 432.2 L604.5 431.3 L608.3 430.8 L612.1 430.4 L615.9 429.9 L619.8 429.6 L623.6 429.3 L627.4 429.3 L631.2 429.3 L635.1 429.4 L638.9 429.7 L642.7 430.1 L646.6 430.6 L650.3 431.3 L654.1 432.0 L657.9 432.8 L661.6 433.7 L665.3 434.8 L669.0 435.9 L672.6 437.1 L676.2 438.4 L679.9 439.6 L683.6 440.7 L687.2 442.1 L690.7 443.6 L694.2 445.2 L697.6 446.9 L700.9 448.8 L704.2 450.8 L707.5 452.8 L710.7 455.0 L713.7 457.3 L716.7 459.8 L719.6 462.3 L722.4 464.9 L725.0 467.7 L727.6 470.6 L730.0 473.6 L732.3 476.6 L734.5 479.8 L736.6 483.0 L738.4 486.4 L740.2 489.8 L741.9 493.3 L743.5 496.8 L745.1 500.3 L746.7 503.8 L748.2 507.2 L749.8 510.8 L751.4 514.3 L753.0 517.8 L754.6 521.3 L756.2 524.7 L757.8 528.3 L759.4 531.8 L761.0 535.3 L762.5 538.8 L764.2 542.2 L766.3 545.4 L768.9 548.2 L771.9 550.6 L775.2 552.6 L778.7 554.2 L782.4 555.2 L786.2 555.7 L790.0 555.8 L793.8 555.6 L797.7 555.3 L801.5 554.7 L805.3 554.0 L809.0 553.0 L812.6 551.9 L816.2 550.4 L819.7 548.7 L822.8 546.5 L825.2 543.6 L827.2 540.3 L828.7 536.8 L829.7 533.0 L830.0 529.2 L829.8 525.4 L829.1 521.6 L827.9 518.0 L826.3 514.5 L824.3 511.2 L822.0 508.1 L819.5 505.2 L816.9 502.4 L814.0 499.8 L811.1 497.3 L808.1 494.9 L805.1 492.5 L802.2 490.0 L799.2 487.7 L796.2 485.3 L793.1 483.0 L790.0 480.7 L786.9 478.5 L783.7 476.3 L780.5 474.2 L777.2 472.1 L774.0 470.0 L770.8 467.9 L767.5 465.9 L764.3 463.8 L761.0 461.8 L757.7 459.8 L754.4 457.9 L751.1 456.0 L747.7 454.0 L744.4 452.2 L741.0 450.3 L737.6 448.6 L734.2 446.8 L730.8 445.1 L727.3 443.5 L723.8 441.8 L720.3 440.2 L716.8 438.7 L713.3 437.1 L709.7 435.6 L706.2 434.1 L702.7 432.5 L699.2 431.0 L695.6 429.5 L692.1 428.1 L688.4 426.8 L684.8 425.6 L681.1 424.5 L677.5 423.3 L673.8 422.1 L670.2 420.9 L666.5 419.7 L662.9 418.5 L659.2 417.3 L655.5 416.2 L651.9 415.0 L648.2 413.7 L644.6 412.5 L640.9 411.3 L637.3 410.1 L633.7 408.9 L630.0 407.6 L626.4 406.4 L622.8 405.1 L619.1 403.9 L615.5 402.6 L611.9 401.3 L608.2 400.1 L604.6 398.8 L601.0 397.6 L597.4 396.3 L593.7 395.1 L590.1 393.8 L586.5 392.6 L582.8 391.3 L579.2 390.1 L575.5 388.9 L571.9 387.6 L568.2 386.4 L564.6 385.1 L561.0 383.8 L557.4 382.6 L553.7 381.3 L550.1 380.1 L546.5 378.8 L542.8 377.6 L539.2 376.4 L535.5 375.3 L531.9 374.1 L528.2 373.0 L524.5 371.8 L520.8 370.6 L517.2 369.5 L513.5 368.4 L509.7 367.7 L505.9 367.3 L502.1 367.4 L498.3 368.0 L494.6 369.0 L490.9 370.1 L487.2 371.4 L483.6 372.6 L480.0 373.9 L476.5 375.3 L472.9 376.9 L469.4 378.5 L466.0 380.2 L462.6 382.0 L459.4 384.1 L456.2 386.3 L453.1 388.5 L449.9 390.7 L446.8 392.9 L443.9 395.4 L441.0 397.9 L438.1 400.6 L435.3 403.1 L432.5 405.8 L429.7 408.4 L427.0 411.1 L424.2 413.7 L421.4 416.4 L418.6 419.1 L415.9 421.7 L413.1 424.4 L410.3 427.0 L407.5 429.6 L404.7 432.3 L402.0 435.0 L399.2 437.6 L396.4 440.3 L393.5 442.9 L390.6 445.4 L387.7 447.8 L384.7 450.2 L381.7 452.6 L378.5 454.9 L374.9 456.0 L371.3 455.3 L368.0 453.3 L365.1 450.7 L362.3 448.1 L358.9 446.2 L355.2 445.8 L351.7 447.1 L348.7 449.5 L345.9 452.2 L343.0 454.8 L340.1 457.1 L336.9 459.3 L333.6 461.3 L330.1 462.9 L326.5 464.1 L322.7 465.0 L318.9 465.4 L315.1 465.4 L311.3 465.1 L307.5 464.4 L303.7 463.8 L299.9 463.1 L296.1 462.3 L292.5 461.3 L288.9 459.9 L285.4 458.3 L282.0 456.4 L278.7 454.4 L275.6 452.3 L272.4 450.1 L269.3 447.8 L266.4 445.4 L263.5 442.8 L260.7 440.1 L258.0 437.4 L255.4 434.6 L252.8 431.8 L250.2 429.0 L247.6 426.1 L245.0 423.2 L242.5 420.3 Z" fill="none" stroke="#eaf6ff" stroke-width="2.4" stroke-opacity="0.95"/><path d="M238.1 421.7 L236.7 413.6 L244.4 416.2" fill="none" stroke="#ffd34d" stroke-width="2" opacity="0.9"/><path d="M118.3 281.3 L117.1 273.2 L124.8 275.9" fill="none" stroke="#ffd34d" stroke-width="2" opacity="0.9"/><path d="M129.1 185.4 L129.5 193.6 L122.1 190.1" fill="none" stroke="#ffd34d" stroke-width="2" opacity="0.9"/><path d="M253.3 300.7 L259.4 306.1 L251.8 308.9" fill="none" stroke="#ffd34d" stroke-width="2" opacity="0.9"/><path d="M343.2 416.1 L350.6 419.4 L344.1 424.4" fill="none" stroke="#ffd34d" stroke-width="2" opacity="0.9"/><path d="M502.5 333.7 L505.1 341.5 L497.0 340.1" fill="none" stroke="#ffd34d" stroke-width="2" opacity="0.9"/><path d="M522.6 498.1 L530.4 500.5 L524.6 506.3" fill="none" stroke="#ffd34d" stroke-width="2" opacity="0.9"/><path d="M666.7 430.8 L671.9 437.2 L663.9 438.7" fill="none" stroke="#ffd34d" stroke-width="2" opacity="0.9"/><path d="M792.6 551.6 L800.5 553.5 L795.1 559.6" fill="none" stroke="#ffd34d" stroke-width="2" opacity="0.9"/><path d="M729.0 449.0 L724.4 442.3 L732.5 441.3" fill="none" stroke="#ffd34d" stroke-width="2" opacity="0.9"/><path d="M552.4 385.3 L547.1 379.2 L555.0 377.3" fill="none" stroke="#ffd34d" stroke-width="2" opacity="0.9"/><path d="M398.5 443.9 L390.4 443.9 L394.2 436.7" fill="none" stroke="#ffd34d" stroke-width="2" opacity="0.9"/><circle cx="98.1" cy="164.2" r="9" fill="#0a1c33" stroke="#ffb14d" stroke-width="1.5"/><text x="98.1" y="167.7" fill="#ffb14d" font-size="10" text-anchor="middle">1</text><circle cx="160.2" cy="233.4" r="9" fill="#0a1c33" stroke="#ffb14d" stroke-width="1.5"/><text x="160.2" y="236.9" fill="#ffb14d" font-size="10" text-anchor="middle">2</text><circle cx="203.7" cy="244.9" r="9" fill="#0a1c33" stroke="#ffb14d" stroke-width="1.5"/><text x="203.7" y="248.4" fill="#ffb14d" font-size="10" text-anchor="middle">3</text><circle cx="227.8" cy="296.2" r="9" fill="#0a1c33" stroke="#ffb14d" stroke-width="1.5"/><text x="227.8" y="299.7" fill="#ffb14d" font-size="10" text-anchor="middle">4</text><circle cx="295.9" cy="328.1" r="9" fill="#0a1c33" stroke="#ffb14d" stroke-width="1.5"/><text x="295.9" y="331.6" fill="#ffb14d" font-size="10" text-anchor="middle">5</text><circle cx="286.9" cy="387.6" r="9" fill="#0a1c33" stroke="#ffb14d" stroke-width="1.5"/><text x="286.9" y="391.1" fill="#ffb14d" font-size="10" text-anchor="middle">6</text><circle cx="451.1" cy="344.2" r="9" fill="#0a1c33" stroke="#ffb14d" stroke-width="1.5"/><text x="451.1" y="347.7" fill="#ffb14d" font-size="10" text-anchor="middle">7</text><circle cx="511.3" cy="337.0" r="9" fill="#0a1c33" stroke="#ffb14d" stroke-width="1.5"/><text x="511.3" y="340.5" fill="#ffb14d" font-size="10" text-anchor="middle">8</text><circle cx="539.3" cy="455.1" r="9" fill="#0a1c33" stroke="#ffb14d" stroke-width="1.5"/><text x="539.3" y="458.6" fill="#ffb14d" font-size="10" text-anchor="middle">9</text><circle cx="527.1" cy="508.6" r="9" fill="#0a1c33" stroke="#ffb14d" stroke-width="1.5"/><text x="527.1" y="512.1" fill="#ffb14d" font-size="10" text-anchor="middle">10</text><circle cx="593.7" cy="435.2" r="9" fill="#0a1c33" stroke="#ffb14d" stroke-width="1.5"/><text x="593.7" y="438.7" fill="#ffb14d" font-size="10" text-anchor="middle">11</text><circle cx="827.2" cy="540.3" r="9" fill="#0a1c33" stroke="#ffb14d" stroke-width="1.5"/><text x="827.2" y="543.8" fill="#ffb14d" font-size="10" text-anchor="middle">12</text><circle cx="505.9" cy="367.3" r="9" fill="#0a1c33" stroke="#ffb14d" stroke-width="1.5"/><text x="505.9" y="370.8" fill="#ffb14d" font-size="10" text-anchor="middle">13</text><circle cx="378.5" cy="454.9" r="9" fill="#0a1c33" stroke="#ffb14d" stroke-width="1.5"/><text x="378.5" y="458.4" fill="#ffb14d" font-size="10" text-anchor="middle">14</text><circle cx="355.2" cy="445.8" r="9" fill="#0a1c33" stroke="#ffb14d" stroke-width="1.5"/><text x="355.2" y="449.3" fill="#ffb14d" font-size="10" text-anchor="middle">15</text><circle cx="326.5" cy="464.1" r="9" fill="#0a1c33" stroke="#ffb14d" stroke-width="1.5"/><text x="326.5" y="467.6" fill="#ffb14d" font-size="10" text-anchor="middle">16</text><line x1="79.5" y1="224.0" x2="74.4" y2="227.4" stroke="#fff" stroke-width="5" stroke-dasharray="4 4"/><circle cx="77.1" cy="225.6" r="5" fill="#ff3b6b"/><text x="87.1" y="217.6" fill="#fff" font-size="12" font-weight="bold">S/F</text><text x="50" y="40" fill="#eaf6ff" font-size="26" font-weight="bold" letter-spacing="2">SUZUKA</text><text x="50" y="60" fill="#ffb14d" font-size="13">REAL — Suzuka Circuit, Japanese GP</text><text x="830" y="40" fill="#9fc6e6" font-size="12" text-anchor="end">official 5.807 km · 18 corners · clockwise (figure-8)</text><line x1="50" y1="686" x2="146.05176684697437" y2="686" stroke="#eaf6ff" stroke-width="2"/><line x1="50" y1="681" x2="50" y2="691" stroke="#eaf6ff" stroke-width="2"/><line x1="146.05176684697437" y1="681" x2="146.05176684697437" y2="691" stroke="#eaf6ff" stroke-width="2"/><text x="98.02588342348719" y="678" fill="#9fc6e6" font-size="11" text-anchor="middle">250 m</text><line x1="822" y1="678" x2="822" y2="642" stroke="#9fc6e6" stroke-width="2"/><path d="M817 650 L822 640 L827 650 Z" fill="#9fc6e6"/><text x="822" y="692" fill="#9fc6e6" font-size="11" text-anchor="middle">N</text></svg>